<?xml version="1.0" encoding="UTF-8" standalone="no"?><!DOCTYPE svg PUBLIC "-//W3C//DTD SVG 1.1//EN" "http://www.w3.org/Graphics/SVG/1.1/DTD/svg11.dtd"><svg width="100%" height="100%" viewBox="0 0 1417 1167" version="1.1" xmlns="http://www.w3.org/2000/svg" xmlns:xlink="http://www.w3.org/1999/xlink" xml:space="preserve" xmlns:serif="http://www.serif.com/" style="fill-rule:evenodd;clip-rule:evenodd;stroke-linejoin:round;stroke-miterlimit:2;"><g><g><g id="Net"><path d="M1279.31,434.246l-72.392,-30.036l7.772,-83.521l71.918,29.779l-7.298,83.778Zm-7.337,84.2l-72.787,-31.086l6.984,-75.064l72.43,30.055l-6.627,76.095Zm-6.771,77.716l-73.195,-31.649l6.426,-69.044l72.834,31.109l-6.065,69.584Zm-5.926,68.013l-73.605,-31.493l5.58,-60.044l73.241,31.672l-5.216,59.865Zm-6.539,75.029l-74.109,-30.866l6.282,-67.544l73.656,31.513l-5.829,66.897Zm-7.88,90.471l-74.671,-30.563l7.694,-82.684l74.156,30.881l-7.179,82.366Zm-8.085,92.801l-75.304,-29.678l7.965,-85.612l74.722,30.582l-7.383,84.708Zm-82.816,-32.641l-79.806,-31.455l10.106,-86.058l77.669,31.792l-7.969,85.721Zm-8.47,91.021l-82.145,-30.493l9.87,-84.014l79.993,31.533l-7.718,82.974Zm-89.625,-33.273l-74.463,-27.643l10.58,-85.608l73.772,29.078l-9.889,84.173Zm-10.537,89.668c-23.191,-10.215 -48.061,-21.069 -74.412,-32.455l9.509,-76.945l74.509,27.659l-9.606,81.741Zm-7.527,64.092c-22.923,-9.885 -48.1,-20.658 -74.866,-31.978l6.988,-56.55c26.383,11.406 51.276,22.284 74.459,32.495l-6.581,56.033Zm-2.292,19.499c-26.778,-4.506 -52.284,-10.346 -76.82,-17.129l3.253,-26.348c26.813,11.352 52.024,22.14 74.913,32.014l-1.346,11.463Zm-153.059,-85.135l6.535,-57.507c25.571,10.824 50.112,21.318 73.52,31.412l-6.996,56.616c-23.369,-9.862 -47.859,-20.108 -73.059,-30.521m68.688,65.877c-25.351,-7.264 -49.705,-15.485 -73.419,-24.226l3.824,-33.638c25.18,10.416 49.65,20.654 72.977,30.504l-3.382,27.36Zm-156.615,-101.675l6.845,-58.357c27.643,11.429 54.409,22.621 80.171,33.499l-6.542,57.581c-26.286,-10.839 -53.265,-21.825 -80.474,-32.723m75.711,74.66c-27.076,-10.152 -53.369,-20.898 -79.434,-31.563c-0.422,-0.175 -0.849,-0.349 -1.272,-0.52l4.061,-34.6c27.227,10.909 54.215,21.911 80.5,32.754l-3.855,33.929Zm-159.783,-107.705l6.341,-58.481c22.958,8.393 44.659,16.734 64.693,24.971c4.161,1.714 8.307,3.421 12.437,5.119l-6.86,58.458c-25.522,-10.192 -51.19,-20.282 -76.611,-30.067m71.624,72.578c-24.967,-10.207 -50.233,-20.433 -76.235,-30.063l3.746,-34.545c25.405,9.792 51.051,19.883 76.541,30.066l-4.052,34.542Zm-158.322,-105.025l5.996,-56.15c27.678,9.125 54.339,18.281 79.539,27.394l-6.325,58.334c-26.895,-10.312 -53.452,-20.244 -79.21,-29.578m74.583,72.228c-25.645,-9.33 -52.016,-18.04 -79.574,-25.509l4.142,-38.785c25.762,9.35 52.315,19.301 79.194,29.609l-3.762,34.685Zm-168.66,-104.618l6.515,-53.396c29.341,8.958 58.171,18.032 86.027,27.15l-5.972,55.917c-30.327,-10.913 -59.435,-20.93 -86.57,-29.671m81.497,77.15c-28.217,-7.356 -57.635,-13.429 -88.776,-17.517l6.321,-51.787c27.177,8.772 56.325,18.824 86.678,29.764l-4.223,39.54Zm-130.849,-92.231c-13.271,-3.789 -26.766,-7.334 -40.405,-10.669l7.042,-54.126c27.406,7.915 54.746,15.997 81.699,24.188l-6.504,53.284c-14.593,-4.634 -28.6,-8.896 -41.832,-12.677m34.371,73.814c-4.46,-0.535 -8.896,-1.097 -13.426,-1.551c-24.738,-2.474 -48.588,-4.064 -71.499,-4.94l9.14,-70.251c13.255,3.25 26.379,6.705 39.281,10.389c13.589,3.882 27.984,8.264 43.008,13.046l-6.504,53.307Zm-189.613,-5.665l14.911,-91.332c30.633,5.185 61.316,11.273 91.332,18.424l-9.342,71.806c-34.62,-1.093 -67.009,-0.55 -96.901,1.102m-98.852,10.156l19.526,-114.875c28.326,3.312 57.399,7.306 86.589,12.107l-15.194,93.077c-33.754,2.113 -64.197,5.608 -90.921,9.691m-75.66,14.872l23.268,-136.964c20.705,1.753 42.205,3.843 64.205,6.332l-19.898,117.028c-26.623,4.297 -49.282,9.121 -67.575,13.604m-36.175,-149.017l15.323,-94.202c16.594,4.181 34.014,8.613 52.055,13.244l-14.392,84.708c-18.401,-1.501 -36.139,-2.734 -52.986,-3.75m-7.783,-0.454c-23.807,-1.361 -45.703,-2.28 -65.062,-2.897l18.824,-108.104c18.82,4.622 39.537,9.761 61.793,15.353l-15.555,95.648Zm-24.428,-236.27l59.272,22.008l-18.04,110.931c-22.229,-5.58 -42.919,-10.711 -61.712,-15.326l20.48,-117.613Zm19.329,-111.021l57.868,22.807l-16.656,102.419l-59.191,-21.977l17.979,-103.249Zm18.409,-105.746l56.6,23.167l-15.865,97.552l-57.787,-22.775l17.052,-97.944Zm63.964,26.18l53.04,21.71l-16.385,96.435l-52.501,-20.697l15.846,-97.448Zm15.435,-94.903l53.621,22.33l-14.686,86.449l-53.09,-21.729l14.155,-87.05Zm60.966,25.389l61.018,25.413l-14.617,85.984l-61.075,-24.998l14.674,-86.399Zm14.113,-83.052l60.916,26.065l-12.673,74.551l-61.021,-25.409l12.778,-75.207Zm68.249,29.202l79.194,33.882l-12.053,73.827l-79.802,-33.231l12.661,-74.478Zm86.539,37.024l71.643,30.652l-9.625,73.942l-74.059,-30.846l12.041,-73.748Zm11.339,-69.456l69.421,30.02l-8.078,62.099l-71.394,-30.547l10.051,-61.572Zm76.828,33.223l76.243,32.967l-7.559,61.94l-76.758,-32.843l8.074,-62.064Zm9.451,-72.62l75.731,32.347l-7.958,65.213l-76.18,-32.94l8.407,-64.62Zm83.157,35.519l76.235,32.56l-7.054,66.051l-77.146,-33.359l7.965,-65.252Zm9.195,-75.37l75.23,31.21l-7.333,68.657l-76.115,-32.513l8.218,-67.354Zm82.699,34.309l80.016,33.2l-7.551,69.63l-79.806,-34.088l7.341,-68.742Zm9.688,-90.692l80.167,33.192l-8.966,82.665l-80.032,-33.208l8.831,-82.649Zm87.628,36.283l83.351,34.507l-9.676,82.447l-82.637,-34.286l8.962,-82.668Zm9.42,-86.86l83.948,35.976l-9.079,77.387l-83.416,-34.534l8.547,-78.829Zm91.382,39.164l77.088,33.037l-8.671,76.328l-77.484,-32.083l9.067,-77.282Zm8.163,-69.626c23.548,9.485 49.535,19.999 77.038,31.198l-7.202,63.418l-77.057,-33.025l7.221,-61.591Zm84.495,34.239c26.437,10.777 54.161,22.147 82.37,33.809l-7.997,64.728l-81.59,-34.968l7.217,-63.569Zm89.804,36.884c22.981,9.517 46.223,19.2 69.316,28.907l-7.725,65.756l-69.603,-29.83l8.012,-64.833Zm48.763,270.342l9.71,-82.652l66.276,27.441l-7.768,83.517l-68.218,-28.306Zm-9.568,81.435l8.625,-73.426l68.413,28.383l-6.977,74.97l-70.061,-29.927Zm-8.927,75.991l7.985,-67.959l70.251,30.004l-6.418,69.006l-71.818,-31.051Zm-7.973,67.831l7.027,-59.792l72.004,31.137l-5.585,60.082l-73.446,-31.427Zm-8.9,75.8l7.958,-67.765l73.632,31.501l-6.29,67.626l-75.3,-31.362Zm-0.943,8.012l75.491,31.439l-7.698,82.735l-77.484,-31.711l9.691,-82.463Zm-90.183,49.515l10.234,-82.808l72.504,30.194l-9.695,82.51l-73.043,-29.896Zm-0.985,7.981l73.089,29.915l-10.122,86.166l-73.725,-29.058l10.758,-87.023Zm-93.779,54.3l10.059,-88.567l76.285,31.223l-10.773,87.132l-75.571,-29.788Zm-10.871,95.714l9.967,-87.733l75.494,29.757l-10.603,85.77l-74.858,-27.794Zm-0.903,7.939l74.784,27.763l-9.458,76.521c-23.435,-10.106 -48.007,-20.608 -73.598,-31.431l8.272,-72.853Zm-87.787,-32.588l80.302,29.807l-8.233,72.489c-25.762,-10.874 -52.52,-22.059 -80.144,-33.468l8.075,-68.828Zm-85.414,-31.71l77.929,28.93l-8.039,68.533c-3.463,-1.427 -6.934,-2.858 -10.424,-4.293c-20.651,-8.489 -43.047,-17.095 -66.78,-25.743l7.314,-67.427Zm-86.089,-40.235l10.005,-93.678l79.407,31.3l-9.963,91.874l-79.449,-29.496Zm-0.849,7.958l79.437,29.488l-7.321,67.506c-25.227,-9.102 -51.885,-18.239 -79.555,-27.348l7.439,-69.646Zm-90.867,-42.003l11.611,-95.148l82.626,32.568l-10.021,93.841l-84.216,-31.261Zm-0.966,7.911l84.332,31.307l-7.473,69.952c-27.832,-9.094 -56.619,-18.149 -85.91,-27.084l9.051,-74.175Zm-87.771,-32.584l80.295,29.811l-9.11,74.652c-26.941,-8.175 -54.262,-16.241 -81.637,-24.148l10.452,-80.315Zm-105.972,53.401l14.275,-87.446l84.235,31.277l-10.529,80.907c-29.457,-8.469 -58.927,-16.737 -87.981,-24.738m-1.256,7.694c29.139,8.024 58.694,16.323 88.225,24.82l-7.089,54.478c-29.95,-7.112 -60.552,-13.173 -91.091,-18.343l9.955,-60.955Zm-91.84,-24.777c27.39,7.248 55.626,14.842 84.316,22.714l-10.079,61.739c-29.174,-4.794 -58.229,-8.784 -86.535,-12.104l12.298,-72.349Zm-70.046,-18.292c20.143,5.188 41.05,10.633 62.518,16.299l-12.487,73.458c-21.996,-2.497 -43.492,-4.592 -64.201,-6.344l14.17,-83.413Zm11.445,-113.681l-17.68,104.071c-18.064,-4.638 -35.5,-9.071 -52.114,-13.255l17.905,-110.083l51.889,19.267Zm1.322,-7.784l-51.943,-19.285l16.63,-102.256l52.45,20.669l-17.137,100.872Zm85.724,-73.838l-16.896,99.391l-61.429,-22.807l17.11,-100.713l61.215,24.129Zm1.327,-7.814l-61.212,-24.125l16.362,-96.331l61.079,25.002l-16.229,95.454Zm104.113,-59.481l-15.419,94.442l-81.322,-32.052l16.21,-95.354l80.531,32.964Zm1.284,-7.857l-80.481,-32.94l14.609,-85.938l79.852,33.254l-13.98,85.624Zm84.429,34.557l-77.065,-31.544l13.973,-85.573l74.307,30.947l-11.215,86.17Zm96.187,-50.783l-10.474,85.864l-78.287,-32.041l11.208,-86.119l77.553,32.296Zm0.977,-7.993l-77.495,-32.277l9.614,-73.857l76.824,32.866l-8.943,73.268Zm94.683,-36.581l-7.772,72.775l-79.476,-33.099l8.935,-73.186l78.313,33.51Zm0.861,-8.071l-78.197,-33.455l7.554,-61.906l77.263,33.41l-6.62,61.951Zm86.158,45.3l-7.783,71.783l-79.542,-33.127l7.763,-72.698l79.562,34.042Zm7.547,-69.592l-6.67,61.529l-79.578,-34.045l6.612,-61.921l79.636,34.437Zm0.876,-8.074l-79.647,-34.441l7.054,-66.089l79.799,34.08l-7.206,66.45Zm87.699,46.378l-7.144,60.92l-80.648,-34.503l6.671,-61.498l81.121,35.081Zm8.764,-74.699l-7.818,66.656l-81.195,-35.112l7.21,-66.485l81.803,34.941Zm0.938,-8.031l-81.865,-34.969l7.558,-69.715l82.572,34.254l-8.265,70.43Zm93.543,-35.046l-8.125,71.526l-77.979,-33.304l8.271,-70.515l77.833,32.293Zm0.907,-8.024l-77.801,-32.277l9.676,-82.455l77.514,32.095l-9.389,82.637Zm97.688,-46.075l-10.183,82.381l-80.051,-33.211l9.385,-82.645l80.849,33.475Zm0.985,-7.989l-80.923,-33.502l8.656,-76.227l81.513,34.933l-9.246,74.796Zm7.435,3.079l9.233,-74.691l69.65,29.849l-8.683,73.908l-70.2,-29.066Zm-11.169,90.378l10.18,-82.393l70.25,29.086l-9.71,82.645l-70.72,-29.338Zm-9.928,80.326l8.939,-72.341l70.77,29.361l-8.621,73.341l-71.088,-30.361Zm-9.323,75.397l8.334,-67.389l71.135,30.385l-7.981,67.92l-71.488,-30.916Zm-8.4,68.013l7.415,-59.989l71.531,30.931l-7.031,59.827l-71.915,-30.769Zm-0.993,8.012l71.965,30.788l-7.969,67.85l-72.457,-30.175l8.461,-68.463Zm-93.057,33.231l7.911,-69.665l77.728,33.258l-8.474,68.545l-77.165,-32.138Zm-0.915,8.02l77.091,32.11l-10.242,82.859l-76.358,-31.254l9.509,-83.715Zm-96.207,48.227l9.874,-84.18l78.883,32.854l-9.513,83.762l-79.244,-32.436Zm-11.463,97.7l10.521,-89.699l79.275,32.447l-10.072,88.676l-79.724,-31.424Zm-0.935,7.969l79.756,31.436l-9.982,87.9l-80.28,-29.803l10.506,-89.533Zm-86.038,-33.913l78.577,30.97l-10.521,89.699l-78.003,-28.957l9.947,-91.712Zm-76.15,-134.832l79.438,32.517l-9.904,91.375l-79.423,-31.308l9.889,-92.584Zm-6.616,-11.087l-80.899,-33.115l10.47,-85.809l79.589,33.145l-9.16,85.779Zm86.927,35.581l-79.454,-32.522l9.156,-85.728l79.528,33.123l-9.23,85.127Zm85.883,43.531l-10.533,89.811l-78.65,-31.001l9.9,-91.262l79.283,32.452Zm10.82,-92.232l-9.881,84.235l-79.353,-32.478l9.226,-85.077l80.008,33.32Zm0.938,-8.008l-80.077,-33.351l7.775,-71.697l80.582,34.475l-8.28,70.573Zm94.225,-33.805l-7.923,69.743l-78.856,-32.839l8.272,-70.492l78.507,33.588Zm7.799,-68.684l-6.888,60.641l-78.48,-33.576l7.14,-60.893l78.228,33.828Zm0.915,-8.055l-78.197,-33.812l7.822,-66.699l78.003,33.32l-7.628,67.191Zm84.863,45.149l-7.422,60.02l-77.802,-33.289l6.884,-60.606l78.34,33.875Zm-68.874,-117.203l8.129,-71.616l79.981,33.181l-8.928,72.256l-79.182,-33.821Zm78.189,41.829l-8.326,67.354l-78.414,-33.914l7.632,-67.23l79.108,33.79Zm-463.558,136.767l81.016,33.161l-9.896,92.693l-82.514,-32.521l11.394,-93.333Zm-98.06,59.171l12.27,-94.287l78.344,32.068l-11.401,93.441l-79.213,-31.222Zm-1.032,7.931l79.275,31.249l-11.63,95.307l-80.237,-29.791l12.592,-96.765Zm-86.837,-42.562l15.404,-94.337l77.309,31.645l-12.282,94.391l-80.431,-31.699Zm-1.28,7.834l80.675,31.796l-12.611,96.932l-83.991,-31.184l15.927,-97.544Zm-105.622,64.247l16.869,-99.231l81.37,32.071l-15.951,97.708l-82.288,-30.548Zm-25.173,101.791c-21.468,-5.665 -42.379,-11.11 -62.517,-16.299l17.544,-103.261l61.424,22.803l-16.451,96.757Zm23.85,-94.011l82.339,30.567l-14.391,88.136c-28.678,-7.869 -56.899,-15.458 -84.266,-22.698l16.318,-96.005Zm937.805,-430.824l-6.845,73.625l-66.093,-27.364l8.671,-73.807l64.267,27.546Zm82.118,118.854c-2.568,-9.943 -5.267,-19.797 -8.09,-29.554l-1.501,17.191l-71.872,-29.76l6.841,-73.52l44.625,19.123c-1.233,-3.359 -2.474,-6.709 -3.735,-10.033l-40.137,-17.203l4.456,-47.863c-2.18,-3.23 -4.468,-6.538 -6.872,-9.92l-5.073,54.572l-64.085,-27.464l7.733,-65.807c16.04,6.752 31.901,13.488 47.596,20.186c-3.394,-4.321 -6.946,-8.699 -10.673,-13.112c-11.905,-5.061 -23.889,-10.133 -35.969,-15.218l2.401,-20.386c-2.312,-2.188 -4.654,-4.363 -7.047,-6.527l-2.792,23.784c-23.097,-9.699 -46.323,-19.371 -69.273,-28.868l5.332,-43.144c-2.412,-1.345 -4.852,-2.668 -7.318,-3.967l-5.449,44.039c-28.263,-11.677 -56.006,-23.043 -82.451,-33.812l4.541,-39.987c-2.524,-0.508 -5.068,-0.993 -7.635,-1.439l-4.359,38.393c-27.534,-11.2 -53.498,-21.694 -77.014,-31.152l1.334,-11.367c-2.641,0.186 -5.267,0.403 -7.884,0.652l-0.912,7.717c-5.026,-2.021 -9.877,-3.967 -14.651,-5.883c-4.999,0.71 -9.959,1.524 -14.884,2.443c8.997,3.607 18.549,7.442 28.593,11.483l-7.202,61.409l-84.01,-36.008l2.191,-20.243c-2.718,0.985 -5.425,1.997 -8.128,3.032l-1.52,14.019l-16.036,-6.875c-3.25,1.396 -6.488,2.815 -9.707,4.277l24.87,10.657l-8.559,78.93l-80.182,-33.196l2.61,-24.428c-2.777,1.617 -5.554,3.246 -8.319,4.89l-1.756,16.447l-15.067,-6.24c-2.703,1.676 -5.406,3.355 -8.097,5.042l22.307,9.237l-8.827,82.645l-75.114,-31.164l2.761,-22.647c-2.831,1.853 -5.662,3.703 -8.489,5.545l-1.71,14.015l-12.134,-5.037c-2.653,1.71 -5.305,3.412 -7.954,5.099l19.115,7.931l-8.21,67.269l-75.668,-32.32l0.624,-4.789c-2.253,1.202 -4.51,2.388 -6.767,3.556c-2.552,1.322 -5.115,2.563 -7.687,3.758l5.379,2.299l-8.403,64.581l-69.173,-29.915l2.78,-17.044c-2.679,0.411 -5.359,0.807 -8.047,1.167l-2.078,12.705l-22.978,-9.94c-5.468,0.497 -10.943,0.935 -16.431,1.346l38.121,16.486l-10.055,61.606l-79.148,-33.863l6.965,-40.964c-2.664,0.225 -5.328,0.462 -7.988,0.714l-6.31,37.113l-60.195,-25.758c-3.905,1.086 -7.775,2.241 -11.599,3.475l2.206,0.946l-12.785,75.284l-53.677,-22.357l4.332,-26.63c-2.943,1.757 -5.856,3.564 -8.737,5.421l-2.951,18.146l-14.52,-6.046c-2.396,1.784 -4.781,3.583 -7.131,5.433l20.371,8.485l-14.166,87.097l-56.511,-23.132l5.15,-29.582c-3.363,3.8 -6.671,7.659 -9.893,11.611l-2.606,14.961l-6.919,-2.827c-1.601,2.125 -3.184,4.274 -4.75,6.434l10.304,4.219l-17.071,98.045l-41.872,-16.501c-1.035,2.366 -2.028,4.754 -3.028,7.139l43.542,17.165l-18.002,103.408l-56.479,-20.965c-0.543,2.56 -1.048,5.127 -1.556,7.694l56.678,21.042l-20.631,118.51c-17.424,-4.27 -33.057,-8.055 -46.583,-11.305c0.089,2.691 0.198,5.375 0.329,8.059c13.151,3.16 28.213,6.809 44.92,10.897l-19.1,109.718c-1.528,-0.047 -2.986,-0.078 -4.479,-0.121c0.853,2.618 1.707,5.236 2.61,7.822c0.179,0.004 0.345,0.004 0.524,0.012l-0.167,0.962c1.702,4.824 3.51,9.571 5.39,14.275l2.61,-15c19.352,0.605 41.278,1.52 65.155,2.873l-17.075,104.983c2.102,3.075 4.212,6.143 6.368,9.156l18.491,-113.689c16.819,1.008 34.545,2.242 52.931,3.731l-23.726,139.664c-7.577,1.95 -14.232,3.796 -19.987,5.476c4.766,5.53 9.641,10.936 14.628,16.21c58.384,-15.765 189.784,-42.612 362.349,-25.367c107.802,10.781 191.878,44.714 280.39,80.924l-0.124,1.07l3.851,0.454c71.096,29.089 143.891,58.822 229.72,75.548c9.971,-4.646 19.991,-9.672 30.074,-15.113l1.036,-8.795c2.823,1.217 5.611,2.427 8.361,3.618c2.792,-1.575 5.588,-3.18 8.396,-4.817c-5.131,-2.222 -10.401,-4.506 -15.815,-6.84l6.573,-55.965c22.71,10.029 43.687,19.383 62.794,27.969c2.408,-1.726 4.828,-3.471 7.248,-5.251c-20.81,-9.358 -43.904,-19.662 -69.095,-30.776l9.664,-82.238l82.331,30.567l-6.523,70.111c2.796,-2.164 5.6,-4.371 8.407,-6.6l5.647,-60.719l43.628,16.199c1.916,-2.032 3.789,-4.099 5.658,-6.174l-48.538,-18.018l7.702,-82.815l75.347,29.702l-2.727,31.253c3.06,-4.351 6.042,-8.753 8.939,-13.213l1.315,-15.078l6.531,2.572c1.345,-2.238 2.648,-4.507 3.963,-6.771l-9.792,-3.863l7.368,-84.596l37.035,15.156c0.912,-2.416 1.796,-4.852 2.676,-7.287l-39.001,-15.966l7.166,-82.312l53.614,22.326c0.563,-2.567 1.137,-5.126 1.664,-7.705l-54.568,-22.73l5.821,-66.811l58.888,25.196c0.307,-2.683 0.586,-5.375 0.857,-8.066l-59.035,-25.262l5.208,-59.838l57.686,24.947c0.077,-2.788 0.136,-5.576 0.186,-8.368l-57.158,-24.719l6.061,-69.626l49.472,21.127c-0.178,-2.889 -0.364,-5.778 -0.562,-8.671l-48.2,-20.585l6.639,-76.184l32.184,13.348c-0.462,-2.998 -0.935,-5.991 -1.42,-8.981l-30.058,-12.472l7.298,-83.785l2.781,1.151Z" style="fill:#fff798;fill-rule:nonzero;"/></g></g></g></svg>