<?xml version="1.0" encoding="UTF-8" standalone="no"?>
<!DOCTYPE svg PUBLIC "-//W3C//DTD SVG 1.1//EN" "http://www.w3.org/Graphics/SVG/1.1/DTD/svg11.dtd">
<svg width="100%" height="100%" viewBox="0 0 3750 3750" version="1.1" xmlns="http://www.w3.org/2000/svg" xmlns:xlink="http://www.w3.org/1999/xlink" xml:space="preserve" xmlns:serif="http://www.serif.com/" style="fill-rule:evenodd;clip-rule:evenodd;stroke-linejoin:round;stroke-miterlimit:2;">
    <g>
        <path d="M2129.95,1071.23C2129.95,1063.8 2321.26,934.201 2377.26,990.619C2618.51,1233.68 3015.33,1814.05 3015.33,1814.05C3015.33,1814.05 3191.53,2102.53 3193.46,2146.89C3205.82,2431.82 3007.56,2945.88 3007.56,2945.88L3090.76,3456.93C3090.76,3456.93 2792.44,3563.09 2628.92,3537.31C2496.39,3516.42 2285.81,3466.52 2285.81,3466.52L2244.56,2887.5C2244.56,2887.5 2120.23,2743.79 2046.15,2643.46C2014.15,2600.12 1960.93,2536.26 1954.27,2488.54C1900.7,2104.66 1922.47,1718.07 1918.05,1555C1917.75,1543.92 1966.12,1483.55 2000.83,1461.08C2099.21,1397.4 2191.97,1750.04 2187.96,1688.37C2176.16,1507.01 2139.29,1214.86 2129.95,1071.23Z" style="fill:rgb(207,159,108);"/>
        <path d="M1446.34,2558.64C1446.89,2558.41 1447.56,2558.44 1447.82,2558.7C1448.07,2558.96 1447.62,2559.14 1446.81,2559.11C1445.91,2559.07 1445.73,2558.89 1446.34,2558.64L1446.34,2558.64ZM1206.9,2533.34C1190.16,2525.36 1174.04,2511.16 1163.66,2495.25L1162.44,2493.39L1151.71,2501.11C1124.24,2520.85 1113.08,2527.35 1100.44,2530.96C1087.9,2534.54 1065.88,2535.64 1053.54,2533.31C1026.68,2528.21 1003.42,2509.55 992.57,2484.39C990.949,2480.63 989.23,2476 988.75,2474.09C987.902,2470.72 987.785,2470.61 984.301,2470.16C968.438,2468.06 944.652,2456.53 931.973,2444.78C925.102,2438.42 918.266,2429.03 914,2420.09C900.34,2391.48 904.113,2359.06 924.02,2333.97C926.785,2330.48 939.922,2316.82 953.215,2303.61L977.383,2279.58L974.344,2275.09C959.117,2252.66 955.105,2224.52 963.492,2198.96C969.809,2179.71 982.926,2163.13 1029.94,2114.98C1085.85,2057.72 1186.1,1957.43 1262.72,1882.14C1285.61,1859.65 1305.02,1840.46 1305.87,1839.49C1307.47,1837.66 1301.98,1841.91 1291.11,1850.89C1287.66,1853.75 1281.46,1858.86 1277.34,1862.25C1273.22,1865.64 1267.2,1870.61 1263.97,1873.28C1260.74,1875.95 1254.98,1880.69 1251.16,1883.82C1244.56,1889.24 1241.22,1892 1224.18,1906.17C1220.1,1909.56 1214.22,1914.42 1211.12,1916.96C1208.02,1919.5 1201.93,1924.53 1197.59,1928.13C1188.75,1935.48 1186.92,1936.98 1160.56,1958.51C1150.21,1966.95 1138.98,1976.16 1135.59,1978.98C1132.2,1981.79 1125.63,1987.19 1120.99,1990.98C1116.35,1994.76 1111.15,1999.1 1109.43,2000.61C1107.72,2002.13 1103.77,2005.42 1100.66,2007.93C1097.56,2010.44 1092.48,2014.58 1089.39,2017.12C1076.53,2027.7 1068.73,2034.03 1058.16,2042.46C1052.01,2047.36 1045.55,2052.59 1043.79,2054.07C1032.58,2063.56 1008.2,2079.45 993.793,2086.66C979.633,2093.76 963.09,2099.07 946.051,2102C933.781,2104.11 907.414,2103.9 894.527,2101.61C875.73,2098.25 857.496,2091.9 842.141,2083.36L834.238,2078.96L832.184,2066.14C831.055,2059.1 825.086,2021.61 818.914,1982.84C812.746,1944.06 804.914,1894.93 801.516,1873.65L795.332,1834.96L796.996,1832.71L798.66,1830.46L795.441,1822.47C792.695,1815.67 791.773,1811.78 789.195,1796.2C786.281,1778.61 786.195,1777.57 786.934,1769.16C788.414,1752.27 791.68,1739.97 798.438,1725.8C803.055,1716.12 809.102,1706.88 816.133,1698.74L821.535,1692.48L817.148,1689.2C810.527,1684.25 799.492,1672.69 793.996,1664.96C787.699,1656.1 779.934,1640.2 776.992,1630.16C768.762,1602.03 771.277,1572.77 784.199,1546.36C790.141,1534.21 796.57,1525.02 805.598,1515.75L812.387,1508.79L808.105,1503.56C799.508,1493.05 793.551,1481.17 789.797,1467.06C788.371,1461.71 788.141,1458.77 788.156,1446.19C788.176,1432.64 788.332,1430.98 790.293,1423.85C794.531,1408.44 803.605,1392.99 814.914,1381.94L819.953,1377.02L817.945,1372.92L815.934,1368.82L812.035,1372.41C809.891,1374.38 800.324,1383.3 790.781,1392.22C757.824,1423.02 733.367,1444.25 732.297,1442.99C731.352,1441.87 723.637,1392.7 724.246,1391.68C728.094,1385.24 759.02,1346.69 789.297,1310.59C796.762,1301.69 806.457,1290.07 810.848,1284.77L818.824,1275.14L807.785,1285.54C792.562,1299.89 772.684,1317.81 763.332,1325.63C755.309,1332.34 747.961,1336.62 742.805,1337.58C736.609,1338.73 729.203,1334.72 725.891,1328.43C723.84,1324.52 723.758,1317.16 725.688,1310.42C729.086,1298.56 743.762,1275.75 764.855,1249.53C772.828,1239.62 775.523,1235.82 773.43,1237.46C768.945,1240.96 756.98,1248.87 753.43,1250.67C748.25,1253.31 740.023,1255.5 735.309,1255.5C726.301,1255.5 717.57,1248.82 714.926,1239.91C712.672,1232.32 713.816,1221.41 717.676,1213.67C719.059,1210.9 717.723,1211.99 708.664,1220.99C702.816,1226.81 697.957,1231.48 697.867,1231.39C697.469,1230.99 688.875,1175.88 685.594,1152.69L682.004,1127.33L698.891,1102.23C714.469,1079.07 743.949,1039.99 760.496,1020.56C763.176,1017.41 765.281,1014.77 765.176,1014.68C765.07,1014.59 762.215,1015.03 758.824,1015.67C749.969,1017.32 730.762,1017.25 721.07,1015.54C701.145,1012.03 677.996,1001.38 665.383,989.938L662.125,986.98L661.016,977.348C660.406,972.051 659.309,961.305 658.578,953.465C657.719,944.258 656.898,938.918 656.262,938.383C655.629,937.855 652.746,919.848 648.301,888.688C644.469,861.809 641.262,838.949 641.18,837.891C641.098,836.832 642.02,834.473 643.23,832.652L645.426,829.344L639.027,822.82L634.098,788.555C631.387,769.711 627.309,741.543 625.035,725.961L620.906,697.629L623.965,691.672C630.984,678.004 640.762,665.559 656.965,649.672L666.227,640.59L662.273,632.336C658.453,624.352 654.426,613.254 654.418,610.691C654.414,609.914 652.23,608.32 648.652,606.48C628.07,595.914 616.293,582.215 609.996,561.508C608.16,555.469 607.934,553.48 607.922,543.176C607.906,528.77 609.219,523.426 616.242,509.277C622.355,496.965 627.383,490.566 647.109,469.996C670.391,445.727 703.465,415.621 726.848,397.422C733.777,392.027 754.762,377.898 760.363,374.855C785.441,361.227 803.434,359.004 816.484,367.914L820.98,370.988L826.883,366.863C841.035,356.988 873.973,334.453 892.145,322.219L904.477,313.914L928.492,310.855C971.293,305.406 1016.03,300.113 1019.42,300.098C1021.53,300.09 1023,301.18 1029.21,307.336L1036.52,314.582L1042.52,312.723C1060.12,307.273 1087.96,305.195 1104.39,308.105C1118.84,310.664 1134.77,317.211 1147.31,325.746L1153.38,329.883L1160.67,325.754C1180.84,314.32 1203.64,304.922 1221.06,300.855C1251.72,293.695 1284.78,299.922 1311.69,317.918C1322.73,325.309 1339.63,342.488 1344.62,351.402C1345.23,352.484 1349.11,350.781 1372.6,339.121C1406.87,322.113 1414.34,318.848 1438.39,310.332C1448.7,306.684 1454.07,305.098 1471.79,300.449C1488.53,296.062 1494.79,295.316 1515.83,295.191C1533.04,295.09 1535.42,295.238 1542.8,296.883C1552.06,298.945 1563.22,302.91 1570.61,306.754L1575.69,309.402L1581.51,307.449C1590.01,304.598 1604,303.324 1611.88,304.688C1619.36,305.984 1621.08,306.008 1628.37,304.891C1640.84,302.977 1658.61,306.047 1667.82,311.703C1669.84,312.941 1671.83,313.957 1672.24,313.957C1672.66,313.957 1678.63,310.715 1685.52,306.75C1702.81,296.805 1716.69,289.562 1721.91,287.77C1729.2,285.262 1738.14,284.336 1745.14,285.363C1752.48,286.441 1761.21,289.07 1767.18,291.992L1771.59,294.152L1796.07,277.98C1824.96,258.902 1833.13,253.883 1844.68,248.121C1858.81,241.066 1867.21,239.781 1874.71,243.52C1881.89,247.094 1885.66,253.828 1885.66,263.039C1885.66,269.91 1884.04,275.766 1879.48,285.312C1871.86,301.289 1859.02,318.891 1838.08,342.078C1798.15,386.297 1738.2,439.473 1651.05,507.98C1629.51,524.914 1574.93,565.531 1551.27,582.234C1548.49,584.195 1537.52,594.785 1526.62,606.023C1500.21,633.242 1471.73,661.156 1446.87,684.168C1440.94,689.66 1432.44,697.641 1427.99,701.898C1417.46,711.98 1387.18,739.633 1366.41,758.145C1332.82,788.062 1326.33,793.824 1314.76,803.988C1308.24,809.707 1300.98,816.125 1298.61,818.246C1296.25,820.363 1290.69,825.219 1286.26,829.031C1273.56,839.969 1249.44,860.621 1242.79,866.262C1239.45,869.09 1235.09,872.793 1233.1,874.488C1231.11,876.184 1226.59,879.996 1223.07,882.965C1219.55,885.93 1212.64,891.797 1207.72,896.004C1197.31,904.895 1161.34,934.84 1152.99,941.547C1149.85,944.074 1143.41,949.266 1138.68,953.078C1074.3,1004.99 1063.26,1013.75 1047.48,1025.48C1014.77,1049.78 1016.11,1048.64 1012.68,1055.01C1002.77,1073.39 977.5,1105.75 936.539,1152.52C925.789,1164.8 917.984,1174.07 919.195,1173.14C923.496,1169.81 929.141,1166.35 931.719,1165.47C934.973,1164.36 941.023,1164.31 943.82,1165.38C946.25,1166.3 940.391,1171.81 1006.92,1106.06C1048.58,1064.88 1061.47,1052.69 1134.4,985.5C1141.8,978.688 1155.5,965.996 1164.84,957.297C1199.53,924.996 1219.02,907.637 1305.87,831.66C1324.94,814.977 1347.83,794.906 1356.74,787.055C1378.62,767.766 1415.04,736.75 1460.34,698.816C1468.95,691.613 1485.56,677.645 1497.26,667.773C1539.62,632.035 1561.88,613.695 1593.65,588.363C1676.04,522.66 1695.21,507.824 1735.03,478.934C1743.51,472.785 1756.16,463.562 1763.16,458.434C1791.68,437.52 1848.5,399.09 1871.41,385.211C1893.61,371.762 1915.73,360.098 1928.37,355.172C1942.64,349.609 1957.98,347.785 1964.64,350.855C1972.04,354.273 1974.61,361.211 1971.12,368.406C1969.98,370.773 1966.52,374.309 1958.99,380.785C1941.04,396.234 1926.14,409.758 1904.93,429.84C1874.51,458.633 1797.8,535.797 1769.7,565.859L1764.31,571.633L1770.78,565.879C1819.12,522.906 1884.04,470.02 1917,446.773C1931.69,436.414 1949.9,425.5 1957.09,422.746C1970.47,417.625 1984.56,416.242 1995.05,419.02C2010.23,423.039 2023.47,433.832 2030.14,447.648C2033.67,454.934 2035.08,461.266 2035.65,472.336C2036.38,486.531 2033.82,495.676 2025.81,507.473L2022.56,512.258L2022.43,524.637C2022.29,538.406 2021.33,542.695 2016.08,553.195C2010.86,563.633 1995.03,586.375 1978.27,607.512L1973.68,613.293L1975.19,616.258C1976.41,618.68 1977,619.137 1978.37,618.766C1983.77,617.301 1990.68,616.609 1995.9,617.012C2003.38,617.586 2016.89,621.891 2023.48,625.793C2032.47,631.125 2040.43,640.516 2044.66,650.812C2045.59,653.059 2047.24,655.848 2048.34,657.008C2049.94,658.711 2050.43,660.184 2050.83,664.574C2051.28,669.367 2051.1,670.598 2049.36,674.789C2048.26,677.41 2046.74,681.297 2045.98,683.422C2043.98,688.988 2040.77,695.152 2037.55,699.586C2033.36,705.367 2018.34,722.684 2005.48,736.57C1995.06,747.816 1988.28,755.605 1956.46,792.859C1946.75,804.23 1937.32,814.875 1904.62,851.355C1897.8,858.977 1883.52,874.41 1872.88,885.652L1853.56,906.09L1858.24,911.664C1860.82,914.727 1864.67,920.008 1866.79,923.398C1869.94,928.441 1870.93,929.492 1872.24,929.203C1873.12,929.004 1878.84,926.449 1884.95,923.516C1925.4,904.125 1940.79,898.113 1961.94,893.449C1977.52,890.016 1984.73,889.266 1997.77,889.723C2026.83,890.738 2054.08,902.012 2074.97,921.664L2080.52,926.883L2085.61,960.781C2092.38,1005.93 2094.72,1020.25 2098.3,1038.6C2102.82,1061.67 2105.25,1074.82 2105.25,1076.12C2105.25,1076.75 2103.37,1080.28 2101.06,1083.95L2096.87,1090.62L2098.35,1093.97C2102.85,1104.13 2103.3,1117.66 2099.52,1128.75C2096.84,1136.6 2092.42,1145.38 2087.38,1152.89C2079.33,1164.88 2059.06,1190.13 2041.76,1209.71C2039.71,1212.04 2037.54,1215.65 2036.43,1218.62C2033.98,1225.13 2031.84,1229.28 2027.63,1235.66L2024.2,1240.87L2026.01,1242.38C2027,1243.21 2028.08,1243.9 2028.4,1243.91C2028.72,1243.93 2032.02,1241.75 2035.72,1239.07C2059.31,1222.03 2072.97,1214.66 2080.97,1214.66C2095.33,1214.66 2104.97,1230.21 2098.45,1242.88C2096.17,1247.31 2069.17,1278.28 2044.97,1304.22C2035.27,1314.62 2035.12,1314.85 2036.3,1316.65C2039.8,1321.98 2039.27,1326.56 2034.31,1333.98C2027.12,1344.75 1981.23,1395.82 1926.91,1453.51C1917.53,1463.47 1901.4,1480.63 1891.06,1491.65C1850.21,1535.19 1758.11,1630.64 1738.86,1649.38C1738.55,1649.69 1739,1651.59 1739.86,1653.62C1742.07,1658.78 1744.69,1671.52 1744.88,1678.03L1745.05,1683.5L1754.09,1674.47C1765.39,1663.18 1770.33,1660.47 1776.51,1662.18L1779.18,1662.91L1798.37,1638.92C1808.92,1625.73 1822.19,1609.04 1827.86,1601.83C1854.04,1568.55 1854.28,1568.31 1861.62,1568.31C1864.26,1568.31 1866.19,1568.84 1868.02,1570.06C1870.96,1572 1874.11,1577.56 1874.11,1580.79C1874.11,1582.79 1874.23,1582.87 1876.23,1582.09C1882.49,1579.66 1892.78,1582.09 1898.87,1587.43C1902.37,1590.51 1906.11,1597.54 1907.59,1603.83C1909.98,1613.94 1908.57,1631.22 1903.93,1648.83C1901.51,1658 1892.7,1681.95 1887.5,1693.49C1885.22,1698.56 1883.35,1702.98 1883.35,1703.3C1883.35,1703.62 1884.72,1704.59 1886.39,1705.44C1890.62,1707.59 1894.54,1711.86 1896.97,1716.94C1898.72,1720.59 1899.08,1722.56 1899.38,1729.79C1899.67,1737.22 1899.44,1739.41 1897.62,1746.74C1891.85,1769.91 1873.14,1806.07 1842.69,1852.91C1834.59,1865.38 1832.49,1869.12 1833.34,1869.6C1843.54,1875.38 1849.43,1886.23 1848.39,1897.38C1847.89,1902.74 1844.84,1913.06 1841.57,1920.43C1839.77,1924.48 1830,1942.29 1827.44,1946.21C1826.24,1948.04 1826.28,1948.11 1829.55,1949.77C1835.19,1952.65 1842.52,1960.79 1846.2,1968.25C1847.99,1971.89 1849.45,1975.4 1849.45,1976.06C1849.45,1977.07 1850.45,1977.19 1856.19,1976.87C1873.91,1975.86 1888.18,1985.52 1893.9,2002.39C1896.89,2011.21 1897.41,2016.82 1896.04,2025.22C1895.37,2029.24 1894.81,2032.88 1894.78,2033.31C1894.75,2033.73 1896.32,2036.82 1898.26,2040.17C1900.2,2043.53 1902.84,2049.16 1904.11,2052.69L1906.44,2059.12L1906.84,2089.36C1907.53,2140.48 1909.17,2214.59 1909.99,2231.32L1910.41,2239.79L1905.28,2246.73C1902.32,2250.72 1893.91,2259.78 1885.44,2268.1C1877.36,2276.03 1870.89,2282.66 1871.07,2282.83C1871.26,2283 1872.8,2283.84 1874.49,2284.71C1884.32,2289.71 1896.91,2301.04 1903.96,2311.24C1908.12,2317.27 1913.76,2327.92 1914.5,2331.15C1914.73,2332.18 1915.8,2343.77 1916.88,2356.91C1918.97,2382.55 1921.19,2404.92 1922.98,2418.55L1924.1,2427.02L1920.67,2432.53C1918.78,2435.57 1915.76,2439.73 1913.96,2441.78C1912.16,2443.84 1909,2447.53 1906.94,2449.98C1901.4,2456.6 1887.36,2468.27 1877.42,2474.52C1867.09,2481.01 1870.92,2480.27 1832.09,2483.28C1812.61,2484.8 1793.9,2486.23 1790.51,2486.48L1784.34,2486.91L1777.27,2483.28C1770.33,2479.72 1770.13,2479.67 1766.48,2480.54C1760.76,2481.91 1735.91,2482.47 1728.37,2481.4C1715.28,2479.54 1702.03,2474.57 1690.95,2467.36L1686.16,2464.25L1683.63,2466.01C1682.24,2466.98 1674.34,2472.62 1666.07,2478.55C1648.71,2491 1646.79,2492.38 1641.86,2495.87L1638.21,2498.46L1606.49,2501.04C1564.85,2504.43 1449.48,2514.45 1407.57,2518.31C1389.35,2519.98 1371.84,2521.57 1368.66,2521.84L1362.89,2522.32L1359.02,2516.57L1355.15,2510.82L1346.31,2515.71C1341.44,2518.4 1335.65,2521.69 1333.44,2523.01L1329.42,2525.42L1276.42,2530.28C1247.28,2532.95 1221,2535.35 1218.04,2535.61C1212.97,2536.05 1212.29,2535.91 1206.9,2533.34ZM1683.67,1617.97C1683.82,1617.85 1683.11,1616.53 1682.09,1615.04L1680.25,1612.33L1678.32,1614.79C1675.03,1618.95 1675.04,1618.97 1679.39,1618.57C1681.6,1618.36 1683.53,1618.09 1683.67,1617.97L1683.67,1617.97ZM834.91,1074.45C840.734,1069.18 845.504,1064.66 845.504,1064.4C845.504,1064.14 844.48,1062.95 843.23,1061.75C841.977,1060.56 839.145,1057.04 836.934,1053.95L832.918,1048.34L826.598,1059.3C821.41,1068.3 794.977,1111.14 792.07,1115.27C791.621,1115.9 798.695,1109.13 807.785,1100.23C816.875,1091.32 829.082,1079.72 834.91,1074.45ZM1653.41,693.203C1653.86,692.902 1656.74,688.84 1659.8,684.176C1663.08,679.195 1664.33,676.848 1662.84,678.484C1661.44,680.016 1656.66,685.188 1652.21,689.973L1644.12,698.676L1648.35,696.215C1650.68,694.863 1652.96,693.508 1653.41,693.203ZM789.039,2036.63C776.012,2018.27 767.781,2000.89 762.676,1980.96C758.668,1965.31 757.484,1955.9 757.484,1939.69C757.484,1923.48 758.668,1914.05 762.668,1898.47C765.027,1889.27 768.289,1879.67 768.43,1881.52C768.465,1881.94 773.984,1918 780.707,1961.65C787.43,2005.3 792.832,2041.12 792.711,2041.25C792.59,2041.39 790.938,2039.31 789.039,2036.63ZM700.418,1449.83C698.457,1447.66 696.797,1443.06 696.797,1439.78C696.797,1436.56 698.133,1431.94 699.062,1431.94C699.664,1431.94 702.496,1450.38 701.973,1450.91C701.805,1451.07 701.105,1450.59 700.418,1449.83ZM655.488,1252.5C645.27,1249.87 638.398,1241.75 637.125,1230.8C636.301,1223.71 640.328,1208.07 646.34,1195.01C655.191,1175.79 657.141,1171.69 658.367,1169.65L659.723,1167.41L660.129,1169.27C660.836,1172.48 672.145,1247.73 672.145,1249.21C672.145,1251.71 660.992,1253.91 655.488,1252.5Z" style="fill:rgb(253,35,70);fill-rule:nonzero;"/>
        <path d="M2637.82,3561.73C2591.03,3559.17 2566.02,3556.87 2537.46,3552.48C2481.34,3543.87 2449.61,3537.35 2398.68,3523.95C2354.4,3512.3 2310.93,3497.21 2286.09,3484.87C2273.41,3478.57 2260.22,3468.59 2257.42,3463.19C2254.22,3457.01 2255,3451.57 2259.47,3449.03C2261.16,3448.07 2261.81,3447.13 2261.81,3445.64C2261.81,3444.51 2260.61,3429.08 2259.13,3411.36C2256.43,3378.97 2250.07,3294.4 2247.2,3252.77C2240.1,3149.91 2233.66,2997.8 2233.83,2936.87C2233.89,2914.08 2234.06,2910.72 2235.49,2904.51L2237.08,2897.58L2229.13,2890.09C2220.29,2881.77 2195.1,2855.12 2179.57,2837.67C2153.82,2808.73 2111.74,2756.75 2075.36,2708.91C2070.91,2703.06 2061.4,2690.59 2054.23,2681.19C1983.11,2588.05 1970.53,2569.55 1955.19,2535.59C1950.01,2524.12 1941.33,2499.72 1940.11,2493.2C1939.81,2491.57 1939.12,2490.08 1938.59,2489.88C1938.06,2489.67 1929.54,2491.11 1919.66,2493.06C1909.78,2495.02 1890.93,2498.35 1877.77,2500.46C1804.97,2512.13 1728.93,2521.25 1596.11,2534.27C1570.71,2536.75 1463.52,2546.31 1432,2548.9C1308.66,2559.02 1190.59,2567.29 1096.07,2572.42C1068.73,2573.9 1036.49,2575.65 1024.41,2576.3C974.582,2578.99 961.617,2579.43 951.984,2578.76C944.09,2578.21 920.312,2578.38 883.957,2579.23L878.727,2579.36L876.422,2572.81C875.156,2569.21 873.914,2565.66 873.668,2564.91C873.332,2563.91 873.633,2563.57 874.848,2563.57C875.742,2563.57 876.477,2563.18 876.477,2562.72C876.477,2561.79 867.199,2501.73 856.375,2432.58C849.172,2386.55 841.578,2337.87 838.285,2316.62C837.238,2309.84 831.863,2275.34 826.348,2239.96C802.32,2085.82 797.305,2053.48 785.949,1979.54C779.344,1936.52 765.473,1846.2 755.125,1778.82C736.359,1656.62 729.945,1614.82 718.91,1542.67C715.699,1521.69 710.82,1489.79 708.062,1471.78C699.977,1419 686.621,1330 679.613,1282.24C676.039,1257.88 670.488,1220.78 667.281,1199.8C648.758,1078.7 632.57,966.41 614.184,831.504C595.746,696.219 577.359,547.043 569.84,471.688C565.418,427.379 563.816,391.438 566.012,385.672C568.512,379.09 573.707,379.172 575.965,385.828C576.383,387.07 577.793,396.41 579.09,406.582C583,437.234 591.48,495.449 604.508,581.098C608.352,606.359 617.711,669.852 628.363,742.898C631.297,763.027 638.449,813.043 644.258,854.043C651.371,904.281 655.109,928.586 655.715,928.586C656.309,928.586 656.941,932.18 657.59,939.18C660.078,966.234 661.48,976.719 680.062,1107.34C688.805,1168.8 705.98,1278.34 725.82,1399.16C737.961,1473.1 782.766,1749.64 793.574,1817.35C801.301,1865.75 810.699,1924.67 826.012,2020.75C853.34,2192.22 887.199,2411.93 903.699,2524.84C906.375,2543.16 908.738,2558.33 908.945,2558.53C909.156,2558.75 915.543,2558.07 923.145,2557.04C975.832,2549.9 1057.77,2541.17 1172.73,2530.44C1199.85,2527.9 1231.4,2524.95 1242.84,2523.88C1273.5,2521.01 1294.17,2519.12 1318.35,2516.98C1330.22,2515.93 1360.73,2513.15 1386.16,2510.81C1508.21,2499.57 1635.31,2488.91 1772.17,2478.41C1786.16,2477.34 1819.79,2474.74 1846.91,2472.64C1885.65,2469.63 1929.25,2466.51 1932.89,2466.48C1933.14,2466.48 1932.71,2463.28 1931.94,2459.36C1929.06,2444.66 1923.54,2406.89 1921.67,2389.05C1913.86,2314.57 1910.29,2238.18 1908.08,2097.8C1907.23,2044.28 1907.61,1789.93 1908.58,1756.09C1908.79,1748.68 1909.48,1719.9 1910.11,1692.14C1911.58,1626.97 1912.68,1584.02 1913.08,1575.84C1913.4,1569.48 1913.36,1569.29 1911.17,1567.25C1909.94,1566.1 1908.93,1564.39 1908.93,1563.44C1908.93,1562.5 1910.3,1558.53 1911.98,1554.61C1913.65,1550.69 1915.24,1546.59 1915.52,1545.5C1915.79,1544.4 1916.52,1543.08 1917.14,1542.57C1917.76,1542.06 1919.68,1539.18 1921.42,1536.18C1931.22,1519.28 1948.72,1495 1960.84,1481.5C1968.48,1473 1983.83,1459.76 1991.15,1455.37C1999.37,1450.44 2012.96,1445.07 2019.97,1443.98C2030.84,1442.29 2047.31,1444.98 2057.75,1450.17C2069.41,1455.95 2086.1,1469.86 2096.15,1482.17C2105.04,1493.06 2117.98,1512.03 2127.16,1527.64C2137.32,1544.91 2158.75,1588.03 2169.76,1613.36C2173.49,1621.95 2176.62,1628.88 2176.71,1628.77C2176.8,1628.66 2175.21,1619.22 2173.18,1607.77C2160.02,1533.77 2145.26,1424.18 2132.39,1304.97C2131.93,1300.73 2130.86,1290.85 2130.02,1283.01C2128.11,1265.21 2113.86,1128.62 2110.77,1098.48C2109.3,1084.17 2107.38,1070.46 2105.42,1060.34C2103.73,1051.65 2100.98,1037.44 2099.29,1028.75C2091.66,989.344 2082.41,926.805 2072.7,848.84C2064.86,785.918 2063.11,770.293 2056.9,707.457C2049.16,629.082 2048.5,621.125 2043.01,540.262C2042.16,527.758 2041.12,512.504 2040.69,506.359C2039.88,494.391 2038.32,460.746 2036.4,413.516C2035.74,397.41 2035.01,359.445 2034.77,329.145C2034.02,234.074 2036.32,209.719 2046.08,209.719C2053.94,209.719 2056.44,225.074 2069.2,351.488C2077.38,432.461 2082.6,485.73 2085.74,520.008C2087.62,540.68 2090.73,574.586 2092.64,595.352C2094.55,616.113 2096.99,644.199 2098.06,657.758C2101.95,706.941 2107.89,777.961 2108.15,778.238C2108.29,778.391 2109.73,777.434 2111.34,776.102L2114.27,773.688L2115.22,779.289C2122.53,822.199 2133.33,915.734 2144.05,1029C2145.45,1043.75 2146.72,1055.46 2146.86,1055.03C2147.23,1053.93 2164.72,1038.32 2175.91,1029.13C2205.54,1004.75 2236.08,985.512 2264.9,973.051C2278.12,967.34 2291.45,963.824 2308.09,961.672C2320.74,960.035 2345.25,963.355 2359.77,968.672C2381.29,976.551 2409.7,993.168 2434.02,1012.11C2462.63,1034.38 2483.49,1053.07 2514.45,1084.2C2571.6,1141.65 2630.88,1210.79 2703.71,1304.97C2771.29,1392.35 2835.43,1482.01 2910.12,1593.5C2954.5,1659.73 3008.92,1746.58 3040.97,1802.32C3058.46,1832.73 3092.36,1894.02 3103.41,1915.2C3132.58,1971.14 3168.58,2048.9 3179.53,2079.63C3185.48,2096.34 3192.47,2118.24 3193.38,2123.04C3194.12,2126.98 3194.35,2127.34 3195.38,2126.31C3196.94,2124.75 3198.97,2124.86 3201.15,2126.63C3202.95,2128.09 3202.97,2128.27 3203.24,2146.08C3203.68,2175.12 3201.4,2205.78 3194.45,2264.41C3184.2,2350.8 3166.73,2448.9 3144.32,2545.84C3130.66,2604.94 3124.24,2630.22 3109.23,2684.14C3081.66,2783.21 3047.65,2880.09 3020.57,2936.7L3016.6,2945.01L3017.55,2951.63C3018.86,2960.69 3022.97,2983.77 3028.43,3012.76C3036.8,3057.18 3049.13,3123.62 3056.53,3164.16C3060.55,3186.2 3065.56,3213.59 3067.66,3225.03C3069.77,3236.47 3074.13,3260.22 3077.36,3277.81C3080.6,3295.39 3088.6,3338.42 3095.14,3373.43C3101.69,3408.43 3107.03,3437.56 3107.03,3438.15C3107,3439.3 3078.28,3455.41 3077.97,3454.44C3077.65,3453.45 3063.57,3372.79 3054.26,3318.64C3031.23,3184.73 3008.07,3036 3002.66,2987.33C3001.98,2981.19 3001.24,2975.34 3001.02,2974.32L3000.64,2972.48L2998.52,2974.52C2996.23,2976.7 2994.57,2977.02 2992.15,2975.73C2988.28,2973.66 2988.85,2968.96 2995.3,2949.64C2998.18,2941 2998.28,2940.3 2998.64,2927.62C2998.94,2916.8 2999.3,2913.7 3000.68,2909.78C3003.02,2903.16 3005.29,2901.41 3009.72,2902.87C3011.32,2903.39 3011.93,2901.79 3024.11,2865.05C3040.73,2814.87 3059.77,2753.13 3072.65,2707.64C3103.91,2597.27 3122.93,2521.02 3146.74,2410.62C3155.62,2369.46 3168.53,2302.27 3173.69,2270.39C3174.78,2263.61 3177.04,2249.75 3178.69,2239.57C3183.22,2211.79 3190.26,2160.46 3190.26,2155.29C3190.26,2153.61 3189.75,2152.86 3188.14,2152.17C3186.97,2151.66 3184.43,2149.11 3182.49,2146.49C3175.92,2137.6 3157.67,2107.38 3132.85,2064.29C3102.53,2011.64 3072.89,1961.65 3018.19,1870.89C3003.02,1845.73 2957.09,1771.81 2928.61,1726.73C2896.76,1676.32 2824.92,1566.59 2796,1524.18C2731.43,1429.48 2708.13,1396.29 2662.09,1333.48C2620.74,1277.06 2606.97,1259 2572.41,1215.98C2527.91,1160.55 2515.81,1146.47 2474.17,1101.56C2452.97,1078.7 2435.98,1062.43 2409.37,1039.48C2391.41,1024 2372.53,1011.31 2353.89,1002.18C2336.32,993.582 2318.6,990.461 2300.72,992.824C2288.03,994.5 2281.76,996.23 2266.72,1002.2C2245.22,1010.73 2215.33,1026.1 2183.77,1044.86C2173.78,1050.79 2163.5,1056.71 2160.93,1058.01C2154.96,1061.02 2150.11,1061.78 2148.31,1059.98C2147.6,1059.27 2147.02,1059.01 2147.02,1059.4C2147.02,1059.8 2147.88,1069.61 2148.92,1081.22C2151.88,1113.97 2161.99,1235.31 2165.89,1284.94C2167.82,1309.52 2170.25,1339.34 2171.29,1351.2C2172.33,1363.07 2174.58,1389.42 2176.29,1409.76C2182.39,1482.44 2189.72,1556.96 2196.71,1617.4C2200.91,1653.73 2206.77,1697.51 2208.77,1707.55C2209.23,1709.88 2212.38,1719.24 2215.75,1728.35C2238.13,1788.79 2277.47,1907.85 2317.32,2035.78C2328,2070.06 2337.72,2101.9 2356.95,2165.61C2362.2,2182.98 2369.33,2206.56 2372.8,2218C2393.72,2287 2395.18,2293.45 2390.77,2296.92C2389.65,2297.8 2388.04,2298.52 2387.18,2298.52C2379.67,2298.52 2360.37,2259.17 2335.79,2193.73C2318.16,2146.8 2296.18,2079.07 2256.16,1948.33C2197.53,1756.83 2171.3,1681.28 2134.7,1598.53C2128.09,1583.59 2108.03,1544 2101.53,1533.06C2091.54,1516.24 2077.51,1496.68 2069.45,1488.32C2063.61,1482.29 2052.33,1473.49 2047.24,1471.02C2041.88,1468.41 2032.7,1466.39 2026.23,1466.39C2021.32,1466.39 2011.79,1469.25 2004.47,1472.91C1987.5,1481.41 1960.9,1508.81 1934.61,1544.85L1927.72,1554.3L1928.31,1559.08C1930.05,1573.06 1932.9,1610.95 1933.94,1633.97C1936.4,1688.15 1938.24,1792.07 1939.74,1961.04C1940.5,2046.89 1940.66,2059.44 1942.09,2138.25C1943.84,2235.2 1946.52,2296.45 1951.73,2358.61C1954.88,2396.1 1958.94,2427.78 1964.09,2454.97L1966.09,2465.55L1971.22,2466.07C1978.84,2466.84 1981.98,2467.85 1983.38,2469.98C1985.93,2473.88 1983.34,2476.85 1974.62,2479.98C1972.39,2480.77 1970.57,2481.74 1970.57,2482.12C1970.57,2483.38 1975.15,2498.56 1977.97,2506.68C1981.61,2517.11 1990.76,2536.82 1996.8,2547.2C2007.23,2565.12 2021.22,2584.79 2066.78,2645.56C2146.65,2752.11 2169.64,2781.98 2208.57,2829.77C2247.18,2877.17 2275.08,2908.56 2288.02,2919.15C2291,2921.59 2293.62,2924.36 2293.87,2925.33C2295.05,2930.02 2289.78,2932.72 2283.21,2930.78C2277.66,2929.14 2267.82,2923.43 2260.27,2917.46C2256.43,2914.43 2254.14,2913.03 2254.41,2913.89C2255.7,2918.07 2257.51,2927.49 2260.27,2944.36C2263.29,2962.79 2263.33,2963.27 2262.01,2965.83C2259.98,2969.79 2260.26,2990.54 2262.52,3003.52C2264.69,3015.91 2267.3,3026.56 2269.73,3032.82C2271.32,3036.92 2271.88,3040.59 2272.92,3053.6C2273.61,3062.28 2275.38,3084.3 2276.85,3102.52C2281.71,3162.82 2294.3,3345.76 2300.01,3438.84C2300.7,3450.07 2301.34,3459.34 2301.43,3459.44C2301.96,3460 2342.49,3468.8 2361.21,3472.42C2404.41,3480.78 2415.21,3482.74 2447.89,3488.13C2488.35,3494.81 2505.78,3497.32 2539.2,3501.31C2608.38,3509.56 2640.62,3511.62 2700.61,3511.64C2761.8,3511.66 2792.86,3509.55 2847.93,3501.62C2892.41,3495.22 2929.73,3486.72 2963.05,3475.38C2992.07,3465.51 3013.73,3455.16 3036.38,3440.33C3041.52,3436.97 3046.16,3434.22 3046.69,3434.22C3047.23,3434.22 3048.02,3434.88 3048.45,3435.7C3049.12,3436.93 3048.52,3438.04 3044.79,3442.44C3030.15,3459.74 3006.15,3479.67 2987.23,3490.25C2983,3492.61 2976.93,3496.02 2973.75,3497.81C2955.88,3507.89 2944.72,3512.79 2915.97,3523.19C2886.55,3533.83 2878.27,3536.18 2841.61,3544.31C2796.97,3554.2 2774.66,3557.26 2717.18,3561.36C2698.14,3562.71 2659.16,3562.89 2637.82,3561.73ZM1693.19,3089.02C1692.56,3088.6 1690.48,3087.84 1688.57,3087.34L1685.11,3086.42L1690.85,3085.44C1694,3084.91 1696.72,3084.6 1696.88,3084.75C1697.14,3085.02 1694.91,3089.82 1694.52,3089.8C1694.43,3089.8 1693.83,3089.44 1693.19,3089.02ZM2173.68,3012.35C2172.46,3010.01 2169.56,3006.16 2167.23,3003.8C2163.72,3000.23 2163.19,2999.35 2164.07,2998.53C2165.23,2997.46 2171.64,2995.7 2172.5,2996.23C2173.49,2996.84 2175.48,3006.17 2175.73,3011.41C2175.87,3014.27 2175.97,3016.61 2175.95,3016.61C2175.93,3016.61 2174.91,3014.69 2173.68,3012.35ZM909.223,2609.82L906.91,2608.27L910.379,2608.27C913.633,2608.28 916.562,2609.26 915.75,2610.07C914.484,2611.34 911.309,2611.22 909.223,2609.82ZM548.422,355.684C545.875,353.902 546.195,350.742 549.211,347.867C559.531,338.043 604.34,325.641 691.828,308.391C884.273,270.445 1152.9,234.73 1410.81,212.805C1420.98,211.941 1441.27,210.211 1455.89,208.957C1501.18,205.078 1553.24,201.488 1640.03,196.258C1768.1,188.539 1912.37,185.465 1985.6,188.891C2017.45,190.383 2047.32,193.77 2051.32,196.34C2054.58,198.434 2054.98,202.23 2052.22,204.73C2049.53,207.172 2037.95,208.008 1955.93,211.68C1882.06,214.984 1783.55,220.766 1706.29,226.328C1582.97,235.203 1555.23,237.328 1475.15,244.031C1361.98,253.5 1343.44,255.172 1248.24,264.473C1150.98,273.973 1133.99,275.773 1044.44,286.051C853.695,307.941 615.445,341.684 562.992,354.234C550.199,357.297 550.656,357.25 548.422,355.684Z" style="fill-rule:nonzero;"/>
    </g>
</svg>
