<?xml version="1.0" encoding="UTF-8" standalone="no"?><!DOCTYPE svg PUBLIC "-//W3C//DTD SVG 1.1//EN" "http://www.w3.org/Graphics/SVG/1.1/DTD/svg11.dtd"><svg width="100%" height="100%" viewBox="0 0 1959 1442" version="1.1" xmlns="http://www.w3.org/2000/svg" xmlns:xlink="http://www.w3.org/1999/xlink" xml:space="preserve" xmlns:serif="http://www.serif.com/" style="fill-rule:evenodd;clip-rule:evenodd;stroke-linejoin:round;stroke-miterlimit:2;"><g><path d="M347.817,1405.77c299.287,99.762 499.637,-31.304 799.162,-115.275c254.913,-71.463 732.388,-65.23 800.321,-440.167c49.55,-273.45 -115.638,-917.721 -973.25,-826.546c-826.433,87.858 -962.288,564.354 -973.317,792.446c-11.025,228.096 101.621,507.721 347.084,589.542Z" style="fill:#fff;fill-rule:nonzero;"/><path d="M561.033,1441.67c-66.808,-0.005 -136.804,-10.43 -213.216,-35.9c-234.554,-78.184 -347.834,-336.988 -347.817,-558.854c0,-10.317 0.246,-20.551 0.733,-30.688c11.029,-228.092 146.884,-704.588 973.317,-792.446c55.904,-5.946 108.854,-8.762 159.008,-8.762c639.667,-0 822.225,458.554 822.196,739.829c-0.004,34.975 -2.829,67.208 -7.954,95.479c-67.933,374.937 -545.408,368.704 -800.321,440.167c-223.05,62.533 -391.075,151.183 -585.946,151.175Zm-268.254,-714.217c-0.9,0.767 -3.596,2.058 -6.916,3.225c-5.142,1.888 -11.763,3.804 -17.542,6.825c-2.892,1.533 -5.642,3.358 -7.867,5.921c-2.225,2.525 -3.817,6.033 -3.783,9.883c-0,0.396 0.012,0.792 0.046,1.188c0.179,2.487 0.904,4.85 2.071,6.883c2.05,3.592 5.258,6.021 8.704,7.704c5.208,2.529 11.233,3.663 17.304,4.379c6.058,0.692 12.171,0.892 17.254,1.13c3.246,0.137 10.783,1.133 21.417,2.533c32.041,4.212 93.358,12.075 171.437,12.075c4.204,-0 8.463,-0.025 12.763,-0.071c55.462,-0.608 97.058,-6.179 127.991,-11.787c15.463,-2.809 28.259,-5.621 38.729,-7.809c10.459,-2.196 18.621,-3.746 24.546,-4.091c0.821,-0.051 1.638,-0.076 2.446,-0.076l0.034,0c7.641,0 14.749,2.151 21.529,4.517c3.395,1.179 6.7,2.408 9.991,3.379c3.292,0.967 6.596,1.709 10.05,1.717l0.059,0c2.87,0 5.879,-0.583 8.666,-2.033c2.817,-1.455 5.3,-3.721 7.4,-6.655c3.209,-4.429 4.575,-9.495 4.555,-14.366c-0.067,-9.279 -4.338,-17.917 -8.884,-25.675c-2.291,-3.875 -4.708,-7.513 -6.846,-10.779c-2.137,-3.259 -4,-6.171 -5.137,-8.384l-4.625,2.388l4.625,-2.388c-6.779,-13.108 -26.642,-47.187 -60.617,-78.275c-13.529,-12.379 -29.35,-24.291 -47.471,-34.133c2.975,-1.296 4.613,-2.154 4.488,-2.438c-0.021,-0.049 -0.084,-0.07 -0.188,-0.07c-0.583,-0 -2.437,0.712 -5.275,1.979c-11.137,-5.975 -23.141,-11.171 -36.008,-15.217c1.571,-1.8 3.071,-3.521 4.496,-5.137c8.729,-8.338 14.416,-14.067 13.941,-14.521c-0.016,-0.017 -0.041,-0.025 -0.07,-0.025c-0.804,-0 -6.184,5.808 -13.871,14.546c-1.629,1.554 -3.363,3.204 -5.183,4.925c-8.73,-2.713 -17.85,-4.892 -27.371,-6.43c1.966,-5.962 3.816,-11.516 5.466,-16.358c4.775,-10.812 7.755,-18.092 7.146,-18.329c-0.008,-0.004 -0.021,-0.004 -0.029,-0.004c-0.654,-0 -3.367,7.317 -7.117,18.333c-2.112,4.775 -4.571,10.233 -7.229,16.079c-1.9,-0.287 -3.812,-0.554 -5.746,-0.791c-5.796,-0.713 -11.741,-1.192 -17.816,-1.404c-0.5,-6.667 -0.938,-12.917 -1.292,-18.384c0.288,-12.475 0.263,-20.871 -0.421,-20.871l-0.008,0c-0.683,0.013 -0.367,8.409 0.429,20.871c-0.125,5.45 -0.312,11.679 -0.529,18.329c-1.834,-0.05 -3.684,-0.075 -5.55,-0.075l-0.033,0c-5.334,0 -10.767,0.2 -16.305,0.617l0.005,-0c-0.942,0.071 -1.884,0.146 -2.821,0.229c-2.417,-4.8 -4.667,-9.3 -6.634,-13.3c-4.187,-10.829 -7.191,-18.021 -7.854,-18.021c-0.012,0 -0.021,0 -0.033,0.004c-0.596,0.263 2.675,7.413 7.887,18.017c1.563,4.038 3.292,8.579 5.121,13.442c-10.829,1.037 -21.329,2.912 -31.483,5.483c-8,-8.375 -13.588,-13.933 -14.413,-13.933c-0.033,-0 -0.058,0.008 -0.075,0.025c-0.454,0.475 5.442,5.95 14.484,13.908c-12.58,3.179 -24.63,7.417 -36.117,12.434c-0.15,0.066 -0.296,0.141 -0.442,0.22c-6.829,3.005 -13.458,6.292 -19.883,9.796c-40.85,22.308 -73.462,53.579 -96.654,79.842c-11.588,13.129 -20.821,25.021 -27.504,33.908c-3.338,4.442 -6.042,8.138 -8.054,10.821c-1.005,1.337 -1.838,2.429 -2.455,3.192c-0.308,0.383 -0.562,0.683 -0.737,0.875l-0.179,0.191l-0.013,0.013l0,0.004Zm1111.97,37.083c5.225,0.488 10.433,0.963 15.708,1.417c21.154,1.821 43.329,3.242 71.5,3.242c13.375,-0 28.105,-0.321 44.729,-1.067c43.55,-1.958 76.346,-8.417 98.659,-15.129c1.412,-0.425 2.783,-0.85 4.112,-1.275c9.171,-2.938 16.342,-5.871 21.613,-8.492c3.021,-1.508 5.408,-2.904 7.279,-4.237c0.846,-0.613 1.592,-1.204 2.271,-1.859c0.075,-0.07 0.15,-0.146 0.221,-0.216c0.725,-0.763 1.441,-1.513 2.041,-2.992l0.029,-0.079c0.396,-1.188 0.346,-1.721 0.371,-2.263c-0.008,-0.975 -0.121,-1.766 -0.287,-2.762c-0.633,-3.613 -2.225,-9.534 -4.934,-17.446c-1.858,-5.417 -4.237,-11.717 -7.166,-18.642c-8.667,-20.475 -22.163,-46.341 -41.333,-70.575c-12.125,-15.304 -26.525,-29.95 -43.451,-42.075c10.238,-3.979 16.88,-6.787 16.63,-7.35c-0.021,-0.05 -0.084,-0.071 -0.188,-0.071c-1.166,0 -7.471,2.884 -16.558,7.334c-2.338,-1.671 -4.721,-3.292 -7.15,-4.863c-6.675,-4.304 -13.713,-8.208 -21.129,-11.608c2.875,-3.317 5.583,-6.429 8.054,-9.237c8.729,-8.338 14.412,-14.067 13.941,-14.521c-0.016,-0.017 -0.041,-0.025 -0.07,-0.025c-0.805,-0 -6.184,5.808 -13.871,14.546c-2.792,2.666 -5.896,5.6 -9.209,8.712c-7.82,-3.513 -16.054,-6.458 -24.699,-8.721c0.266,-0.817 0.533,-1.616 0.787,-2.391c4.108,-9.096 6.642,-15.238 6.033,-15.476c-0.008,-0.004 -0.021,-0.004 -0.033,-0.004c-0.65,0 -2.912,6.175 -6,15.48c-0.342,0.754 -0.692,1.529 -1.054,2.325c-1.45,-0.38 -2.913,-0.738 -4.383,-1.075c-6.075,-1.392 -12.351,-2.451 -18.825,-3.13c-0.426,-0.046 -0.855,-0.087 -1.28,-0.133c-0.041,-0.588 -0.083,-1.171 -0.125,-1.738c0.334,-10.55 0.334,-17.649 -0.35,-17.649c-0.683,0.012 -0.4,7.112 0.35,17.649c-0.016,0.563 -0.037,1.138 -0.054,1.721c-9.354,-0.946 -18.358,-1.537 -27.046,-1.775c-1.854,-3.7 -3.591,-7.187 -5.15,-10.358c-4.191,-10.829 -7.196,-18.021 -7.854,-18.021c-0.012,0 -0.021,0 -0.033,0.009c-0.596,0.262 2.675,7.408 7.887,18.012c1.225,3.163 2.546,6.633 3.946,10.329c-2.529,-0.062 -5.033,-0.091 -7.508,-0.091l-0.288,-0c-10.229,-0 -20.016,0.52 -29.421,1.554c-4.2,-4.25 -6.945,-6.8 -7.504,-6.8c-0.033,-0 -0.058,0.008 -0.079,0.025c-0.3,0.316 2.225,2.862 6.625,6.883c-35.896,4.096 -66.125,15.717 -93.583,34.413c-6.304,4.287 -12.458,8.937 -18.513,13.941c-1.533,1.267 -3.058,2.558 -4.579,3.867c-25.762,22.242 -49.812,50.996 -75.504,85.887l-0.008,0.009c-1.484,2.066 -4.238,4.408 -7.675,6.754c-0.4,0.271 -0.809,0.546 -1.23,0.816c-6.02,3.971 -13.608,7.905 -20.029,12.617c-3.208,2.375 -6.171,4.963 -8.487,8.104c-2.304,3.117 -3.938,6.975 -3.925,11.263c-0,1.775 0.275,3.591 0.816,5.392c0.875,2.937 2.205,5.512 3.963,7.616c0.521,0.629 1.071,1.204 1.65,1.738c0.004,0.004 0.008,0.008 0.013,0.012c0.016,0.013 0.033,0.029 0.049,0.046c2.363,2.146 5.175,3.542 8.013,4.35c3.575,1.025 7.258,1.271 10.975,1.275c6.054,-0.008 12.3,-0.687 18.125,-0.687c0.038,-0 0.079,-0 0.117,0.004l0.033,-0c3.246,-0 6.342,0.204 9.15,0.771l0.012,0.004c2.021,0.404 4.121,0.821 6.334,1.241c18.446,3.563 44.579,7.729 98.646,11.271c18.241,1.2 34.137,2.738 49.883,4.204Z" style="fill:#fbd2cf;fill-rule:nonzero;"/><path d="M1224.55,580.979c-13.208,11.033 -36.225,34.234 -57.029,60.671c-10.392,13.213 -20.204,27.208 -27.892,40.921c-7.671,13.725 -13.275,27.125 -15.029,39.508c-1.996,14.284 -3.263,37.104 -3.267,63.888c0.004,30.466 1.658,65.962 5.892,99.283c4.262,33.333 10.996,64.421 21.621,86.496c15.012,31.1 36.579,58.104 56.5,81.125c9.962,11.504 19.516,22.012 27.633,31.471c8.117,9.45 14.783,17.887 18.933,24.995c5.259,9.001 7.121,17.4 7.134,25.134c0.012,11.221 -4.084,21.146 -8.284,28.271c-2.091,3.558 -4.191,6.396 -5.745,8.316c-0.78,0.963 -1.417,1.696 -1.85,2.171l-0.488,0.525l-0.108,0.113l-0.017,0.021l1.287,1.262l-1.279,-1.271l-0.008,0.009l1.287,1.262l-1.279,-1.271c-2.029,2.038 -2.02,5.338 0.017,7.367c2.038,2.029 5.337,2.021 7.367,-0.021c0.208,-0.212 4.979,-5.021 9.796,-13.2c4.8,-8.167 9.708,-19.783 9.72,-33.554c0.009,-9.45 -2.379,-19.858 -8.558,-30.396c-4.771,-8.133 -11.758,-16.875 -20.021,-26.517c-24.771,-28.825 -61.166,-65.746 -82.658,-110.337c-9.767,-20.171 -16.525,-50.567 -20.667,-83.288c-4.162,-32.737 -5.808,-67.879 -5.808,-97.966c-0.004,-26.417 1.279,-49.017 3.166,-62.442c1.421,-10.312 6.476,-22.825 13.801,-35.862c10.97,-19.584 26.92,-40.421 42.479,-58.246c15.546,-17.821 30.766,-32.721 40.029,-40.438c2.208,-1.846 2.504,-5.129 0.662,-7.337c-1.841,-2.209 -5.125,-2.509 -7.337,-0.663Z" style="fill:#0c2b34;fill-rule:nonzero;"/><path d="M967.825,1000.24c-3.083,7.071 -8.229,15.013 -14.533,23.188c-9.455,12.271 -21.48,25.087 -32.909,37.017c-11.445,11.954 -22.271,22.966 -29.558,32.062c-14.925,18.633 -21.479,39.125 -21.471,57.946c0.009,20.121 7.434,38.387 20.104,50.571c2.075,1.991 5.375,1.925 7.367,-0.15c1.992,-2.075 1.925,-5.371 -0.15,-7.363c-10.371,-9.933 -16.912,-25.496 -16.904,-43.058c0.008,-16.421 5.671,-34.537 19.187,-51.437c8.963,-11.217 25.059,-26.955 40.571,-43.655c7.767,-8.366 15.404,-17 22.017,-25.575c6.604,-8.583 12.196,-17.083 15.825,-25.375c1.15,-2.633 -0.054,-5.704 -2.688,-6.858c-2.637,-1.15 -5.708,0.054 -6.858,2.687Z" style="fill:#0c2b34;fill-rule:nonzero;"/><path d="M1156.16,1034.06c6.674,18.53 9.12,34.254 9.12,47.371c0,14.296 -2.9,25.517 -6.516,33.933c-1.704,3.971 -4.904,10.017 -8.7,16.851c-5.696,10.279 -12.763,22.445 -18.517,33.279c-2.883,5.42 -5.438,10.508 -7.363,14.954c-0.962,2.225 -1.77,4.287 -2.383,6.204c-0.608,1.929 -1.041,3.679 -1.171,5.521c-0.187,2.871 1.992,5.346 4.863,5.533c2.871,0.184 5.346,-1.991 5.533,-4.862c0.017,-0.625 0.417,-2.388 1.234,-4.58c1.416,-3.887 3.983,-9.287 7.112,-15.275c4.692,-9.004 10.65,-19.42 16.054,-29.024c5.417,-9.63 10.254,-18.346 12.904,-24.484c4.155,-9.654 7.371,-22.333 7.367,-38.05c0.004,-14.421 -2.696,-31.371 -9.742,-50.904c-0.975,-2.704 -3.958,-4.108 -6.666,-3.129c-2.705,0.975 -4.109,3.958 -3.129,6.662Z" style="fill:#0c2b34;fill-rule:nonzero;"/><path d="M1038.24,1126.67c-33.667,4.054 -58.421,12.637 -75.059,22.47c-8.321,4.925 -14.625,10.159 -19.004,15.463c-4.337,5.304 -6.904,10.754 -6.942,16.329c0,1.429 0.184,2.859 0.567,4.233c0.733,2.63 2.058,4.942 3.692,6.851c2.875,3.35 6.575,5.55 10.362,7.166c5.7,2.404 11.763,3.513 16.492,4.104c4.721,0.579 8.096,0.6 8.237,0.604c2.875,0.017 5.221,-2.299 5.238,-5.179c0.017,-2.875 -2.3,-5.22 -5.179,-5.237l-0.042,-0c-0.642,-0 -7.788,-0.175 -14.808,-1.954c-3.505,-0.875 -6.95,-2.167 -9.446,-3.784c-1.25,-0.804 -2.259,-1.675 -3,-2.562c-0.738,-0.896 -1.221,-1.792 -1.513,-2.817c-0.116,-0.412 -0.183,-0.879 -0.183,-1.425c-0.037,-2.087 1.171,-5.612 4.571,-9.708c5.037,-6.15 14.654,-13.363 29.116,-19.617c14.459,-6.275 33.751,-11.662 58.146,-14.591c2.854,-0.346 4.892,-2.938 4.546,-5.796c-0.341,-2.855 -2.933,-4.892 -5.791,-4.55Z" style="fill:#0c2b34;fill-rule:nonzero;"/><path d="M976.621,1193.49l-0.108,-0c-0.63,-0.009 -3.796,-0.092 -7.842,-0.625l0.037,0.008c-4.246,-0.583 -9.466,-1.721 -13.533,-3.6c-2.033,-0.929 -3.758,-2.033 -4.983,-3.204c-1.229,-1.179 -1.971,-2.35 -2.359,-3.717c-0.116,-0.416 -0.187,-0.887 -0.187,-1.437c-0.017,-1.721 0.758,-4.384 2.95,-7.563c3.246,-4.762 9.521,-10.492 19.017,-15.916c9.495,-5.442 22.191,-10.634 38.224,-14.667c0.421,-0.109 0.788,-0.25 1.171,-0.454l0.092,-0.046l-2.442,-4.6l1.263,5.05c9.4,-2.346 19.892,-4.313 31.579,-5.704c2.854,-0.338 4.896,-2.93 4.554,-5.788c-0.342,-2.854 -2.933,-4.896 -5.787,-4.554c-12.104,1.442 -23.03,3.483 -32.871,5.942c-0.425,0.104 -0.796,0.25 -1.183,0.454l-0.092,0.046l2.446,4.6l-1.275,-5.05c-22.425,5.658 -39.046,13.516 -50.325,21.891c-5.638,4.196 -9.955,8.521 -12.963,12.909c-2.991,4.379 -4.758,8.883 -4.775,13.45c0,1.437 0.188,2.866 0.575,4.25c0.95,3.412 2.892,6.262 5.213,8.458c3.504,3.3 7.791,5.337 12.054,6.792c4.271,1.441 8.571,2.266 12.2,2.775l0.041,0.004c5.255,0.691 9.105,0.712 9.255,0.712c2.875,0.017 5.22,-2.304 5.233,-5.179c0.017,-2.879 -2.304,-5.221 -5.179,-5.237Z" style="fill:#0c2b34;fill-rule:nonzero;"/><path d="M1164.71,1121.45c18.383,1.967 56.112,34.383 46.337,52.533c-5.325,9.892 -62.45,6.054 -72.917,-9.733l26.58,-42.8Z" style="fill:#0c2b34;fill-rule:nonzero;"/><path d="M975.204,1193.63l-11.871,4.496c-9.087,-1.271 -17.833,-4.8 -20.516,-14.371c-3.442,-12.275 20.866,-30.858 68.133,-42.762c-23.275,9.771 -53.117,36.212 -35.746,52.637Z" style="fill:#0c2b34;fill-rule:nonzero;"/><path d="M293.563,733.092c-7.875,5.183 -17.946,10.741 -29.655,14.408c5.571,-7.533 21.667,-10.254 29.655,-14.408Z" style="fill:#fff;fill-rule:nonzero;"/><path d="M293.563,733.092l-2.863,-4.35c-7.6,5.004 -17.262,10.316 -28.35,13.787l1.558,4.971l4.184,3.096c0.754,-1.038 2.216,-2.263 4.258,-3.417c3.046,-1.75 7.254,-3.312 11.492,-4.766c4.254,-1.484 8.504,-2.838 12.125,-4.701l-2.404,-4.62l-2.863,-4.35l2.863,4.35l-2.405,-4.621c-1.571,0.821 -3.904,1.725 -6.546,2.65c-3.975,1.404 -8.658,2.887 -13.087,4.841c-4.412,1.992 -8.729,4.367 -11.804,8.438c-1.338,1.808 -1.363,4.287 -0.058,6.121c1.304,1.829 3.654,2.621 5.799,1.95c12.33,-3.867 22.813,-9.667 30.963,-15.029c2.312,-1.521 3.029,-4.6 1.629,-6.988c-1.4,-2.383 -4.441,-3.258 -6.896,-1.983l2.405,4.621Z" style="fill:#0c2b34;fill-rule:nonzero;"/><path d="M369.613,498.975l0.104,0.512l-0.104,-0.512Z" style="fill:#0c2b34;fill-rule:nonzero;"/><path d="M166.308,532.279c12.267,14.971 49.563,-52.529 121.317,-89.383c71.758,-36.85 160.633,-40.425 242.142,-51.271c99.116,-13.192 184.741,-24.846 203.708,-38.762c18.971,-13.917 25.987,-77.805 27.708,-95.534c1.721,-17.725 -13.566,10.946 -14.537,14.35c-0,0 -4.854,-8.487 -17.954,-12.904c-13.1,-4.413 -56.196,-8.45 -116.78,2.129c-111.404,19.45 -196.054,43.071 -248.837,71.175c-79.275,42.209 -131.258,101.954 -151.954,126.954c-21.813,26.35 -50.683,66.079 -44.813,73.246Z" style="fill:#0c2b34;fill-rule:nonzero;"/><path d="M704.308,360.196c12.963,-1.788 23.471,-3.917 32.309,-7.246c6.62,-2.496 12.308,-5.712 17.125,-9.95c7.25,-6.363 12.3,-14.854 16.187,-25.8c3.904,-10.975 6.783,-24.537 9.746,-41.833c0.487,-2.834 -1.417,-5.525 -4.254,-6.013c-2.833,-0.483 -5.525,1.421 -6.013,4.258c-2.595,15.175 -5.116,27.213 -8.137,36.667c-2.263,7.092 -4.792,12.713 -7.763,17.2c-4.479,6.721 -9.825,11.1 -17.812,14.609c-7.971,3.474 -18.629,5.845 -32.804,7.787c-2.85,0.392 -4.842,3.021 -4.45,5.871c0.391,2.85 3.016,4.841 5.866,4.45Z" style="fill:#0c2b34;fill-rule:nonzero;"/><path d="M1299.85,251.433c19.25,30.43 63.392,82.304 97.229,95.663c33.838,13.358 228.621,-3.896 284.604,23.841c55.988,27.734 86.321,98.921 94.7,126.85c8.375,27.926 14.188,6.88 10.717,-10.295c-3.475,-17.175 -17.012,-106.654 -69.608,-159.438c-39.146,-39.283 -132.496,-66.758 -188.767,-70.291c-56.271,-3.534 -165.612,-6.771 -174.967,-6.188c-9.358,0.579 -36.312,-0.808 -45.016,-6.483c-8.7,-5.675 -13.134,-0.367 -8.892,6.341Z" style="fill:#0c2b34;fill-rule:nonzero;"/><path d="M1285.99,272.842c0.037,0.046 9,11.725 21.337,26.166c12.359,14.454 27.992,31.625 41.775,42.888c2.229,1.821 5.513,1.487 7.329,-0.742c1.821,-2.225 1.488,-5.508 -0.741,-7.325c-12.809,-10.437 -28.309,-27.367 -40.442,-41.583c-6.079,-7.117 -11.338,-13.567 -15.071,-18.229c-1.866,-2.334 -3.354,-4.217 -4.371,-5.517c-1.016,-1.3 -1.554,-2 -1.554,-2.004c-1.75,-2.279 -5.021,-2.709 -7.304,-0.958c-2.279,1.749 -2.712,5.02 -0.958,7.304Z" style="fill:#0c2b34;fill-rule:nonzero;"/><path d="M738.171,709.471c6.7,12.979 28.85,36.879 16.708,53.779c-7.587,10.558 -17.508,6.133 -30.225,1.708c-7.637,-2.654 -16.283,-5.312 -26.033,-4.72c-25.988,1.57 -80.717,22.466 -191.008,23.679c-110.296,1.216 -189.696,-13.813 -205.325,-14.534c-15.625,-0.72 -39.309,-1.108 -40.38,-15.283c-1.07,-14.179 26.596,-16.308 34.271,-22.708c7.675,-6.4 91.85,-145.888 224.859,-155.892c133.008,-10.008 203.449,107.479 217.133,133.971Z" style="fill:#fff;fill-rule:nonzero;"/><path d="M738.171,709.471l-4.629,2.392c1.512,2.92 3.512,6 5.675,9.308c3.241,4.946 6.85,10.379 9.57,15.758c2.738,5.375 4.484,10.65 4.459,14.992c-0.021,3.075 -0.738,5.666 -2.596,8.287c-1.367,1.892 -2.587,2.884 -3.733,3.484c-1.154,0.591 -2.342,0.858 -3.934,0.866c-1.883,0.009 -4.291,-0.45 -7.1,-1.287c-4.221,-1.238 -9.283,-3.279 -15.037,-5.054c-5.758,-1.771 -12.263,-3.271 -19.467,-3.271c-1.012,-0 -2.037,0.029 -3.075,0.091c-7.071,0.438 -15.491,2.092 -26.05,4.292c-31.587,6.608 -82.425,18.463 -164.7,19.379c-4.262,0.046 -8.483,0.071 -12.65,0.071c-51.596,0 -95.804,-3.462 -128.991,-7.012c-16.596,-1.775 -30.434,-3.571 -41.088,-4.971c-10.7,-1.404 -18.033,-2.408 -22.296,-2.617c-7.858,-0.346 -17.454,-0.671 -24.65,-2.45c-3.591,-0.867 -6.496,-2.112 -8.204,-3.466c-0.863,-0.68 -1.442,-1.351 -1.842,-2.046c-0.396,-0.705 -0.646,-1.454 -0.729,-2.513l-0.017,-0.4c0.009,-0.816 0.167,-1.379 0.521,-2.042c0.596,-1.137 2.109,-2.587 4.504,-3.958c3.563,-2.083 8.755,-3.879 13.763,-5.591c2.512,-0.867 4.983,-1.725 7.279,-2.7c2.3,-0.988 4.429,-2.034 6.359,-3.621c0.662,-0.563 1.066,-1.025 1.558,-1.588c0.916,-1.067 1.971,-2.442 3.3,-4.208c4.937,-6.584 13.525,-18.55 25.592,-33.079c18.079,-21.771 43.916,-49.159 76.254,-71.85c32.35,-22.7 71.108,-40.659 115.212,-43.975c5.279,-0.396 10.454,-0.588 15.525,-0.588c59.754,0.009 105.479,26.513 138.192,56.392c32.671,29.85 52.05,63.058 58.396,75.367l4.629,-2.392l4.625,-2.388c-6.779,-13.108 -26.642,-47.187 -60.617,-78.275c-33.933,-31.05 -82.254,-59.133 -145.225,-59.12c-5.333,-0 -10.766,0.199 -16.304,0.616c-34.121,2.567 -65.046,13.438 -92.275,28.3c-40.85,22.308 -73.462,53.579 -96.654,79.842c-11.588,13.129 -20.821,25.021 -27.504,33.908c-3.338,4.442 -6.042,8.138 -8.054,10.821c-1.005,1.337 -1.838,2.429 -2.455,3.192c-0.308,0.383 -0.562,0.683 -0.737,0.875l-0.179,0.191l-0.013,0.013l1.088,1.175l-1.025,-1.229l-0.063,0.054l1.088,1.175l-1.025,-1.229c-0.829,0.758 -3.575,2.087 -6.979,3.283c-5.142,1.888 -11.763,3.804 -17.542,6.825c-2.892,1.533 -5.642,3.358 -7.867,5.921c-2.225,2.525 -3.817,6.033 -3.783,9.883c-0,0.396 0.012,0.792 0.046,1.188c0.179,2.487 0.904,4.85 2.071,6.883c2.05,3.592 5.258,6.021 8.704,7.704c5.208,2.529 11.233,3.663 17.304,4.379c6.058,0.692 12.171,0.892 17.254,1.13c3.246,0.137 10.783,1.133 21.417,2.533c32.041,4.212 93.358,12.075 171.437,12.075c4.204,-0 8.463,-0.025 12.763,-0.071c55.462,-0.608 97.058,-6.179 127.991,-11.787c15.463,-2.809 28.259,-5.621 38.729,-7.809c10.459,-2.196 18.621,-3.746 24.546,-4.091c0.821,-0.051 1.638,-0.076 2.446,-0.076c7.65,-0.008 14.771,2.146 21.563,4.517c3.395,1.179 6.7,2.408 9.991,3.379c3.292,0.967 6.596,1.709 10.05,1.717c2.888,0.008 5.917,-0.571 8.725,-2.033c2.817,-1.455 5.3,-3.721 7.4,-6.655c3.209,-4.429 4.575,-9.495 4.555,-14.366c-0.067,-9.279 -4.338,-17.917 -8.884,-25.675c-2.291,-3.875 -4.708,-7.513 -6.846,-10.779c-2.137,-3.259 -4,-6.171 -5.137,-8.384l-4.625,2.388Z" style="fill:#0c2b34;fill-rule:nonzero;"/><path d="M646.362,641.892c-0.487,51.929 -38.804,105.408 -115.429,99.158c-82.454,-6.721 -101.179,-88.063 -87.579,-132.279c1.538,-5.1 4.108,-10.271 7.434,-15.409c21.541,-9.408 45.02,-15.991 70.237,-17.866c47.058,-3.546 86.325,8.892 117.971,27.629c4.746,11.642 7.5,24.588 7.366,38.767Z" style="fill:#0c2b34;fill-rule:nonzero;"/><path d="M651.571,641.942l-10.417,-0.1c-0.217,23.391 -8.525,47.079 -24.775,64.787c-16.275,17.692 -40.392,29.675 -73.412,29.713c-3.759,-0 -7.629,-0.159 -11.609,-0.48c-15.979,-1.308 -29.266,-5.499 -40.295,-11.637c-16.534,-9.213 -28.105,-22.871 -35.634,-38.3c-7.521,-15.408 -10.908,-32.579 -10.904,-48.308c-0,-9.988 1.367,-19.384 3.808,-27.313l0.009,-0.029c1.354,-4.496 3.691,-9.258 6.816,-14.083l-4.37,-2.83l2.083,4.771c21.087,-9.208 43.987,-15.616 68.541,-17.445l0.005,-0c5.275,-0.396 10.45,-0.588 15.521,-0.588c39.045,0.008 72.049,11.321 99.404,27.508l2.654,-4.483l-4.821,1.967c4.392,10.787 6.979,22.712 6.983,35.821l-0.004,0.933l5.208,0.046l5.209,0.05l0.004,-1.029c0,-14.488 -2.879,-27.8 -7.754,-39.755c-0.429,-1.05 -1.192,-1.933 -2.171,-2.512c-28.667,-16.988 -63.621,-28.971 -104.712,-28.963c-5.334,0 -10.767,0.2 -16.305,0.617l0.005,-0c-25.88,1.925 -49.942,8.683 -71.938,18.288c-0.929,0.408 -1.737,1.091 -2.288,1.945c-3.52,5.45 -6.32,11.029 -8.045,16.734l0.012,-0.03c-2.791,9.084 -4.267,19.45 -4.271,30.38c0.017,22.921 6.484,48.441 21.863,69.246c7.687,10.391 17.629,19.566 30.021,26.462c12.391,6.9 27.204,11.508 44.52,12.917c4.259,0.35 8.409,0.516 12.455,0.516c35.579,0.042 62.933,-13.237 81.087,-33.091c18.179,-19.838 27.267,-45.98 27.517,-71.725Z" style="fill:#0c2b34;fill-rule:nonzero;"/><path d="M589.988,632.75c0.512,24.992 -19.334,45.667 -44.326,46.175c-24.995,0.513 -45.67,-19.333 -46.179,-44.325c-0.512,-24.992 19.334,-45.667 44.325,-46.179c24.992,-0.513 45.667,19.333 46.18,44.329Z" style="fill:#0c2b34;fill-rule:nonzero;"/><path d="M619.062,705.129c-0.149,0 -0.45,-0.179 -0.887,-0.521c0.138,-0.158 0.275,-0.316 0.408,-0.479c0.459,0.538 0.655,0.871 0.555,0.971c-0.017,0.021 -0.042,0.029 -0.076,0.029Z" style="fill:#0c2b34;fill-rule:nonzero;"/><path d="M450.463,675.183c-0.105,0 -0.167,-0.025 -0.188,-0.071c-0.042,-0.095 0.117,-0.258 0.463,-0.483c0.058,0.163 0.112,0.321 0.17,0.483c-0.187,0.046 -0.337,0.071 -0.445,0.071Z" style="fill:#0c2b34;fill-rule:nonzero;"/><path d="M640.592,671.296c-0.492,-0 -1.779,-0.404 -3.721,-1.142c0.083,-0.283 0.167,-0.558 0.25,-0.842c2.454,0.98 3.792,1.646 3.687,1.905c-0.02,0.054 -0.091,0.079 -0.216,0.079Z" style="fill:#0c2b34;fill-rule:nonzero;"/><path d="M444.538,636.158c-1.88,-0.016 -2.917,-0.137 -2.921,-0.375c-0.005,-0.241 1.037,-0.4 2.933,-0.496c-0.004,0.292 -0.012,0.58 -0.012,0.871Z" style="fill:#0c2b34;fill-rule:nonzero;"/><path d="M640.763,632.158c-0.026,-0.3 -0.055,-0.6 -0.084,-0.895c1.459,-0.051 2.717,-0.075 3.758,-0.075c2.192,-0 3.409,0.116 3.417,0.374c0.004,0.384 -2.608,0.563 -7.091,0.596Z" style="fill:#0c2b34;fill-rule:nonzero;"/><path d="M493.092,584.892c-2.942,-3.129 -5.713,-6.063 -8.246,-8.713c2.921,2.571 6.175,5.404 9.646,8.404c-0.467,0.104 -0.934,0.204 -1.4,0.309Z" style="fill:#0c2b34;fill-rule:nonzero;"/><path d="M453.688,598.554c-3.305,-1.267 -5.146,-2.121 -5.025,-2.425c0.02,-0.05 0.091,-0.075 0.216,-0.075c0.613,0 2.458,0.625 5.267,1.746c-0.154,0.25 -0.309,0.504 -0.458,0.754Z" style="fill:#0c2b34;fill-rule:nonzero;"/><path d="M597.725,578.929c-0.229,-0.071 -0.458,-0.142 -0.687,-0.212c1.82,-1.721 3.554,-3.371 5.183,-4.925c-1.425,1.616 -2.925,3.337 -4.496,5.137Z" style="fill:#8a7a7c;fill-rule:nonzero;"/><path d="M597.721,578.938c-0.233,-0.075 -0.458,-0.146 -0.692,-0.217c0.004,-0.004 0.004,-0.004 0.009,-0.004c0.229,0.07 0.458,0.141 0.687,0.212c-0,0.004 -0.004,0.004 -0.004,0.009Z" style="fill:#0c2b34;fill-rule:nonzero;"/><path d="M590.254,587.562c-0.675,-0.195 -1.35,-0.387 -2.025,-0.575c3.083,-2.883 6.042,-5.658 8.8,-8.266c0.234,0.071 0.459,0.142 0.692,0.217c-2.359,2.708 -4.867,5.604 -7.467,8.624Z" style="fill:#0c2b34;fill-rule:nonzero;"/><path d="M634.708,594.675c-0.325,-0.175 -0.65,-0.354 -0.975,-0.529c2.838,-1.267 4.692,-1.979 5.275,-1.979c0.104,-0 0.167,0.02 0.188,0.07c0.125,0.284 -1.513,1.142 -4.488,2.438Z" style="fill:#8a7a7c;fill-rule:nonzero;"/><path d="M520.096,580.792c-1.296,-3.484 -2.567,-6.871 -3.792,-10.121c0.504,-0.05 1.008,-0.096 1.513,-0.142c1.625,3.234 3.329,6.6 5.079,10.054c-0.492,0.034 -0.988,0.067 -1.479,0.105l-0.005,-0c-0.441,0.033 -0.879,0.066 -1.316,0.104Z" style="fill:#0c2b34;fill-rule:nonzero;"/><path d="M569.667,572.287c-0.588,-0.095 -1.171,-0.187 -1.763,-0.279c2.658,-5.846 5.117,-11.304 7.229,-16.079c-1.65,4.842 -3.5,10.396 -5.466,16.358Z" style="fill:#8a7a7c;fill-rule:nonzero;"/><path d="M569.667,572.287c-0.588,-0.095 -1.171,-0.187 -1.763,-0.274l0,-0.005c0.592,0.092 1.175,0.184 1.763,0.279Z" style="fill:#0c2b34;fill-rule:nonzero;"/><path d="M566.379,582.317c-0.987,-0.15 -1.983,-0.296 -2.975,-0.434c1.542,-3.37 3.05,-6.679 4.5,-9.87c0.592,0.087 1.175,0.179 1.763,0.274c-1.067,3.238 -2.167,6.6 -3.288,10.03Z" style="fill:#0c2b34;fill-rule:nonzero;"/><path d="M544.342,569.813c-0.609,-0.021 -1.213,-0.042 -1.821,-0.055c0.217,-6.65 0.404,-12.879 0.529,-18.329c0.354,5.467 0.792,11.717 1.292,18.384Z" style="fill:#8a7a7c;fill-rule:nonzero;"/><path d="M545.125,580.267c-0.987,-0.038 -1.967,-0.071 -2.962,-0.1c0.125,-3.542 0.25,-7.034 0.358,-10.409c0.608,0.013 1.212,0.034 1.821,0.055c0.246,3.391 0.512,6.895 0.783,10.454Z" style="fill:#0c2b34;fill-rule:nonzero;"/><path d="M484.817,576.154c-9.042,-7.958 -14.938,-13.433 -14.484,-13.908c0.017,-0.017 0.042,-0.025 0.075,-0.025c0.825,-0 6.413,5.558 14.413,13.933l-0.004,0Z" style="fill:#8a7a7c;fill-rule:nonzero;"/><path d="M484.846,576.179c-0.013,-0.008 -0.021,-0.016 -0.029,-0.025l0.004,0c0.008,0.009 0.017,0.017 0.025,0.025Z" style="fill:#0c2b34;fill-rule:nonzero;"/><path d="M602.221,573.792c7.687,-8.738 13.067,-14.546 13.871,-14.546c0.029,-0 0.054,0.008 0.07,0.025c0.475,0.454 -5.212,6.183 -13.941,14.521Zm-91.038,-16.563c-5.212,-10.604 -8.483,-17.754 -7.887,-18.017c0.012,-0.004 0.021,-0.004 0.033,-0.004c0.663,0 3.667,7.192 7.854,18.021Zm63.95,-1.3c3.75,-11.016 6.463,-18.333 7.117,-18.333c0.008,-0 0.021,-0 0.029,0.004c0.609,0.237 -2.371,7.517 -7.146,18.329Zm-32.083,-4.5c-0.796,-12.462 -1.112,-20.858 -0.429,-20.871l0.008,0c0.684,0 0.709,8.396 0.421,20.871Z" style="fill:#8a7a7c;fill-rule:nonzero;"/><path d="M589.525,610.121c0.254,12.496 -9.667,22.833 -22.162,23.091c-12.496,0.255 -22.834,-9.67 -23.092,-22.166c-0.258,-12.496 9.671,-22.833 22.167,-23.088c12.495,-0.254 22.833,9.667 23.087,22.163Z" style="fill:#fff;fill-rule:nonzero;"/><path d="M743.017,717.467c-1.938,-2.967 -3.638,-5.654 -4.859,-7.975c-13.687,-26.525 -84.112,-143.996 -217.133,-133.996c-132.979,9.996 -217.158,149.496 -224.867,155.9c-0.787,0.533 -1.62,1.112 -2.504,1.646l-0.091,0.05c-7.875,5.183 -17.946,10.741 -29.655,14.408c-13.529,4.221 -29.316,5.808 -46.358,1.087c-50.233,-13.9 -59.733,-65.491 -59.733,-65.491c-0,-0 30.712,44.367 93.858,28.521c0,-0 -53.871,-2.1 -81.333,-45.663c0.67,1.046 42.716,27.721 81.1,15.229c-0,0 -52.542,-1.829 -75.28,-48.687c0,-0 53.03,47.7 89.909,19.896c-0,-0 -44.208,-5.338 -56.717,-44.471c1.167,1.996 23.329,26.846 64.563,27.554c-0,0 -36.892,-13.283 -45.338,-63.763c1.367,2.601 25.429,47.505 61.217,39.213c-0,-0 -29.613,-8.738 -44.567,-51.383c0,-0 29.317,35.595 56.742,36.112c-0,0 -31.217,-20.625 -39.725,-53.221c-0,0 29.716,52.863 97.862,51.984c0,-0 -38.712,-13.009 -63.416,-52.592c1.825,1.979 31.866,33.992 80.737,34.025c0,-0 -26.291,-16.079 -37.212,-65.713c1.187,2.842 21.041,48.625 64.008,58.359c-1.571,-0.909 -26.808,-16.167 -34.508,-69.009c1.225,4.905 12.137,44.821 54.8,64.93c-1.334,-0.817 -22.192,-15.175 -24.734,-66.059c0,0 10.742,40.854 37.721,53.825c-0.925,-1.533 -16.846,-27.121 -16.354,-76.654c-0,0 5.871,57.621 50.013,81.175c-0.884,-1.812 -21.784,-45.933 -1.963,-98.262c0,-0 -1.888,59.379 26.317,91.05c-0,-0 -15.604,-37.659 0.387,-89.013c0,0 -2.712,51.083 18.242,83.938c-0,-0 -6.642,-44.6 6.733,-79.238c0,0 -2.883,49.396 21.992,79.075c-0.792,-1.908 -11.075,-27.283 1.608,-68.104c0,0 1.55,43.438 25.013,70.517c-0,-0 -13.721,-53.329 6.487,-84.446c0,-0 -3.021,56.537 19.538,89.921c-0,-0 -1.467,-37.338 5.654,-63.3c-0,-0 -2.825,50.191 19.025,74.204c-0,-0 -10.946,-25.784 -1.138,-55.654c0,-0 6.784,44.691 31.638,73.291c-0,0 70.808,49.109 92.321,136.784Z" style="fill:#0c2b34;fill-rule:nonzero;"/><path d="M630.417,772.979c-0,0 -31.167,-11.75 -50.325,-7.196c-19.163,4.554 -34.104,11.942 -50.809,9.263c-16.704,-2.679 -35.016,-7.509 -59.95,-5.438c-24.937,2.071 -61.096,-10.195 -100.625,-9.387c-39.533,0.808 -80.433,0.879 -88.629,7.287c0,0 6.629,5.684 15.233,10.604c8.605,4.921 22.192,7.884 31.809,9.538c9.267,1.592 20.529,11.508 21.783,21.888c1.25,10.383 -7.229,28.77 -12.079,46.041c-4.85,17.271 -6.862,45.709 -6.058,84.942c0.362,17.683 -31.896,68.821 -35.917,101.162c-4.021,32.35 -22.067,66.017 -15.292,91.896c6.771,25.879 27.284,36.388 38.629,31.475c11.346,-4.917 33.98,-17.867 42.671,-50.829c8.692,-32.954 -6.829,-79.475 -7.295,-102.362c-0.471,-22.884 9.541,-16.846 13.308,-36.175c3.767,-19.334 -10.959,-26.838 -0.333,-41.625c10.629,-14.788 31.104,-5.838 42.099,-27.917c11,-22.083 -13.312,-65.817 -5.429,-87.313c7.888,-21.496 30.68,-26.646 41.625,-25.825c10.946,0.817 48.771,10.971 66.313,7.488c17.546,-3.479 43.967,-9.225 60.625,-9.046c16.654,0.179 36.833,-1.996 58.646,-18.471Z" style="fill:#7cb6e3;fill-rule:nonzero;"/><path d="M363.133,822.504c1.242,10.396 -7.254,28.784 -12.108,46.067c-4.858,17.233 -6.858,45.675 -6.058,84.95c0.362,17.646 -31.875,68.817 -35.909,101.15c-4.033,32.333 -22.075,66.029 -15.3,91.9c1.729,6.583 4.334,12.208 7.479,16.792c-8.875,-4.559 -17.666,-14.471 -21.687,-29.788c-6.775,-25.867 11.267,-59.562 15.3,-91.9c4.033,-32.333 36.271,-83.458 35.908,-101.15c-0.8,-39.225 1.2,-67.671 6.059,-84.95c4.854,-17.279 13.354,-35.671 12.108,-46.017c-0.333,-2.529 -1.229,-5.046 -2.546,-7.366c7.913,3.545 15.688,11.791 16.754,20.312Z" style="fill:#fff;fill-rule:nonzero;"/><path d="M630.404,772.958c-3.283,2.459 -6.521,4.638 -9.679,6.488c-8.858,-1.696 -18.642,-2.529 -26.442,-0.679c-19.154,4.571 -34.07,11.916 -50.791,9.254c-16.721,-2.663 -35.034,-7.5 -59.967,-5.442c-24.929,2.063 -61.092,-10.204 -100.604,-9.396c-36.275,0.742 -73.688,0.896 -85.929,5.842c-0.571,-0.317 -1.142,-0.588 -1.663,-0.904c-8.646,-4.942 -15.241,-10.625 -15.241,-10.625c8.179,-6.413 49.066,-6.45 88.624,-7.258c39.509,-0.809 75.675,11.454 100.605,9.35c24.933,-2.063 43.245,2.775 59.966,5.437c16.721,2.708 31.638,-4.683 50.792,-9.254c19.154,-4.521 50.329,7.187 50.329,7.187Z" style="fill:#fff;fill-rule:nonzero;"/><path d="M630.417,772.979l1.837,-4.875c-0.112,-0.041 -5.725,-2.154 -13.729,-4.283c-8.021,-2.117 -18.392,-4.283 -28.337,-4.296c-3.863,0.004 -7.671,0.329 -11.305,1.192c-8.441,2.008 -15.941,4.5 -22.866,6.421c-6.934,1.929 -13.263,3.275 -19.467,3.27c-2.146,0 -4.275,-0.158 -6.442,-0.504c-13.566,-2.162 -29.02,-6 -48.695,-6.004c-3.992,-0 -8.159,0.158 -12.513,0.521c-1.783,0.146 -3.654,0.217 -5.608,0.217c-11.154,0.012 -24.963,-2.338 -40.363,-4.771c-15.416,-2.421 -32.471,-4.892 -50.441,-4.896c-1.292,-0 -2.588,0.017 -3.888,0.042c-19.738,0.404 -39.871,0.62 -56.254,1.549c-8.196,0.467 -15.446,1.109 -21.363,2.08c-2.962,0.487 -5.596,1.054 -7.912,1.775c-2.321,0.741 -4.342,1.566 -6.2,2.991c-1.229,0.963 -1.963,2.421 -1.996,3.984c-0.038,1.562 0.629,3.054 1.817,4.071c0.15,0.124 6.945,5.966 16.037,11.17c4.929,2.809 10.804,4.854 16.725,6.496c5.917,1.625 11.867,2.809 16.783,3.654c3.225,0.509 7.709,2.892 11.167,6.267c3.517,3.35 5.946,7.588 6.329,11.112c0.055,0.463 0.088,0.996 0.088,1.584c0.042,4.112 -1.688,10.808 -4.15,18.254c-2.442,7.487 -5.521,15.846 -7.863,24.171c-4.383,15.696 -6.404,38.979 -6.42,70.225c-0,5.191 0.058,10.604 0.17,16.229l0.005,0.196c0.008,1.479 -0.376,3.875 -1.192,6.775c-1.408,5.1 -4.05,11.771 -7.267,19.212c-4.829,11.18 -10.954,24.146 -16.233,37.055c-5.275,12.933 -9.75,25.762 -11.192,37.179c-1.612,13.05 -5.716,26.729 -9.517,40.237c-3.779,13.521 -7.3,26.871 -7.32,39.709c-0,4.724 0.491,9.383 1.679,13.912c3.083,11.788 8.862,20.858 15.658,27.021c6.8,6.141 14.579,9.483 21.975,9.516c2.804,0 5.558,-0.504 8.104,-1.604c6.046,-2.621 15.138,-7.395 23.9,-15.95c8.763,-8.546 17.159,-20.925 21.738,-38.329c2.046,-7.766 2.808,-16.029 2.808,-24.437c-0.004,-15.071 -2.462,-30.667 -4.908,-44.692c-2.458,-13.983 -4.884,-26.529 -5.029,-34.667c-0.009,-0.487 -0.013,-0.958 -0.013,-1.412c0,-4.892 0.559,-7.9 1.275,-9.95c0.542,-1.546 1.163,-2.621 1.992,-3.792c1.208,-1.742 3.121,-3.717 5.092,-6.837c1.962,-3.121 3.75,-7.263 4.87,-13.084c0.509,-2.616 0.729,-5.087 0.729,-7.404c0,-5.937 -1.441,-10.8 -2.687,-14.746c-1.279,-3.966 -2.229,-6.996 -2.204,-9.525c0.037,-2.296 0.541,-4.487 2.95,-7.904c2.05,-2.825 4.362,-4.412 7.387,-5.771c4.509,-2.05 10.613,-3.033 17.159,-5.754c3.258,-1.375 6.62,-3.262 9.729,-6.037c3.116,-2.771 5.937,-6.409 8.254,-11.075c2.588,-5.213 3.45,-11.009 3.454,-16.984c-0.021,-10.445 -2.625,-21.721 -5.1,-32.633c-2.504,-10.875 -4.867,-21.408 -4.841,-29.454c-0.005,-3.484 0.433,-6.45 1.287,-8.767c3.212,-8.7 9.067,-14.158 15.658,-17.687c6.555,-3.5 13.863,-4.825 18.804,-4.809c0.68,0 1.313,0.025 1.88,0.067l0.004,-0c1.879,0.133 5.404,0.708 9.671,1.504c6.437,1.192 14.712,2.863 23.237,4.242c8.538,1.379 17.3,2.479 24.992,2.483c3.5,-0.004 6.783,-0.225 9.816,-0.825c8.68,-1.721 19.417,-3.971 30.009,-5.783c10.571,-1.817 21.042,-3.175 28.825,-3.167l0.716,0.004c0.6,0.009 1.209,0.013 1.817,0.013c8.429,-0 17.9,-0.671 28.05,-3.467c10.15,-2.796 20.946,-7.733 31.979,-16.071c1.509,-1.141 2.284,-3.025 2.013,-4.9c-0.271,-1.875 -1.546,-3.462 -3.317,-4.129l-1.837,4.875l-3.138,-4.158c-10.021,7.562 -19.512,11.867 -28.467,14.341c-8.958,2.467 -17.399,3.088 -25.283,3.092c-0.571,0 -1.137,-0.004 -1.704,-0.012l0.004,-0l-0.833,-0.004c-8.913,0.008 -19.725,1.462 -30.583,3.316c-10.842,1.854 -21.684,4.129 -30.28,5.834c-2.075,0.412 -4.754,0.624 -7.787,0.624c-8.938,0.013 -20.813,-1.808 -31.509,-3.762c-5.362,-0.975 -10.445,-1.975 -14.82,-2.788c-4.396,-0.808 -8,-1.433 -10.796,-1.65c-0.85,-0.062 -1.738,-0.095 -2.659,-0.095c-6.625,0.016 -15.304,1.595 -23.687,6.025c-8.354,4.4 -16.392,11.9 -20.554,23.3c-1.421,3.887 -1.921,8.05 -1.925,12.354c0.025,9.921 2.633,20.875 5.1,31.771c2.496,10.858 4.862,21.645 4.842,30.316c0.004,4.967 -0.763,9.146 -2.363,12.342c-2.417,4.812 -5.079,7.592 -8.008,9.625c-4.375,3.046 -9.8,4.304 -15.863,6.125c-3.012,0.925 -6.171,2.025 -9.267,3.796c-3.087,1.758 -6.083,4.237 -8.529,7.654c-3.433,4.717 -4.941,9.554 -4.904,13.983c0.029,4.888 1.521,8.9 2.688,12.667c1.2,3.792 2.2,7.358 2.204,11.604c-0,1.667 -0.154,3.446 -0.538,5.413c-0.837,4.266 -1.916,6.841 -3.045,8.825c-0.85,1.491 -1.771,2.687 -2.859,4.041c-1.596,2.005 -3.683,4.471 -5.187,8.155c-1.509,3.683 -2.334,8.27 -2.33,14.633c0,0.529 0.005,1.071 0.017,1.625c0.221,9.754 2.763,22.333 5.183,36.246c2.43,13.875 4.759,28.962 4.75,42.9c0.005,7.775 -0.72,15.175 -2.466,21.779c-4.113,15.558 -11.379,26.133 -18.942,33.533c-7.562,7.392 -15.462,11.55 -20.762,13.846c-1.075,0.467 -2.4,0.746 -3.963,0.746c-4.108,0.029 -9.779,-2.075 -14.979,-6.817c-5.204,-4.725 -9.967,-11.975 -12.579,-21.942c-0.921,-3.512 -1.338,-7.27 -1.338,-11.274c-0.021,-10.88 3.163,-23.521 6.934,-36.892c3.75,-13.383 8.041,-27.5 9.825,-41.767c0.908,-7.375 3.529,-16.283 7.012,-25.633c5.221,-14.05 12.334,-29.121 18.2,-42.458c2.929,-6.676 5.554,-12.917 7.488,-18.492c1.921,-5.604 3.229,-10.434 3.262,-14.925l-0.004,-0.404c-0.117,-5.567 -0.171,-10.904 -0.171,-16.021c-0.017,-30.738 2.1,-53.492 6.034,-67.408c2.183,-7.784 5.204,-16.017 7.733,-23.755c2.512,-7.779 4.621,-14.95 4.666,-21.487c-0.004,-0.95 -0.05,-1.896 -0.162,-2.829c-0.871,-6.859 -4.704,-12.771 -9.446,-17.371c-4.8,-4.575 -10.583,-7.95 -16.629,-9.029c-4.696,-0.809 -10.346,-1.934 -15.779,-3.434c-5.429,-1.483 -10.65,-3.379 -14.321,-5.491c-4.054,-2.317 -7.708,-4.859 -10.321,-6.804c-1.304,-0.971 -2.35,-1.796 -3.058,-2.367l-0.804,-0.659l-0.196,-0.166l-0.05,-0.042l-3.392,3.954l3.213,4.104c0.191,-0.179 1.237,-0.758 2.879,-1.25c2.879,-0.908 7.483,-1.72 13.133,-2.325c17.017,-1.854 43.55,-2.083 69.508,-2.612c1.23,-0.025 2.455,-0.038 3.676,-0.038c17.012,0 33.508,2.359 48.824,4.771c15.325,2.4 29.43,4.88 41.98,4.896c2.204,0 4.362,-0.079 6.47,-0.254c4.059,-0.337 7.934,-0.483 11.651,-0.483c18.304,-0.004 32.837,3.579 47.045,5.87c2.742,0.442 5.442,0.638 8.092,0.638c7.713,-0.004 14.983,-1.633 22.254,-3.65c7.275,-2.025 14.592,-4.45 22.492,-6.325c2.591,-0.617 5.633,-0.908 8.892,-0.908c8.416,-0.013 18.158,1.946 25.662,3.95c3.758,0.996 6.971,1.995 9.229,2.741c1.129,0.375 2.017,0.684 2.617,0.896l0.679,0.246l0.204,0.075l1.838,-4.871l-3.138,-4.158l3.138,4.158Z" style="fill:#0c2b34;fill-rule:nonzero;"/><path d="M310.45,1079.27c-1.567,5.037 -4.167,12.887 -6.379,21.541c-2.209,8.684 -4.071,18.179 -4.083,26.971c0.024,6.709 1.041,13.163 4.587,18.513c1.604,2.387 4.842,3.025 7.229,1.42c2.388,-1.608 3.021,-4.841 1.417,-7.229c-1.796,-2.6 -2.842,-7.108 -2.817,-12.704c-0.012,-7.296 1.65,-16.166 3.759,-24.391c2.108,-8.246 4.62,-15.842 6.233,-21.026c0.854,-2.754 -0.679,-5.67 -3.425,-6.525c-2.75,-0.854 -5.667,0.68 -6.521,3.43Z" style="fill:#fff;fill-rule:nonzero;"/><path d="M368.012,788.267c0,-0 0.392,-0.029 1.142,-0.075c2.246,-0.146 7.546,-0.438 13.409,-0.438c4.408,0 9.15,0.171 13.029,0.658c2.854,0.355 5.458,-1.67 5.812,-4.525c0.358,-2.854 -1.667,-5.458 -4.521,-5.812c-4.579,-0.571 -9.646,-0.733 -14.32,-0.737c-8.267,-0 -15.267,0.537 -15.346,0.545c-2.867,0.217 -5.017,2.721 -4.796,5.588c0.221,2.871 2.725,5.016 5.591,4.796Z" style="fill:#fff;fill-rule:nonzero;"/><path d="M1242.54,690.829c-10.121,13.746 -45.346,21.746 -39.763,40.363c3.729,12.437 15.55,11.708 28.592,10.975c6.483,-0.363 13.271,-0.725 19.516,0.529c18.809,3.779 43.884,8.471 104.325,12.437c60.446,3.967 94.946,11.667 181.246,7.779c86.3,-3.887 129.567,-25.583 131.542,-30.829c1.975,-5.241 -44.863,-163.75 -170.134,-176.887c-122.025,-12.792 -181.404,35.254 -255.324,135.633Z" style="fill:#fff;fill-rule:nonzero;"/><path d="M1242.54,690.829l-4.196,-3.087c-1.663,2.304 -4.913,4.958 -8.93,7.57c-6.02,3.971 -13.608,7.905 -20.029,12.617c-3.208,2.375 -6.171,4.963 -8.487,8.104c-2.304,3.117 -3.938,6.975 -3.925,11.263c-0,1.775 0.275,3.591 0.816,5.392c0.875,2.937 2.205,5.512 3.963,7.616c2.638,3.188 6.158,5.125 9.717,6.138c3.579,1.025 7.258,1.271 10.979,1.279c6.1,-0.013 12.387,-0.696 18.25,-0.688c3.25,-0.004 6.35,0.205 9.162,0.771c18.925,3.804 44.434,8.558 105.009,12.525c24.287,1.596 44.412,3.8 65.566,5.617c21.154,1.821 43.313,3.241 71.467,3.241c13.388,0 28.137,-0.32 44.787,-1.07c43.55,-1.963 76.346,-8.417 98.659,-15.121c11.162,-3.359 19.692,-6.763 25.725,-9.767c3.021,-1.508 5.408,-2.904 7.279,-4.237c0.933,-0.675 1.742,-1.329 2.479,-2.063c0.725,-0.762 1.442,-1.517 2.042,-3.012c0.425,-1.242 0.362,-1.78 0.392,-2.334c-0.005,-0.795 -0.084,-1.454 -0.2,-2.225c-0.45,-2.9 -1.567,-7.304 -3.446,-13.254c-6.575,-20.691 -22.421,-59.016 -50.054,-93.946c-13.825,-17.45 -30.613,-34.045 -50.717,-47.025c-20.1,-12.97 -43.55,-22.3 -70.442,-25.116c-13.087,-1.371 -25.492,-2.054 -37.304,-2.054c-49.837,-0.038 -89.254,12.295 -124.179,36.075c-34.938,23.762 -65.392,58.654 -98.579,103.704l4.196,3.087l4.195,3.092c32.9,-44.7 62.725,-78.638 96.046,-101.267c33.333,-22.616 70.15,-34.242 118.321,-34.275c11.413,0 23.454,0.659 36.221,2c29.646,3.113 54.692,14.608 75.796,30.421c31.641,23.7 54.245,57.229 68.812,85.871c7.288,14.312 12.575,27.392 16.017,37.337c1.721,4.967 2.983,9.159 3.796,12.284c0.404,1.558 0.7,2.854 0.879,3.808c0.091,0.475 0.154,0.867 0.187,1.137l0.034,0.305l0.004,0.062l0.437,-0.021l-0.437,0l-0,0.021l0.437,-0.021l-0.437,0l3.821,0l-3.546,-1.333c-0.346,1.033 -0.246,1.238 -0.275,1.333l3.821,0l-3.546,-1.333l2.721,1.021l-2.359,-1.721c-0.058,0.083 -0.196,0.271 -0.362,0.7l2.721,1.021l-2.359,-1.721l0.575,0.421l-0.537,-0.467l-0.038,0.046l0.575,0.421l-0.537,-0.467c-0.046,0.088 -1.042,0.975 -2.659,1.958c-2.858,1.784 -7.712,4.196 -14.391,6.763c-20.079,7.746 -56.75,17.083 -110.25,19.483c-16.509,0.746 -31.1,1.063 -44.321,1.063c-27.808,-0 -49.575,-1.4 -70.575,-3.204c-20.988,-1.8 -41.229,-4.021 -65.775,-5.629c-60.308,-3.967 -84.946,-8.596 -103.642,-12.346c-3.762,-0.754 -7.537,-0.975 -11.212,-0.975c-6.609,0.008 -12.967,0.696 -18.25,0.687c-4.296,0.017 -7.771,-0.487 -9.971,-1.579c-1.117,-0.546 -1.962,-1.183 -2.721,-2.088c-0.754,-0.908 -1.442,-2.124 -1.991,-3.941c-0.271,-0.904 -0.375,-1.683 -0.375,-2.4c0.004,-1.142 0.254,-2.163 0.816,-3.317c0.959,-2.004 3.063,-4.329 6.042,-6.662c4.45,-3.521 10.654,-6.988 16.65,-10.63c5.991,-3.695 11.854,-7.454 15.833,-12.766l-4.191,-3.092Z" style="fill:#0c2b34;fill-rule:nonzero;"/><path d="M1668.02,732.067c-2.005,5.25 -45.263,26.979 -131.563,30.854c-86.296,3.879 -120.817,-3.817 -181.221,-7.792c-60.454,-3.975 -85.521,-8.675 -104.329,-12.421c-6.254,-1.258 -13.046,-0.895 -19.537,-0.533c-13.038,0.729 -24.85,1.458 -28.584,-10.971c-5.591,-18.612 29.642,-26.612 39.738,-40.383c51.154,-69.492 95.362,-113.821 158.162,-130.313c27.921,-7.425 59.571,-9.246 97.159,-5.321c47.046,4.955 83.008,30.367 109.491,60.525c44.121,50.08 61.884,113.088 60.684,116.355Z" style="fill:#fff;fill-rule:nonzero;"/><path d="M1668.02,732.067l-4.863,-1.859l2.688,1.025l-2.329,-1.708c-0.059,0.079 -0.196,0.258 -0.359,0.683l2.688,1.025l-2.329,-1.708l0.529,0.388l-0.496,-0.434l-0.033,0.046l0.529,0.388l-0.496,-0.434c-0.054,0.096 -1.054,0.984 -2.675,1.971c-2.863,1.783 -7.717,4.2 -14.4,6.775c-20.088,7.75 -56.75,17.096 -110.25,19.496c-16.484,0.737 -31.054,1.054 -44.263,1.054c-27.825,0 -49.608,-1.4 -70.608,-3.204c-21,-1.804 -41.238,-4.025 -65.775,-5.642c-60.321,-3.971 -84.954,-8.608 -103.654,-12.329l0.012,0.004c-3.775,-0.758 -7.558,-0.979 -11.241,-0.983c-6.609,0.012 -12.963,0.7 -18.242,0.687c-4.292,0.021 -7.763,-0.483 -9.967,-1.575c-1.116,-0.545 -1.962,-1.183 -2.721,-2.087c-0.754,-0.904 -1.441,-2.121 -1.987,-3.938c-0.275,-0.908 -0.379,-1.687 -0.379,-2.404c0.004,-1.137 0.254,-2.158 0.817,-3.312c0.958,-2.005 3.062,-4.33 6.041,-6.663c4.45,-3.521 10.65,-6.987 16.642,-10.633c5.991,-3.704 11.85,-7.471 15.825,-12.796l-0.009,0.008c25.467,-34.6 49.096,-62.758 73.926,-84.175c24.841,-21.425 50.799,-36.15 81.37,-44.187l0.013,-0.004c17.858,-4.75 37.341,-7.163 59.15,-7.163c11.383,0 23.396,0.659 36.129,1.988c22.729,2.396 42.733,9.708 60.35,20.112c17.612,10.404 32.821,23.921 45.771,38.671l0.004,0.004c20.9,23.713 35.867,50.575 45.546,72.279c4.842,10.85 8.366,20.413 10.658,27.609c1.15,3.591 1.988,6.6 2.525,8.833c0.267,1.117 0.459,2.042 0.575,2.713l0.117,0.791l0.021,0.196l-0,0.008l3.825,0l-3.567,-1.3c-0.321,0.984 -0.233,1.192 -0.258,1.3l3.825,0l-3.567,-1.3l4.892,1.784l-4.863,-1.859l4.863,1.859l4.895,1.779c0.396,-1.188 0.346,-1.721 0.371,-2.263c-0.008,-0.975 -0.121,-1.766 -0.287,-2.762c-0.633,-3.613 -2.225,-9.534 -4.934,-17.446c-8.116,-23.637 -26.124,-64.233 -56.82,-99.108l0.008,0.008c-13.538,-15.413 -29.55,-29.683 -48.3,-40.763c-18.746,-11.079 -40.25,-18.949 -64.562,-21.504c-13.059,-1.366 -25.434,-2.045 -37.217,-2.045c-22.575,-0 -42.996,2.504 -61.825,7.512l0.016,-0.004c-32.233,8.454 -59.779,24.137 -85.533,46.375c-25.762,22.242 -49.812,50.996 -75.504,85.887l-0.008,0.009c-1.659,2.308 -4.9,4.962 -8.909,7.579c-6.02,3.975 -13.6,7.912 -20.016,12.621c-3.213,2.375 -6.171,4.962 -8.488,8.104c-2.3,3.116 -3.937,6.975 -3.925,11.258c0,1.779 0.275,3.6 0.817,5.4c0.879,2.938 2.208,5.509 3.967,7.613c2.637,3.183 6.158,5.12 9.712,6.133c3.575,1.025 7.258,1.271 10.975,1.275c6.096,-0.008 12.379,-0.696 18.242,-0.683c3.258,-0.004 6.366,0.204 9.183,0.771l0.012,0.004c18.913,3.775 44.421,8.533 105.005,12.508c24.279,1.596 44.4,3.804 65.566,5.625c21.154,1.821 43.329,3.242 71.5,3.242c13.375,-0 28.105,-0.321 44.729,-1.067c43.55,-1.958 76.346,-8.417 98.659,-15.129c11.162,-3.359 19.696,-6.771 25.729,-9.779c3.025,-1.509 5.417,-2.904 7.283,-4.242c0.938,-0.671 1.75,-1.325 2.484,-2.058c0.725,-0.763 1.441,-1.513 2.041,-2.992l0.029,-0.079l-4.895,-1.779Z" style="fill:#0c2b34;fill-rule:nonzero;"/><path d="M1607.33,615.712c1.567,76.471 -82.737,113.559 -144.854,94.738c-81.342,-24.579 -82.996,-112.329 -61.796,-149.942c27.921,-7.425 59.571,-9.246 97.159,-5.321c47.046,4.955 83.008,30.367 109.491,60.525Z" style="fill:#0c2b34;fill-rule:nonzero;"/><path d="M1607.33,615.712l-5.208,0.105c0.017,0.666 0.021,1.329 0.021,1.987c-0.004,14.696 -3.35,27.671 -9.15,38.996c-8.704,16.975 -23.034,30.283 -40.204,39.379c-17.163,9.092 -37.125,13.9 -56.696,13.896c-11.021,-0 -21.909,-1.521 -32.109,-4.608c-26.179,-7.942 -43.316,-22.409 -54.208,-39.579c-10.866,-17.176 -15.371,-37.234 -15.367,-55.988c-0.02,-18.383 4.38,-35.475 10.809,-46.833l-4.538,-2.559l1.338,5.034c17.858,-4.75 37.341,-7.163 59.15,-7.163c11.383,0 23.396,0.659 36.129,1.988c22.729,2.396 42.733,9.708 60.35,20.112c17.612,10.404 32.821,23.921 45.771,38.671l3.912,-3.438l-5.208,0.105l5.208,-0.105l3.917,-3.437c-13.538,-15.413 -29.55,-29.683 -48.3,-40.763c-18.746,-11.079 -40.25,-18.949 -64.562,-21.504c-13.059,-1.366 -25.434,-2.045 -37.217,-2.045c-22.575,-0 -42.996,2.504 -61.825,7.512c-1.363,0.363 -2.509,1.246 -3.2,2.475c-7.525,13.4 -12.129,31.925 -12.15,51.95c0.004,20.387 4.854,42.358 16.979,61.554c12.104,19.192 31.604,35.433 59.996,43.984c11.254,3.408 23.15,5.054 35.125,5.054c28.346,-0.017 57.208,-9.184 79.279,-26.625c11.025,-8.721 20.342,-19.542 26.887,-32.313c6.55,-12.762 10.305,-27.462 10.301,-43.75c-0,-0.729 -0.009,-1.462 -0.021,-2.2c-0.025,-1.225 -0.484,-2.408 -1.292,-3.329l-3.917,3.437Z" style="fill:#0c2b34;fill-rule:nonzero;"/><path d="M1543.39,605.867c0.509,24.991 -19.337,45.666 -44.329,46.179c-24.991,0.508 -45.666,-19.338 -46.179,-44.329c-0.508,-24.992 19.338,-45.667 44.329,-46.175c24.992,-0.513 45.667,19.333 46.179,44.325Z" style="fill:#0c2b34;fill-rule:nonzero;"/><path d="M1426.93,688.596c-0.033,-0 -0.054,-0.004 -0.071,-0.021c-0.145,-0.142 0.296,-0.787 1.234,-1.858c0.204,0.166 0.408,0.337 0.616,0.504c-0.937,0.896 -1.55,1.375 -1.779,1.375Z" style="fill:#0c2b34;fill-rule:nonzero;"/><path d="M1404.01,655.679c-0.105,0 -0.167,-0.025 -0.188,-0.071c-0.029,-0.066 0.038,-0.166 0.2,-0.296c0.054,0.117 0.108,0.234 0.167,0.35c-0.071,0.013 -0.129,0.017 -0.179,0.017Z" style="fill:#0c2b34;fill-rule:nonzero;"/><path d="M1597.44,612.596c-0.288,-0.3 -0.575,-0.6 -0.863,-0.896c0.508,-0.008 0.979,-0.017 1.412,-0.017c2.192,0 3.409,0.117 3.413,0.38c0.008,0.279 -1.417,0.45 -3.962,0.533Z" style="fill:#0c2b34;fill-rule:nonzero;"/><path d="M1565.31,585.3c-0.345,-0.233 -0.691,-0.458 -1.037,-0.687c3.733,-1.413 7.25,-2.755 10.446,-3.988c-2.9,1.425 -6.063,2.996 -9.409,4.675Z" style="fill:#0c2b34;fill-rule:nonzero;"/><path d="M1440.73,559.133c-0.8,-0.841 -1.579,-1.662 -2.337,-2.458c0.891,0.788 1.812,1.596 2.762,2.425c-0.141,0.012 -0.283,0.021 -0.425,0.033Z" style="fill:#0c2b34;fill-rule:nonzero;"/><path d="M1576.11,580.083c-0.037,-0.029 -0.079,-0.058 -0.116,-0.087c9.087,-4.45 15.392,-7.334 16.558,-7.334c0.104,0 0.167,0.021 0.188,0.071c0.25,0.563 -6.392,3.371 -16.63,7.35Z" style="fill:#8a7a7c;fill-rule:nonzero;"/><path d="M1576.09,580.092c-0.042,-0.03 -0.079,-0.055 -0.121,-0.084c0.008,-0.004 0.016,-0.008 0.025,-0.012c0.037,0.029 0.079,0.058 0.116,0.087c-0.008,0.004 -0.016,0.004 -0.02,0.009Z" style="fill:#0c2b34;fill-rule:nonzero;"/><path d="M1574.72,580.625c0.421,-0.208 0.842,-0.417 1.25,-0.617c0.042,0.029 0.079,0.054 0.121,0.084c-0.454,0.175 -0.904,0.35 -1.371,0.533Z" style="fill:#0c2b34;fill-rule:nonzero;"/><path d="M1547.72,563.525c-0.384,-0.175 -0.767,-0.35 -1.155,-0.525c3.313,-3.112 6.417,-6.046 9.209,-8.712c-2.471,2.808 -5.179,5.92 -8.054,9.237Z" style="fill:#8a7a7c;fill-rule:nonzero;"/><path d="M1521.86,554.279c-0.088,-0.021 -0.18,-0.046 -0.267,-0.066c0.362,-0.796 0.712,-1.571 1.054,-2.325c-0.254,0.775 -0.521,1.574 -0.787,2.391Z" style="fill:#8a7a7c;fill-rule:nonzero;"/><path d="M1521.86,554.279c-0.088,-0.021 -0.18,-0.046 -0.267,-0.066c0.087,0.02 0.179,0.045 0.267,0.066Z" style="fill:#0c2b34;fill-rule:nonzero;"/><path d="M1497.11,549.875c-0.058,-0.004 -0.12,-0.013 -0.179,-0.017c0.017,-0.583 0.038,-1.158 0.054,-1.721c0.042,0.567 0.084,1.15 0.125,1.738Z" style="fill:#8a7a7c;fill-rule:nonzero;"/><path d="M1497.94,560.433c-0.213,-0.021 -0.425,-0.046 -0.638,-0.066c-0.254,-0.025 -0.512,-0.054 -0.771,-0.08c0.154,-3.7 0.292,-7.204 0.4,-10.429c0.059,0.004 0.121,0.013 0.179,0.017c0.242,3.263 0.521,6.817 0.83,10.558Z" style="fill:#0c2b34;fill-rule:nonzero;"/><path d="M1430.5,549.625c-4.4,-4.021 -6.925,-6.567 -6.625,-6.883c0.021,-0.017 0.046,-0.025 0.079,-0.025c0.559,-0 3.304,2.55 7.504,6.8c-0.32,0.037 -0.641,0.075 -0.958,0.108Z" style="fill:#8a7a7c;fill-rule:nonzero;"/><path d="M1283.8,548.154c9.254,-6.196 33.125,-21.567 62.387,-35.325c29.238,-13.779 63.921,-25.829 94.2,-25.787c1.517,-0 3.021,0.029 4.513,0.087c62.1,2.492 145.879,41.875 211.883,139.263c1.613,2.383 4.854,3.004 7.234,1.387c2.383,-1.612 3.004,-4.85 1.391,-7.233c-67.6,-99.696 -154.066,-141.129 -220.087,-143.825c-1.638,-0.067 -3.28,-0.096 -4.934,-0.096c-32.966,0.038 -68.637,12.704 -98.633,26.779c-29.975,14.096 -54.221,29.721 -63.746,36.092c-2.391,1.6 -3.033,4.837 -1.433,7.225c1.6,2.392 4.833,3.033 7.225,1.433Z" style="fill:#0c2b34;fill-rule:nonzero;"/><path d="M1797.44,688.2c-0,-0 -23.209,65.729 -129.421,43.867c1.204,-3.267 -16.563,-66.275 -60.684,-116.355c-26.483,-30.162 -62.445,-55.575 -109.491,-60.525c-37.588,-3.925 -69.238,-2.104 -97.159,5.321c-51.783,13.592 -90.925,46.125 -131.729,96.067c24.304,-35.05 49.033,-60.625 88.008,-94.517c15.363,-13.316 7.659,-45.691 7.659,-45.691c-0,-0 12.775,23.304 7.454,38.575c0,-0 17.204,-17.25 14.804,-56.588c0,0 9.284,22.438 2.334,45.204c-0,0 18.145,-23.933 14.883,-57.15c-0,0 7.692,17.867 5.358,37.021c0,0 13.479,-8.867 14.983,-31.712c0,-0 8.109,24.575 -5.42,47.104c1.287,-1.388 21.858,-23.921 27.733,-53.288c0,0 3.792,24.709 -3.167,42.409c1.292,-0.967 21.996,-16.975 26.584,-42.888c-0,0 -0.7,32.267 -10.35,47.108c-0,0 25.008,-16.704 37.895,-47.67c0,-0 -1.775,28.062 -14.279,47.8c1.988,-1.496 34.105,-26.33 37.334,-52.121c-0,-0 0.325,27.267 -14.867,48.892c-0,-0 23.096,-4.605 32.758,-39.446c0,-0 2.13,26.008 -12.129,42.683c0,-0 26.817,-13.033 38.679,-43.742c0,0 -1.716,30.971 -24.333,56.688c1.4,-0.45 23.487,-8.508 38.917,-41.354c-0,-0 -4.938,24.791 -15.305,39.087c0,0 27.526,-15.396 32.301,-36.571c-0,0 3.662,27.479 -15.68,48.2c0,0 32.484,-11.6 50.859,-42.866c-0.33,2.212 -6.459,37.687 -29.209,54.583c2.38,-0.704 40.009,-12.975 58.538,-45.792c-0.425,2.025 -7.788,34.567 -39.034,53.938c0,-0 44.088,-6.534 70.401,-44.392c-1.438,3.034 -25.7,51.742 -58.455,63.771c0,0 29.846,-2.913 57.517,-36.292c0,0 -4.096,15.621 -28.25,37.196c2.096,-0.7 35.475,-12.179 49.183,-32.787c0,-0 -3.85,27.491 -43.941,52.771c-0,-0 24.862,-0.792 41.204,-18.963c-0.954,1.521 -16.746,25.925 -37.042,31.879c0,0 25.75,1.304 52.142,-30.358c-0.479,1.841 -9.483,31.975 -51.438,51.187c0,0 28.63,1.95 56.034,-19.404c-0,0 -7.25,12.917 -30.734,23.817c0,-0 29.45,3.012 52.5,-26.75c-0.612,2.171 -11.212,37.079 -53.5,53.529c0,-0 36.329,8.929 77.95,-30.983c0,-0 -23.429,50.196 -65.895,53.412c-0,0 49.312,26.313 87.5,-13.904Z" style="fill:#0c2b34;fill-rule:nonzero;"/><path d="M1282.22,748.3c28.321,10.867 48.587,34.912 68.925,37.096c20.337,2.187 54.392,-12.038 78.021,-1.596c23.629,10.446 40.216,20.242 72.933,16.971c32.717,-3.271 29.588,-16.467 48.867,-15.3c19.275,1.166 28.566,22.833 45.2,21.975c16.633,-0.863 24.195,4.6 23.237,16.696c-3.725,46.908 -16.083,50.796 -13.279,86.125c2.804,35.325 12.904,48.133 30.533,45.171c17.634,-2.963 23.925,-51.484 21.375,-74.326c-2.546,-22.845 -22.208,-68.233 -20.012,-88.054c2.196,-19.816 12.083,-19.775 20.675,-32.304c8.587,-12.525 9.321,-28.687 9.321,-28.687c-0,-0 -18.804,-2.529 -35.805,6.046c-16.995,8.579 -85.304,1.649 -109.179,4.741c-23.87,3.092 -58.075,10.033 -76.287,9.888c-18.217,-0.15 -67.075,0.321 -91.513,2.387c-24.437,2.063 -73.012,-6.829 -73.012,-6.829Z" style="fill:#7cb6e3;fill-rule:nonzero;"/><path d="M1640.17,954.213c-1.113,0.629 -2.279,1.029 -3.496,1.241c-17.637,2.946 -27.758,-9.854 -30.546,-45.192c-2.787,-35.337 9.575,-39.204 13.263,-86.133c0.97,-12.083 -6.604,-17.562 -23.205,-16.704c-5.583,0.3 -10.37,-1.946 -14.941,-5.092c8.308,2.129 16.004,4.225 25.146,3.709c16.645,-0.859 24.225,4.621 23.25,16.708c-3.734,46.925 -10.721,51.854 -7.934,87.196c2.088,26.291 8.238,40.108 18.463,44.267Z" style="fill:#fff;fill-rule:nonzero;"/><path d="M1668.02,732.067c-0,-0 -0.263,5.404 -2.138,12.437c-7.037,0.283 -16.771,1.704 -25.971,6.35c-17.008,8.563 -85.312,1.65 -109.191,4.721c-23.875,3.071 -58.096,10.017 -76.317,9.871c-18.217,-0.146 -67.075,0.337 -91.492,2.387c-13.87,1.175 -35.416,-1.154 -51.52,-3.404l-0.046,0c-8.804,-5.971 -18.317,-11.925 -28.963,-16.075c2.638,0.463 49.142,8.763 72.854,6.775c24.417,-2.05 73.275,-2.533 91.492,-2.387c18.217,0.141 52.438,-6.8 76.317,-9.871c23.879,-3.117 92.183,3.841 109.187,-4.771c16.958,-8.558 35.788,-6.033 35.788,-6.033Z" style="fill:#fff;fill-rule:nonzero;"/><path d="M1282.22,748.3l-1.867,4.863c13.35,5.112 25.167,13.537 36.379,21.237c5.609,3.846 11.075,7.5 16.625,10.417c5.546,2.908 11.217,5.108 17.229,5.758c1.713,0.183 3.463,0.262 5.242,0.262c7.921,-0.012 16.6,-1.5 25.538,-2.916c8.921,-1.425 18.062,-2.792 26.495,-2.784c7.101,-0.004 13.634,0.963 19.2,3.43c10.109,4.462 19.138,8.933 29.034,12.354c9.879,3.421 20.617,5.708 33.696,5.7c4.033,-0 8.295,-0.217 12.829,-0.667c8.166,-0.816 14.379,-2.25 19.341,-3.992c7.442,-2.604 12.017,-5.945 15.546,-8.066c1.779,-1.075 3.275,-1.854 4.929,-2.396c1.659,-0.542 3.534,-0.888 6.209,-0.892c0.625,0 1.291,0.021 2.004,0.063c3.788,0.233 7.092,1.421 10.404,3.266c4.963,2.751 9.704,7.075 14.967,11.046c2.646,1.971 5.45,3.859 8.612,5.296c3.15,1.438 6.709,2.404 10.571,2.4c0.408,0 0.817,-0.012 1.229,-0.033c1.05,-0.054 2.05,-0.084 2.996,-0.084c6.159,-0.02 10.079,1.192 11.992,2.659c0.983,0.737 1.587,1.5 2.071,2.554c0.466,1.054 0.783,2.471 0.783,4.388c-0,0.491 -0.021,1.016 -0.062,1.57l-0,-0.004c-1.659,20.725 -4.934,32.525 -7.917,42.942c-2.983,10.371 -5.808,19.75 -5.792,33.833c0,3.138 0.138,6.504 0.429,10.175c1.329,16.434 4.092,28.45 9.042,37.029c2.479,4.271 5.608,7.688 9.4,9.984c3.779,2.304 8.129,3.379 12.604,3.366c1.821,0 3.667,-0.166 5.542,-0.483c2.866,-0.479 5.458,-1.763 7.637,-3.475c3.825,-3.025 6.605,-7.258 8.925,-12.137c3.45,-7.338 5.809,-16.313 7.384,-25.596c1.566,-9.28 2.316,-18.842 2.32,-27.234c0,-4.212 -0.191,-8.125 -0.575,-11.6c-0.666,-5.912 -2.291,-12.762 -4.329,-20.187c-3.054,-11.113 -7.058,-23.467 -10.266,-34.938c-3.225,-11.429 -5.592,-22.1 -5.559,-29.008c0,-1.021 0.05,-1.946 0.138,-2.767c0.508,-4.537 1.412,-7.666 2.504,-10.045c1.646,-3.542 3.746,-5.684 6.792,-8.505c3.004,-2.779 6.879,-6.095 10.5,-11.383c4.837,-7.075 7.308,-14.829 8.666,-20.846c1.35,-6.021 1.55,-10.337 1.563,-10.554c0.125,-2.7 -1.829,-5.038 -4.509,-5.396c-0.179,-0.025 -2.991,-0.396 -7.408,-0.396c-7.479,0.017 -19.629,1.021 -31.437,6.955c-1.171,0.6 -3.188,1.266 -5.767,1.795c-7.796,1.634 -20.429,2.155 -34.125,2.142c-15.617,-0 -32.733,-0.613 -46.808,-0.613c-8.188,0.005 -15.313,0.196 -20.8,0.9c-11.979,1.555 -26.334,4.03 -39.95,6.109c-13.592,2.083 -26.525,3.75 -35.096,3.737l-0.538,0c-2.02,-0.016 -4.408,-0.025 -7.091,-0.025c-21.734,0.004 -62.771,0.567 -84.9,2.43c-2.35,0.2 -5.017,0.291 -7.888,0.291c-12.383,0.009 -28.433,-1.746 -41.267,-3.521c-6.42,-0.883 -12.054,-1.766 -16.075,-2.433c-2.012,-0.329 -3.616,-0.604 -4.72,-0.8c-1.1,-0.192 -1.684,-0.3 -1.684,-0.3c-2.646,-0.483 -5.225,1.129 -5.954,3.717c-0.725,2.587 0.642,5.308 3.15,6.271l1.867,-4.863l-0.938,5.125c0.05,0.008 9.863,1.804 22.934,3.604c13.087,1.8 29.383,3.613 42.687,3.617c3.096,-0 6.033,-0.096 8.767,-0.329c21.367,-1.813 62.512,-2.396 84.021,-2.392c2.658,-0 5.025,0.008 7.008,0.025l0.621,0c9.783,-0.013 22.896,-1.762 36.667,-3.858c13.745,-2.1 28.07,-4.567 39.716,-6.071c4.579,-0.6 11.475,-0.821 19.463,-0.817c13.791,0 30.937,0.613 46.808,0.613c9.308,-0 18.179,-0.209 25.796,-0.9c3.812,-0.346 7.312,-0.813 10.441,-1.459c3.138,-0.658 5.901,-1.466 8.351,-2.695c9.57,-4.855 20.237,-5.855 26.741,-5.838c1.917,-0 3.467,0.083 4.517,0.158c0.525,0.042 0.921,0.08 1.179,0.109l0.275,0.029l0.054,0.008l0.079,-0.637l-0.083,0.637l0.004,0l0.079,-0.637l-0.083,0.637l0.692,-5.162l-5.2,-0.238l-0,0.004c-0.013,0.263 -0.242,4.117 -1.434,9.229c-1.179,5.117 -3.35,11.467 -6.983,16.75c-1.883,2.742 -3.808,4.78 -5.842,6.717c-3.012,2.904 -6.483,5.592 -9.55,9.896c-3.066,4.308 -5.295,10.021 -6.162,18.058c-0.142,1.271 -0.204,2.575 -0.204,3.917c0.012,6.012 1.208,12.879 2.954,20.329c2.625,11.15 6.537,23.546 10,35.15c3.466,11.567 6.454,22.425 7.262,29.808c0.334,2.984 0.513,6.551 0.513,10.446c0.008,11.838 -1.667,26.717 -5.079,38.488c-1.688,5.883 -3.834,10.979 -6.15,14.421c-1.15,1.72 -2.325,3.016 -3.405,3.854c-1.087,0.846 -2.02,1.25 -2.941,1.408c-1.371,0.229 -2.646,0.338 -3.817,0.338c-2.904,-0.013 -5.154,-0.625 -7.204,-1.859c-1.538,-0.933 -3,-2.262 -4.413,-4.191c-2.12,-2.884 -4.079,-7.138 -5.629,-12.913c-1.558,-5.771 -2.721,-13.033 -3.416,-21.825c-0.271,-3.421 -0.396,-6.512 -0.396,-9.35c0.021,-12.696 2.362,-20.396 5.387,-30.962c3.025,-10.521 6.596,-23.513 8.288,-44.988l-0,-0.004c0.062,-0.808 0.096,-1.604 0.096,-2.387c-0,-3.05 -0.505,-5.971 -1.688,-8.626c-1.746,-4.012 -5.125,-7.129 -9.2,-8.883c-4.087,-1.787 -8.85,-2.496 -14.375,-2.504c-1.142,0 -2.321,0.029 -3.533,0.092l-0.692,0.02c-2.854,-0.008 -5.475,-0.895 -8.421,-2.583c-4.4,-2.5 -9.1,-6.854 -14.67,-10.95c-5.555,-4.062 -12.296,-7.937 -20.834,-8.454c-0.908,-0.058 -1.787,-0.083 -2.633,-0.083c-4.813,-0.017 -8.771,0.937 -12.046,2.408c-2.463,1.092 -4.513,2.388 -6.496,3.629c-2.983,1.875 -5.85,3.692 -10.117,5.359c-4.258,1.654 -9.966,3.154 -18.404,3.999c-4.212,0.421 -8.125,0.617 -11.791,0.617c-11.888,-0.012 -21.23,-2.004 -30.3,-5.129c-9.059,-3.121 -17.859,-7.454 -28.221,-12.038c-7.4,-3.262 -15.4,-4.316 -23.409,-4.316c-9.524,0.004 -19.154,1.487 -28.133,2.912c-8.966,1.438 -17.321,2.8 -23.9,2.788c-1.475,-0 -2.854,-0.067 -4.129,-0.204c-4.154,-0.438 -8.642,-2.067 -13.5,-4.621c-7.292,-3.817 -15.292,-9.663 -24.175,-15.675c-8.892,-6 -18.708,-12.171 -29.938,-16.483l-1.866,4.862l-0.938,5.125l0.938,-5.125Z" style="fill:#0c2b34;fill-rule:nonzero;"/><path d="M1543.08,590.617c0.254,12.495 -9.667,22.833 -22.162,23.091c-12.5,0.254 -22.834,-9.666 -23.092,-22.162c-0.254,-12.5 9.666,-22.834 22.162,-23.092c12.496,-0.254 22.834,9.667 23.092,22.163Z" style="fill:#fff;fill-rule:nonzero;"/></g></svg>