<?xml version="1.0" encoding="UTF-8" standalone="no"?><!DOCTYPE svg PUBLIC "-//W3C//DTD SVG 1.1//EN" "http://www.w3.org/Graphics/SVG/1.1/DTD/svg11.dtd"><svg width="100%" height="100%" viewBox="0 0 500 115" version="1.1" xmlns="http://www.w3.org/2000/svg" xmlns:xlink="http://www.w3.org/1999/xlink" xml:space="preserve" xmlns:serif="http://www.serif.com/" style="fill-rule:evenodd;clip-rule:evenodd;stroke-linejoin:round;stroke-miterlimit:2;"><g transform="matrix(61.1347,0,0,61.1347,486.151,43.165)"></g><text x="12.536px" y="43.165px" style="font-family:'Caprasimo-Regular', 'Caprasimo', serif;font-size:61.135px;">GOLDEN BOO<tspan x="443.314px " y="43.165px ">T</tspan></text><g transform="matrix(71.464,0,0,71.464,164.523,108.272)"><path d="M0.074,-0l-0,-0.113l0.263,-0.269c0.022,-0.023 0.038,-0.046 0.049,-0.068c0.01,-0.023 0.015,-0.045 0.015,-0.068c0,-0.032 -0.009,-0.059 -0.028,-0.079c-0.019,-0.021 -0.045,-0.031 -0.077,-0.031c-0.033,0 -0.059,0.011 -0.079,0.032c-0.019,0.021 -0.029,0.048 -0.029,0.083l-0.125,-0c0,-0.046 0.01,-0.086 0.03,-0.119c0.02,-0.034 0.048,-0.061 0.083,-0.08c0.035,-0.019 0.076,-0.028 0.123,-0.028c0.047,0 0.087,0.009 0.121,0.027c0.034,0.018 0.061,0.043 0.08,0.075c0.02,0.033 0.029,0.071 0.029,0.114c0,0.037 -0.009,0.074 -0.026,0.112c-0.018,0.037 -0.047,0.076 -0.088,0.116l-0.184,0.183l0.307,0l-0,0.113l-0.464,0Z" style="fill-rule:nonzero;"/></g><g transform="matrix(71.464,0,0,71.464,207.401,108.272)"><path d="M0.3,0.01c-0.047,0 -0.088,-0.009 -0.123,-0.027c-0.034,-0.018 -0.061,-0.044 -0.08,-0.076c-0.019,-0.033 -0.029,-0.071 -0.029,-0.115l0,-0.314c0,-0.044 0.01,-0.082 0.029,-0.115c0.019,-0.033 0.046,-0.058 0.08,-0.076c0.035,-0.018 0.076,-0.027 0.123,-0.027c0.048,0 0.089,0.009 0.123,0.027c0.035,0.018 0.061,0.043 0.08,0.076c0.019,0.033 0.029,0.071 0.029,0.115l-0,0.314c-0,0.044 -0.01,0.082 -0.029,0.115c-0.019,0.032 -0.045,0.058 -0.08,0.076c-0.035,0.018 -0.076,0.027 -0.123,0.027Zm0,-0.108c0.035,0 0.063,-0.01 0.083,-0.03c0.02,-0.02 0.031,-0.047 0.031,-0.08l-0,-0.314c-0,-0.033 -0.011,-0.06 -0.031,-0.08c-0.02,-0.02 -0.048,-0.03 -0.083,-0.03c-0.035,0 -0.063,0.01 -0.083,0.03c-0.02,0.02 -0.031,0.047 -0.031,0.08l0,0.314c0,0.033 0.011,0.06 0.031,0.08c0.021,0.02 0.049,0.03 0.083,0.03Zm0,-0.207c-0.019,0 -0.035,-0.005 -0.048,-0.016c-0.012,-0.011 -0.018,-0.027 -0.018,-0.047c0,-0.02 0.006,-0.035 0.018,-0.045c0.012,-0.011 0.028,-0.016 0.048,-0.016c0.02,-0 0.036,0.005 0.048,0.016c0.012,0.01 0.018,0.025 0.018,0.045c-0,0.02 -0.006,0.036 -0.018,0.047c-0.012,0.011 -0.028,0.016 -0.048,0.016Z" style="fill-rule:nonzero;"/></g><g transform="matrix(71.464,0,0,71.464,250.28,108.272)"><path d="M0.074,-0l-0,-0.113l0.263,-0.269c0.022,-0.023 0.038,-0.046 0.049,-0.068c0.01,-0.023 0.015,-0.045 0.015,-0.068c0,-0.032 -0.009,-0.059 -0.028,-0.079c-0.019,-0.021 -0.045,-0.031 -0.077,-0.031c-0.033,0 -0.059,0.011 -0.079,0.032c-0.019,0.021 -0.029,0.048 -0.029,0.083l-0.125,-0c0,-0.046 0.01,-0.086 0.03,-0.119c0.02,-0.034 0.048,-0.061 0.083,-0.08c0.035,-0.019 0.076,-0.028 0.123,-0.028c0.047,0 0.087,0.009 0.121,0.027c0.034,0.018 0.061,0.043 0.08,0.075c0.02,0.033 0.029,0.071 0.029,0.114c0,0.037 -0.009,0.074 -0.026,0.112c-0.018,0.037 -0.047,0.076 -0.088,0.116l-0.184,0.183l0.307,0l-0,0.113l-0.464,0Z" style="fill-rule:nonzero;"/></g><g transform="matrix(71.464,0,0,71.464,293.158,108.272)"><path d="M0.296,0.01c-0.071,0 -0.128,-0.019 -0.171,-0.057c-0.042,-0.037 -0.063,-0.088 -0.063,-0.153l0.125,0c-0,0.031 0.01,0.056 0.03,0.074c0.02,0.018 0.046,0.027 0.08,0.027c0.034,-0 0.06,-0.009 0.079,-0.028c0.019,-0.018 0.029,-0.044 0.029,-0.076l-0,-0.048c-0,-0.033 -0.01,-0.058 -0.028,-0.076c-0.019,-0.018 -0.045,-0.028 -0.079,-0.028l-0.211,0l-0,-0.375l0.416,0l0,0.113l-0.298,0l0.001,0.152l0.098,0c0.072,0 0.128,0.019 0.167,0.056c0.039,0.037 0.059,0.09 0.059,0.158l-0,0.048c-0,0.066 -0.021,0.118 -0.063,0.156c-0.041,0.038 -0.098,0.057 -0.171,0.057Z" style="fill-rule:nonzero;"/></g><g transform="matrix(71.464,0,0,71.464,336.037,108.272)"></g></svg>