<?xml version="1.0" encoding="UTF-8" standalone="no"?>
<!DOCTYPE svg PUBLIC "-//W3C//DTD SVG 1.1//EN" "http://www.w3.org/Graphics/SVG/1.1/DTD/svg11.dtd">
<svg width="100%" height="100%" viewBox="0 0 340 280" version="1.1" xmlns="http://www.w3.org/2000/svg" xmlns:xlink="http://www.w3.org/1999/xlink" xml:space="preserve" xmlns:serif="http://www.serif.com/" style="fill-rule:evenodd;clip-rule:evenodd;stroke-miterlimit:10;">
    <g transform="matrix(0.930731,0,0,0.930731,-69.3598,-90.4136)">
        <g transform="matrix(1,0,0,1,404.406,281.299)">
            <g id="Net">
                <path d="M0,-72.181L-18.667,-79.926L-16.663,-101.463L1.882,-93.784L0,-72.181ZM-1.892,-50.469L-20.661,-58.485L-18.86,-77.841L-0.183,-70.091L-1.892,-50.469ZM-3.638,-30.429L-22.512,-38.59L-20.855,-56.394L-2.074,-48.372L-3.638,-30.429ZM-5.166,-12.891L-24.146,-21.012L-22.707,-36.495L-3.821,-28.328L-5.166,-12.891ZM-6.852,6.456L-25.962,-1.503L-24.342,-18.92L-5.349,-10.794L-6.852,6.456ZM-8.884,29.785L-28.139,21.904L-26.155,0.583L-7.033,8.546L-8.884,29.785ZM-10.969,53.715L-30.387,46.062L-28.333,23.986L-9.065,31.872L-10.969,53.715ZM-32.324,45.298L-52.903,37.187L-50.297,14.996L-30.269,23.194L-32.324,45.298ZM-34.508,68.769L-55.69,60.906L-53.145,39.242L-32.518,47.373L-34.508,68.769ZM-57.619,60.189L-76.82,53.061L-74.092,30.986L-55.069,38.484L-57.619,60.189ZM-60.336,83.311C-66.316,80.677 -72.729,77.878 -79.524,74.942L-77.072,55.101L-57.859,62.233L-60.336,83.311ZM-62.277,99.838C-68.188,97.289 -74.68,94.511 -81.582,91.592L-79.78,77.01C-72.977,79.951 -66.558,82.756 -60.58,85.389L-62.277,99.838ZM-62.868,104.866C-69.773,103.704 -76.35,102.198 -82.677,100.449L-81.838,93.655C-74.924,96.582 -68.423,99.364 -62.521,101.91L-62.868,104.866ZM-102.336,82.913L-100.651,68.084C-94.057,70.875 -87.729,73.581 -81.693,76.184L-83.497,90.783C-89.523,88.24 -95.838,85.598 -102.336,82.913M-84.624,99.9C-91.161,98.027 -97.441,95.907 -103.556,93.653L-102.57,84.979C-96.077,87.665 -89.767,90.305 -83.752,92.845L-84.624,99.9ZM-125.009,73.682L-123.244,58.634C-116.116,61.581 -109.214,64.467 -102.571,67.272L-104.258,82.12C-111.036,79.325 -117.993,76.492 -125.009,73.682M-105.486,92.934C-112.468,90.316 -119.248,87.545 -125.969,84.795C-126.078,84.75 -126.188,84.705 -126.297,84.661L-125.25,75.739C-118.229,78.552 -111.27,81.389 -104.492,84.185L-105.486,92.934ZM-146.688,65.161L-145.053,50.081C-139.133,52.245 -133.537,54.396 -128.371,56.52C-127.298,56.962 -126.229,57.402 -125.164,57.84L-126.933,72.914C-133.514,70.286 -140.133,67.684 -146.688,65.161M-128.219,83.876C-134.657,81.244 -141.172,78.607 -147.877,76.124L-146.911,67.216C-140.36,69.741 -133.747,72.343 -127.174,74.969L-128.219,83.876ZM-169.044,56.794L-167.498,42.315C-160.361,44.668 -153.486,47.029 -146.988,49.379L-148.619,64.421C-155.554,61.762 -162.402,59.201 -169.044,56.794M-149.812,75.419C-156.425,73.013 -163.225,70.767 -170.331,68.841L-169.263,58.84C-162.62,61.251 -155.773,63.817 -148.842,66.475L-149.812,75.419ZM-193.303,48.442L-191.623,34.673C-184.057,36.983 -176.623,39.323 -169.44,41.674L-170.98,56.093C-178.8,53.279 -186.306,50.696 -193.303,48.442M-172.288,68.336C-179.564,66.439 -187.15,64.873 -195.18,63.819L-193.55,50.465C-186.542,52.727 -179.026,55.319 -171.199,58.14L-172.288,68.336ZM-206.029,44.553C-209.451,43.576 -212.931,42.662 -216.448,41.802L-214.632,27.845C-207.565,29.886 -200.515,31.97 -193.565,34.082L-195.242,47.822C-199.005,46.627 -202.617,45.528 -206.029,44.553M-197.166,63.587C-198.316,63.449 -199.46,63.304 -200.628,63.187C-207.007,62.549 -213.157,62.139 -219.065,61.913L-216.708,43.798C-213.29,44.636 -209.906,45.527 -206.579,46.477C-203.075,47.478 -199.363,48.608 -195.489,49.841L-197.166,63.587ZM-246.06,62.126L-242.215,38.575C-234.316,39.912 -226.404,41.482 -218.664,43.326L-221.073,61.842C-230,61.56 -238.352,61.7 -246.06,62.126M-271.55,64.745L-266.515,35.123C-259.211,35.977 -251.714,37.007 -244.187,38.245L-248.105,62.246C-256.809,62.791 -264.659,63.692 -271.55,64.745M-291.06,68.58L-285.06,33.262C-279.721,33.714 -274.177,34.253 -268.504,34.895L-273.635,65.072C-280.5,66.18 -286.343,67.424 -291.06,68.58M-300.388,30.154L-296.437,5.863C-292.158,6.941 -287.666,8.084 -283.014,9.278L-286.725,31.121C-291.47,30.734 -296.044,30.416 -300.388,30.154M-302.395,30.037C-308.534,29.686 -314.18,29.449 -319.172,29.29L-314.318,1.414C-309.465,2.606 -304.123,3.931 -298.384,5.373L-302.395,30.037ZM-308.694,-30.888L-293.41,-25.213L-298.062,3.392C-303.794,1.953 -309.129,0.63 -313.975,-0.56L-308.694,-30.888ZM-303.71,-59.516L-288.788,-53.635L-293.083,-27.225L-308.346,-32.892L-303.71,-59.516ZM-298.963,-86.784L-284.368,-80.81L-288.459,-55.655L-303.36,-61.528L-298.963,-86.784ZM-282.469,-80.033L-268.792,-74.435L-273.017,-49.568L-286.555,-54.905L-282.469,-80.033ZM-278.489,-104.505L-264.662,-98.747L-268.449,-76.455L-282.139,-82.058L-278.489,-104.505ZM-262.768,-97.958L-247.034,-91.405L-250.803,-69.233L-266.552,-75.679L-262.768,-97.958ZM-259.129,-119.374L-243.421,-112.653L-246.689,-93.429L-262.424,-99.981L-259.129,-119.374ZM-241.53,-111.844L-221.109,-103.107L-224.217,-84.07L-244.795,-92.639L-241.53,-111.844ZM-219.215,-102.297L-200.741,-94.393L-203.223,-75.326L-222.32,-83.28L-219.215,-102.297ZM-216.291,-120.207L-198.39,-112.466L-200.473,-96.453L-218.883,-104.33L-216.291,-120.207ZM-196.48,-111.64L-176.82,-103.139L-178.769,-87.167L-198.562,-95.636L-196.48,-111.64ZM-194.043,-130.366L-174.515,-122.025L-176.567,-105.209L-196.211,-113.703L-194.043,-130.366ZM-172.6,-121.207L-152.942,-112.811L-154.761,-95.779L-174.654,-104.381L-172.6,-121.207ZM-170.229,-140.642L-150.83,-132.594L-152.721,-114.89L-172.348,-123.274L-170.229,-140.642ZM-148.904,-131.795L-128.271,-123.234L-130.218,-105.279L-150.797,-114.069L-148.904,-131.795ZM-146.406,-155.181L-125.734,-146.622L-128.046,-125.306L-148.683,-133.869L-146.406,-155.181ZM-123.81,-145.825L-102.317,-136.927L-104.812,-115.667L-126.121,-124.508L-123.81,-145.825ZM-121.381,-168.223L-99.734,-158.946L-102.075,-138.991L-123.585,-147.896L-121.381,-168.223ZM-97.817,-158.124L-77.939,-149.605L-80.175,-129.923L-100.155,-138.196L-97.817,-158.124ZM-95.712,-176.078C-89.64,-173.632 -82.939,-170.921 -75.847,-168.033L-77.704,-151.68L-97.574,-160.196L-95.712,-176.078ZM-73.924,-167.249C-67.107,-164.47 -59.958,-161.538 -52.684,-158.531L-54.746,-141.84L-75.785,-150.857L-73.924,-167.249ZM-50.767,-157.738C-44.841,-155.284 -38.848,-152.787 -32.893,-150.284L-34.885,-133.328L-52.833,-141.02L-50.767,-157.738ZM-38.193,-88.027L-35.689,-109.34L-18.599,-102.264L-20.602,-80.728L-38.193,-88.027ZM-40.66,-67.028L-38.436,-85.962L-20.795,-78.643L-22.594,-59.311L-40.66,-67.028ZM-42.962,-47.433L-40.903,-64.957L-22.788,-57.22L-24.443,-39.426L-42.962,-47.433ZM-45.018,-29.942L-43.206,-45.36L-24.639,-37.331L-26.079,-21.838L-45.018,-29.942ZM-47.313,-10.396L-45.261,-27.87L-26.274,-19.747L-27.896,-2.309L-47.313,-10.396ZM-47.556,-8.33L-28.09,-0.223L-30.075,21.111L-50.055,12.934L-47.556,-8.33ZM-70.811,4.438L-68.172,-16.915L-49.476,-9.129L-51.976,12.147L-70.811,4.438ZM-71.065,6.496L-52.218,14.21L-54.828,36.429L-73.839,28.936L-71.065,6.496ZM-95.247,20.498L-92.653,-2.34L-72.982,5.711L-75.76,28.179L-95.247,20.498ZM-98.05,45.179L-95.48,22.556L-76.013,30.229L-78.747,52.346L-98.05,45.179ZM-98.283,47.226L-78.999,54.385L-81.438,74.117C-87.481,71.511 -93.817,68.803 -100.416,66.012L-98.283,47.226ZM-120.92,38.823L-100.213,46.509L-102.336,65.201C-108.979,62.397 -115.879,59.513 -123.002,56.571L-120.92,38.823ZM-142.945,30.646L-122.85,38.106L-124.923,55.778C-125.816,55.41 -126.711,55.041 -127.611,54.671C-132.936,52.482 -138.711,50.263 -144.831,48.033L-142.945,30.646ZM-165.144,20.271L-162.564,-3.885L-142.088,4.186L-144.657,27.877L-165.144,20.271ZM-165.363,22.323L-144.879,29.927L-146.767,47.334C-153.272,44.987 -160.146,42.631 -167.281,40.282L-165.363,22.323ZM-188.794,11.492L-185.8,-13.043L-164.494,-4.645L-167.078,19.553L-188.794,11.492ZM-189.043,13.532L-167.297,21.605L-169.224,39.643C-176.401,37.298 -183.824,34.963 -191.377,32.659L-189.043,13.532ZM-211.676,5.13L-190.971,12.817L-193.32,32.067C-200.267,29.959 -207.312,27.879 -214.371,25.84L-211.676,5.13ZM-239.002,18.9L-235.321,-3.649L-213.6,4.416L-216.315,25.279C-223.911,23.095 -231.51,20.963 -239.002,18.9M-239.326,20.884C-231.812,22.953 -224.191,25.093 -216.576,27.284L-218.404,41.332C-226.127,39.498 -234.018,37.935 -241.893,36.602L-239.326,20.884ZM-263.008,14.495C-255.945,16.364 -248.664,18.322 -241.266,20.352L-243.865,36.272C-251.388,35.036 -258.88,34.007 -266.179,33.151L-263.008,14.495ZM-281.07,9.778C-275.876,11.116 -270.485,12.52 -264.949,13.981L-268.169,32.923C-273.841,32.279 -279.384,31.739 -284.724,31.287L-281.07,9.778ZM-278.119,-19.536L-282.678,7.3C-287.336,6.104 -291.832,4.961 -296.116,3.882L-291.499,-24.504L-278.119,-19.536ZM-277.778,-21.543L-291.172,-26.516L-286.884,-52.884L-273.359,-47.554L-277.778,-21.543ZM-255.673,-40.583L-260.03,-14.954L-275.87,-20.835L-271.458,-46.805L-255.673,-40.583ZM-255.331,-42.598L-271.115,-48.819L-266.896,-73.659L-251.146,-67.212L-255.331,-42.598ZM-228.484,-57.936L-232.46,-33.583L-253.43,-41.848L-249.25,-66.436L-228.484,-57.936ZM-228.153,-59.962L-248.906,-68.456L-245.139,-90.616L-224.548,-82.041L-228.153,-59.962ZM-206.382,-51.051L-226.254,-59.185L-222.651,-81.251L-203.49,-73.271L-206.382,-51.051ZM-181.579,-64.146L-184.28,-42.005L-204.467,-50.267L-201.577,-72.474L-181.579,-64.146ZM-181.327,-66.207L-201.31,-74.53L-198.831,-93.575L-179.021,-85.1L-181.327,-66.207ZM-156.912,-75.64L-158.916,-56.874L-179.41,-65.409L-177.106,-84.281L-156.912,-75.64ZM-156.69,-77.721L-176.854,-86.348L-174.906,-102.311L-154.983,-93.696L-156.69,-77.721ZM-134.473,-66.04L-136.48,-47.53L-156.991,-56.072L-154.989,-74.818L-134.473,-66.04ZM-132.527,-83.985L-134.247,-68.119L-154.767,-76.898L-153.062,-92.865L-132.527,-83.985ZM-132.301,-86.067L-152.839,-94.948L-151.02,-111.99L-130.443,-103.202L-132.301,-86.067ZM-109.687,-74.108L-111.529,-58.399L-132.325,-67.296L-130.605,-83.154L-109.687,-74.108ZM-107.427,-93.37L-109.443,-76.182L-130.38,-85.236L-128.521,-102.38L-107.427,-93.37ZM-107.185,-95.441L-128.295,-104.458L-126.346,-122.435L-105.054,-113.602L-107.185,-95.441ZM-83.064,-104.478L-85.159,-86.034L-105.267,-94.622L-103.134,-112.805L-83.064,-104.478ZM-82.83,-106.547L-102.892,-114.87L-100.397,-136.132L-80.409,-127.856L-82.83,-106.547ZM-57.64,-118.428L-60.266,-97.185L-80.908,-105.749L-78.488,-127.06L-57.64,-118.428ZM-57.386,-120.488L-78.253,-129.127L-76.021,-148.783L-55.002,-139.775L-57.386,-120.488ZM-55.469,-119.694L-53.088,-138.954L-35.128,-131.257L-37.367,-112.199L-55.469,-119.694ZM-58.349,-96.389L-55.724,-117.635L-37.609,-110.135L-40.113,-88.824L-58.349,-96.389ZM-60.909,-75.676L-58.604,-94.33L-40.355,-86.759L-42.578,-67.847L-60.909,-75.676ZM-63.313,-56.234L-61.164,-73.611L-42.821,-65.776L-44.879,-48.262L-63.313,-56.234ZM-65.479,-38.696L-63.567,-54.165L-45.122,-46.189L-46.935,-30.762L-65.479,-38.696ZM-65.735,-36.63L-47.178,-28.691L-49.233,-11.195L-67.917,-18.976L-65.735,-36.63ZM-89.731,-28.061L-87.691,-46.025L-67.648,-37.449L-69.833,-19.774L-89.731,-28.061ZM-89.967,-25.993L-70.088,-17.713L-72.729,3.653L-92.419,-4.406L-89.967,-25.993ZM-114.775,-13.557L-112.229,-35.264L-91.888,-26.792L-94.341,-5.193L-114.775,-13.557ZM-117.731,11.636L-115.018,-11.494L-94.576,-3.127L-97.173,19.739L-117.731,11.636ZM-117.972,13.691L-97.406,21.797L-99.98,44.463L-120.681,36.778L-117.972,13.691ZM-140.158,4.946L-119.896,12.932L-122.609,36.062L-142.723,28.595L-140.158,4.946ZM-159.794,-29.822L-139.31,-21.437L-141.864,2.125L-162.344,-5.948L-159.794,-29.822ZM-161.5,-32.681L-182.361,-41.22L-179.661,-63.347L-159.138,-54.8L-161.5,-32.681ZM-139.085,-23.506L-159.573,-31.892L-157.212,-53.998L-136.705,-45.457L-139.085,-23.506ZM-116.939,-12.281L-119.655,10.878L-139.936,2.884L-137.383,-20.649L-116.939,-12.281ZM-114.149,-36.064L-116.697,-14.343L-137.159,-22.718L-134.78,-44.656L-114.149,-36.064ZM-113.907,-38.129L-134.556,-46.729L-132.551,-65.217L-111.772,-56.327L-113.907,-38.129ZM-89.61,-46.846L-91.653,-28.862L-111.987,-37.33L-109.854,-55.507L-89.61,-46.846ZM-87.599,-64.557L-89.375,-48.92L-109.612,-57.578L-107.771,-73.28L-87.599,-64.557ZM-87.363,-66.634L-107.527,-75.353L-105.51,-92.552L-85.396,-83.96L-87.363,-66.634ZM-65.48,-54.992L-67.394,-39.515L-87.456,-48.099L-85.681,-63.727L-65.48,-54.992ZM-83.24,-85.214L-81.144,-103.681L-60.52,-95.125L-62.822,-76.493L-83.24,-85.214ZM-63.078,-74.428L-65.225,-57.06L-85.445,-65.805L-83.477,-83.141L-63.078,-74.428ZM-182.612,-39.161L-161.721,-30.61L-164.273,-6.708L-185.55,-15.094L-182.612,-39.161ZM-207.898,-23.903L-204.734,-48.216L-184.532,-39.947L-187.472,-15.852L-207.898,-23.903ZM-208.164,-21.858L-187.722,-13.8L-190.721,10.776L-211.411,3.094L-208.164,-21.858ZM-230.556,-32.833L-226.584,-57.159L-206.649,-48.999L-209.816,-24.659L-230.556,-32.833ZM-230.886,-30.813L-210.083,-22.614L-213.335,2.381L-234.993,-5.66L-230.886,-30.813ZM-258.122,-14.246L-253.772,-39.834L-232.79,-31.564L-236.903,-6.369L-258.122,-14.246ZM-264.613,12.002C-270.149,10.541 -275.541,9.137 -280.734,7.799L-276.21,-18.828L-260.371,-12.948L-264.613,12.002ZM-258.463,-12.24L-237.231,-4.358L-240.942,18.369C-248.337,16.34 -255.614,14.383 -262.671,12.516L-258.463,-12.24ZM-16.639,-123.333L-18.404,-104.348L-35.447,-111.404L-33.211,-130.436L-16.639,-123.333ZM4.536,-92.685C3.874,-95.249 3.178,-97.79 2.45,-100.306L2.063,-95.873L-16.47,-103.547L-14.706,-122.505L-3.199,-117.574C-3.517,-118.44 -3.837,-119.304 -4.162,-120.161L-14.512,-124.597L-13.363,-136.939C-13.925,-137.772 -14.515,-138.625 -15.135,-139.497L-16.443,-125.425L-32.968,-132.507L-30.974,-149.476C-26.838,-147.735 -22.748,-145.998 -18.701,-144.271C-19.576,-145.385 -20.492,-146.514 -21.453,-147.652C-24.523,-148.957 -27.613,-150.265 -30.728,-151.576L-30.109,-156.833C-30.705,-157.397 -31.309,-157.958 -31.926,-158.516L-32.646,-152.383C-38.602,-154.884 -44.591,-157.378 -50.509,-159.827L-49.134,-170.952C-49.756,-171.299 -50.385,-171.64 -51.021,-171.975L-52.426,-160.619C-59.714,-163.63 -66.868,-166.561 -73.687,-169.338L-72.516,-179.649C-73.167,-179.78 -73.823,-179.905 -74.485,-180.02L-75.609,-170.12C-82.709,-173.008 -89.404,-175.714 -95.468,-178.153L-95.124,-181.084C-95.805,-181.036 -96.482,-180.98 -97.157,-180.916L-97.392,-178.926C-98.688,-179.447 -99.939,-179.949 -101.17,-180.443C-102.459,-180.26 -103.738,-180.05 -105.008,-179.813C-102.688,-178.883 -100.225,-177.894 -97.635,-176.852L-99.492,-161.017L-121.155,-170.302L-120.59,-175.522C-121.291,-175.268 -121.989,-175.007 -122.686,-174.74L-123.078,-171.125L-127.213,-172.898C-128.051,-172.538 -128.886,-172.172 -129.716,-171.795L-123.303,-169.047L-125.51,-148.694L-146.186,-157.254L-145.513,-163.553C-146.229,-163.136 -146.945,-162.716 -147.658,-162.292L-148.111,-158.051L-151.996,-159.66C-152.693,-159.228 -153.39,-158.795 -154.084,-158.36L-148.332,-155.978L-150.608,-134.667L-169.977,-142.703L-169.265,-148.543C-169.995,-148.065 -170.725,-147.588 -171.454,-147.113L-171.895,-143.499L-175.024,-144.798C-175.708,-144.357 -176.392,-143.918 -177.075,-143.483L-172.146,-141.438L-174.263,-124.092L-193.775,-132.426L-193.614,-133.661C-194.195,-133.351 -194.777,-133.045 -195.359,-132.744C-196.017,-132.403 -196.678,-132.083 -197.341,-131.775L-195.954,-131.182L-198.121,-114.529L-215.958,-122.243L-215.241,-126.638C-215.932,-126.532 -216.623,-126.43 -217.316,-126.337L-217.852,-123.061L-223.777,-125.624C-225.187,-125.496 -226.599,-125.383 -228.014,-125.277L-218.184,-121.026L-220.777,-105.14L-241.186,-113.872L-239.39,-124.435C-240.077,-124.377 -240.764,-124.316 -241.45,-124.251L-243.077,-114.681L-258.599,-121.323C-259.606,-121.043 -260.604,-120.745 -261.59,-120.427L-261.021,-120.183L-264.318,-100.77L-278.159,-106.535L-277.042,-113.402C-277.801,-112.949 -278.552,-112.483 -279.295,-112.004L-280.056,-107.325L-283.8,-108.884C-284.418,-108.424 -285.033,-107.96 -285.639,-107.483L-280.386,-105.295L-284.039,-82.836L-298.611,-88.801L-297.283,-96.429C-298.15,-95.449 -299.003,-94.454 -299.834,-93.435L-300.506,-89.577L-302.29,-90.306C-302.703,-89.758 -303.111,-89.204 -303.515,-88.647L-300.858,-87.559L-305.26,-62.277L-316.057,-66.532C-316.324,-65.922 -316.58,-65.306 -316.838,-64.691L-305.61,-60.265L-310.252,-33.6L-324.816,-39.006C-324.956,-38.346 -325.086,-37.684 -325.217,-37.022L-310.602,-31.596L-315.922,-1.037C-320.415,-2.138 -324.446,-3.114 -327.934,-3.952C-327.911,-3.258 -327.883,-2.566 -327.849,-1.874C-324.458,-1.059 -320.574,-0.118 -316.266,0.936L-321.191,29.228C-321.585,29.216 -321.961,29.208 -322.346,29.197C-322.126,29.872 -321.906,30.547 -321.673,31.214C-321.627,31.215 -321.584,31.215 -321.538,31.217L-321.581,31.465C-321.142,32.709 -320.676,33.933 -320.191,35.146L-319.518,31.278C-314.528,31.434 -308.874,31.67 -302.717,32.019L-307.12,59.09C-306.578,59.883 -306.034,60.674 -305.478,61.451L-300.71,32.135C-296.373,32.395 -291.802,32.713 -287.061,33.097L-293.179,69.111C-295.133,69.614 -296.849,70.09 -298.333,70.523C-297.104,71.949 -295.847,73.343 -294.561,74.703C-279.506,70.638 -245.623,63.715 -201.125,68.162C-173.327,70.942 -151.647,79.692 -128.823,89.029L-128.855,89.305L-127.862,89.422C-109.529,96.923 -90.758,104.59 -68.626,108.903C-66.055,107.705 -63.471,106.409 -60.871,105.006L-60.604,102.738C-59.876,103.052 -59.157,103.364 -58.448,103.671C-57.728,103.265 -57.007,102.851 -56.283,102.429C-57.606,101.856 -58.965,101.267 -60.361,100.665L-58.666,86.234C-52.81,88.82 -47.401,91.232 -42.474,93.446C-41.853,93.001 -41.229,92.551 -40.605,92.092C-45.971,89.679 -51.926,87.022 -58.422,84.156L-55.93,62.95L-34.7,70.832L-36.382,88.911C-35.661,88.353 -34.938,87.784 -34.214,87.209L-32.758,71.552L-21.508,75.729C-21.014,75.205 -20.531,74.672 -20.049,74.137L-32.565,69.491L-30.579,48.136L-11.15,55.795L-11.853,63.854C-11.064,62.732 -10.295,61.597 -9.548,60.447L-9.209,56.559L-7.525,57.222C-7.178,56.645 -6.842,56.06 -6.503,55.476L-9.028,54.48L-7.128,32.666L2.422,36.574C2.657,35.951 2.885,35.323 3.112,34.695L-6.945,30.578L-5.097,9.353L8.728,15.11C8.873,14.448 9.021,13.788 9.157,13.123L-4.914,7.262L-3.413,-9.966L11.772,-3.469C11.851,-4.161 11.923,-4.855 11.993,-5.549L-3.23,-12.063L-1.887,-27.493L12.988,-21.06C13.008,-21.779 13.023,-22.498 13.036,-23.218L-1.703,-29.592L-0.14,-47.546L12.617,-42.098C12.571,-42.843 12.523,-43.588 12.472,-44.334L0.043,-49.642L1.755,-69.287L10.054,-65.845C9.935,-66.618 9.813,-67.39 9.688,-68.161L1.937,-71.377L3.819,-92.982L4.536,-92.685Z" style="fill:rgb(255,247,152);fill-rule:nonzero;"/>
            </g>
        </g>
        <g id="Ball">
            <g transform="matrix(0,-1,-1,0,125.365,136.148)">
                <path d="M-20.601,-20.601C-9.224,-20.601 0,-11.378 0,0C0,11.378 -9.224,20.601 -20.601,20.601C-31.979,20.601 -41.202,11.378 -41.202,0C-41.202,-11.378 -31.979,-20.601 -20.601,-20.601" style="fill:white;fill-rule:nonzero;"/>
            </g>
            <g transform="matrix(0,-1,-1,0,125.365,136.148)">
                <circle cx="-20.601" cy="0" r="20.601" style="fill:none;stroke:rgb(26,46,53);stroke-width:1.07px;"/>
            </g>
            <g transform="matrix(1,0,0,1,105.163,152.027)">
                <path d="M0,8.762C0.512,8.824 0.889,8.684 0.889,8.684C0.691,4.524 2.474,0.364 2.474,0.364C2.121,-0.835 1.869,-3.188 1.753,-4.444C0.378,-1.683 -0.399,1.428 -0.399,4.722C-0.399,6.105 -0.26,7.455 0,8.762ZM36.842,-2.31L38.896,-3.936C37.091,-7.825 34.111,-11.054 30.409,-13.17L28.72,-13.403C28.72,-13.403 30.503,-9.441 30.206,-8.154C30.206,-8.154 34.663,-5.083 36.842,-2.31ZM13.368,-13.304C13.368,-13.304 16.148,-14.912 19.759,-15.868C15.87,-15.785 12.249,-14.627 9.177,-12.676C10.448,-13.01 11.963,-13.304 13.368,-13.304ZM19.212,20.866C19.212,20.866 13.071,16.31 11.585,14.824C11.585,14.824 6.336,15.716 4.95,15.716C4.95,15.716 5.94,19.182 7.921,21.559C7.921,21.559 11.883,24.432 16.438,24.63L19.212,20.866ZM37.04,6.01L29.611,9.278C29.611,9.278 27.729,16.211 27.333,17.895C27.333,17.895 31.295,19.381 33.474,19.48C33.474,19.48 37.535,15.22 38.525,12.348C38.525,12.348 37.832,7.495 37.04,6.01ZM23.372,-5.479L22.777,3.732L13.17,6.307L8.614,-1.023L14.359,-8.451L23.372,-5.479Z" style="fill:rgb(26,46,53);fill-rule:nonzero;stroke:rgb(26,46,53);stroke-width:1.07px;"/>
            </g>
            <g transform="matrix(0.200075,0.979781,0.979781,-0.200075,121.305,140.178)">
                <path d="M-1.981,-2.427L2.972,-2.427" style="fill:none;fill-rule:nonzero;stroke:rgb(26,46,53);stroke-width:1.07px;"/>
            </g>
            <g transform="matrix(0.931251,-0.364379,-0.364379,-0.931251,129.257,147.701)">
                <path d="M-0.252,1.337L7.086,1.337" style="fill:none;fill-rule:nonzero;stroke:rgb(26,46,53);stroke-width:1.07px;"/>
            </g>
            <g transform="matrix(0.0237913,0.999717,0.999717,-0.0237913,146.405,153.53)">
                <path d="M-3.917,-4.308C-3.917,-4.308 -0.142,-3.903 4.405,-4.308" style="fill:none;fill-rule:nonzero;stroke:rgb(26,46,53);stroke-width:1.07px;"/>
            </g>
            <g transform="matrix(0.776482,0.630139,0.630139,-0.776482,130.452,154.225)">
                <path d="M-0.984,-2.773L7.818,-2.773" style="fill:none;fill-rule:nonzero;stroke:rgb(26,46,53);stroke-width:1.07px;"/>
            </g>
            <g transform="matrix(-0.182936,0.983125,0.983125,0.182936,121.583,164.151)">
                <path d="M-5.125,-4.259L3.54,-4.259" style="fill:none;fill-rule:nonzero;stroke:rgb(26,46,53);stroke-width:1.07px;"/>
            </g>
            <g transform="matrix(0.93914,-0.343534,-0.343534,-0.93914,125.132,174.197)">
                <path d="M-0.263,1.485C-0.263,1.485 6.928,0.963 8.385,1.485" style="fill:none;fill-rule:nonzero;stroke:rgb(26,46,53);stroke-width:1.07px;"/>
            </g>
            <g transform="matrix(0.97543,-0.22031,-0.22031,-0.97543,107.865,153.05)">
                <path d="M-0.077,0.694L6.218,0.694" style="fill:none;fill-rule:nonzero;stroke:rgb(26,46,53);stroke-width:1.07px;"/>
            </g>
            <g transform="matrix(0.500099,0.865968,0.865968,-0.500099,110.112,160.71)">
                <path d="M-2.03,-3.516C-2.03,-3.516 2.045,-4.382 6.091,-3.516" style="fill:none;fill-rule:nonzero;stroke:rgb(26,46,53);stroke-width:1.07px;"/>
            </g>
        </g>
        <g id="Character">
            <g transform="matrix(1,0,0,1,356.059,376.962)">
                <path d="M0,-37.581C0,-37.581 19.449,-31.977 25.713,-29.01C31.977,-26.043 53.733,-12.857 58.019,-9.56C62.305,-6.265 65.601,3.296 68.567,7.251C71.534,11.207 77.139,20.768 80.435,17.141C83.731,13.515 80.435,3.625 77.798,-1.319C75.16,-6.265 70.216,-8.901 68.238,-11.539C66.26,-14.176 58.349,-25.384 51.426,-34.944C44.503,-44.504 39.559,-49.448 32.965,-52.086C26.372,-54.723 20.109,-54.393 18.461,-54.723C16.812,-55.053 10.549,-58.349 10.549,-58.349C10.549,-58.349 5.604,-40.548 0,-37.581" style="fill:white;fill-rule:nonzero;"/>
            </g>
            <g>
                <clipPath id="_clip1">
                    <path d="M356.059,339.381C356.059,339.381 375.508,344.986 381.772,347.952C388.035,350.919 409.792,364.105 414.077,367.401C418.363,370.697 421.659,380.258 424.626,384.213C427.593,388.169 433.197,397.729 436.493,394.102C439.79,390.476 436.493,380.587 433.857,375.643C431.219,370.697 426.274,368.061 424.297,365.423C422.319,362.786 414.407,351.578 407.484,342.018C400.561,332.458 395.617,327.514 389.023,324.876C382.431,322.239 376.168,322.569 374.52,322.239C372.871,321.909 366.608,318.613 366.608,318.613C366.608,318.613 361.663,336.414 356.059,339.381Z" clip-rule="nonzero"/>
                </clipPath>
                <g clip-path="url(#_clip1)">
                    <g opacity="0.2">
                        <g transform="matrix(1,0,0,1,424.297,350.919)">
                            <path d="M0,14.504C-1.979,11.867 -9.89,0.659 -16.812,-8.901C-23.735,-18.461 -28.68,-23.405 -35.273,-26.043C-41.866,-28.68 -48.129,-28.35 -49.777,-28.68C-51.426,-29.01 -57.689,-32.306 -57.689,-32.306C-57.689,-32.306 -58.549,-29.218 -59.953,-25.401C-56.342,-24.217 -51.868,-22.743 -46.974,-21.111C-34.862,-17.074 -15.297,-0.614 -12.813,4.355C-10.922,8.136 -21.797,5.803 -29.705,4.198C-21.669,8.956 -12.793,14.502 -10.22,16.483C-5.934,19.778 -2.638,29.339 0.329,33.294C3.296,37.25 8.9,46.81 12.196,43.184C15.493,39.558 12.196,29.668 9.56,24.724C6.922,19.778 1.978,17.142 0,14.504" style="fill-rule:nonzero;"/>
                        </g>
                    </g>
                </g>
            </g>
            <g transform="matrix(1,0,0,1,356.059,376.962)">
                <path d="M0,-37.581C0,-37.581 19.449,-31.977 25.713,-29.01C31.977,-26.043 53.733,-12.857 58.019,-9.56C62.305,-6.265 65.601,3.296 68.567,7.251C71.534,11.207 77.139,20.768 80.435,17.141C83.731,13.515 80.435,3.625 77.798,-1.319C75.16,-6.265 70.216,-8.901 68.238,-11.539C66.26,-14.176 58.349,-25.384 51.426,-34.944C44.503,-44.504 39.559,-49.448 32.965,-52.086C26.372,-54.723 20.109,-54.393 18.461,-54.723C16.812,-55.053 10.549,-58.349 10.549,-58.349C10.549,-58.349 5.604,-40.548 0,-37.581Z" style="fill:none;fill-rule:nonzero;stroke:rgb(26,46,53);stroke-width:1.07px;stroke-linecap:round;stroke-linejoin:round;"/>
            </g>
            <g transform="matrix(1,0,0,1,424.297,362.393)">
                <path d="M0,3.03C-1.979,0.393 -9.89,-10.815 -16.812,-20.375C-20.606,-25.614 -23.806,-29.459 -27.008,-32.306C-26.958,-30.862 -26.959,-29.309 -27.031,-27.627C-27.449,-18.021 -33.817,-13.974 -38.432,-12.296C-29.708,-7.484 -13.815,2.242 -10.22,5.009C-5.934,8.304 -2.638,17.865 0.329,21.82C3.296,25.776 8.9,35.336 12.196,31.71C15.493,28.084 12.196,18.194 9.56,13.25C6.922,8.304 1.978,5.668 0,3.03" style="fill:white;fill-rule:nonzero;"/>
            </g>
            <g transform="matrix(1,0,0,1,424.297,362.393)">
                <path d="M0,3.03C-1.979,0.393 -9.89,-10.815 -16.812,-20.375C-20.606,-25.614 -23.806,-29.459 -27.008,-32.306C-26.958,-30.862 -26.959,-29.309 -27.031,-27.627C-27.449,-18.021 -33.817,-13.974 -38.432,-12.296C-29.708,-7.484 -13.815,2.242 -10.22,5.009C-5.934,8.304 -2.638,17.865 0.329,21.82C3.296,25.776 8.9,35.336 12.196,31.71C15.493,28.084 12.196,18.194 9.56,13.25C6.922,8.304 1.978,5.668 0,3.03Z" style="fill:none;fill-rule:nonzero;stroke:rgb(26,46,53);stroke-width:1.07px;stroke-linecap:round;stroke-linejoin:round;"/>
            </g>
            <g transform="matrix(1,0,0,1,424.297,362.393)">
                <path d="M0,3.03C-1.979,0.393 -9.89,-10.815 -16.812,-20.375C-20.606,-25.614 -23.806,-29.459 -27.008,-32.306C-26.958,-30.862 -26.959,-29.309 -27.031,-27.627C-27.449,-18.021 -33.817,-13.974 -38.432,-12.296C-29.708,-7.484 -13.815,2.242 -10.22,5.009C-5.934,8.304 -2.638,17.865 0.329,21.82C3.296,25.776 8.9,35.336 12.196,31.71C15.493,28.084 12.196,18.194 9.56,13.25C6.922,8.304 1.978,5.668 0,3.03" style="fill:rgb(138,255,178);fill-rule:nonzero;"/>
            </g>
            <g>
                <clipPath id="_clip2">
                    <path d="M397.265,334.765C396.848,344.372 390.479,348.419 385.865,350.097C394.589,354.909 410.481,364.635 414.077,367.401C418.363,370.697 421.659,380.258 424.626,384.213C427.593,388.169 433.197,397.729 436.493,394.102C439.79,390.476 436.493,380.587 433.857,375.643C431.219,370.697 426.274,368.061 424.297,365.423C422.319,362.786 414.407,351.578 407.484,342.018C403.69,336.78 400.491,332.934 397.289,330.087C397.339,331.532 397.338,333.084 397.265,334.765Z" clip-rule="nonzero"/>
                </clipPath>
                <g clip-path="url(#_clip2)">
                    <g opacity="0.2">
                        <g transform="matrix(1,0,0,1,433.856,352.173)">
                            <path d="M0,23.47C-2.638,18.525 -7.582,15.888 -9.56,13.25C-11.538,10.614 -19.449,-0.594 -26.372,-10.155C-26.829,-10.785 -27.275,-11.393 -27.716,-11.984C-27.831,-12.138 -27.943,-12.284 -28.058,-12.436C-28.384,-12.87 -28.709,-13.301 -29.027,-13.713C-29.147,-13.869 -29.265,-14.016 -29.384,-14.169C-29.695,-14.568 -30.006,-14.963 -30.311,-15.343C-30.421,-15.479 -30.53,-15.611 -30.64,-15.746C-30.952,-16.13 -31.263,-16.507 -31.569,-16.87C-31.666,-16.984 -31.763,-17.096 -31.859,-17.21C-32.18,-17.584 -32.497,-17.949 -32.813,-18.301C-32.894,-18.391 -32.974,-18.48 -33.054,-18.569C-33.388,-18.938 -33.721,-19.298 -34.052,-19.643C-34.111,-19.706 -34.171,-19.769 -34.231,-19.832C-34.588,-20.201 -34.942,-20.557 -35.296,-20.9C-35.331,-20.934 -35.365,-20.969 -35.4,-21.003C-35.789,-21.378 -36.178,-21.739 -36.565,-22.084L-36.567,-22.086C-36.518,-20.641 -36.519,-19.089 -36.591,-17.407C-36.69,-15.128 -37.133,-13.171 -37.799,-11.475C-30.221,-5.789 -23.732,0.379 -22.372,3.101C-20.481,6.882 -31.356,4.549 -39.265,2.945L-39.235,2.962C-38.781,3.231 -38.325,3.501 -37.868,3.775L-37.637,3.912C-36.688,4.479 -35.733,5.052 -34.785,5.625C-34.72,5.665 -34.655,5.704 -34.59,5.743C-34.144,6.014 -33.699,6.283 -33.258,6.553C-33.228,6.572 -33.197,6.589 -33.167,6.608C-32.687,6.901 -32.211,7.192 -31.739,7.481L-31.634,7.545C-31.197,7.814 -30.765,8.079 -30.338,8.344C-30.289,8.373 -30.241,8.404 -30.192,8.433C-29.737,8.715 -29.288,8.994 -28.847,9.269C-28.827,9.281 -28.809,9.292 -28.789,9.305C-28.387,9.556 -27.993,9.802 -27.606,10.045C-27.526,10.096 -27.446,10.146 -27.367,10.196C-26.559,10.704 -25.787,11.194 -25.062,11.658C-24.983,11.709 -24.906,11.759 -24.828,11.809C-24.521,12.007 -24.221,12.2 -23.932,12.389C-23.884,12.42 -23.833,12.452 -23.785,12.484C-23.458,12.697 -23.146,12.902 -22.846,13.099C-22.785,13.14 -22.728,13.178 -22.668,13.218C-22.421,13.381 -22.186,13.538 -21.96,13.69C-21.903,13.728 -21.846,13.767 -21.79,13.805C-21.529,13.981 -21.282,14.15 -21.054,14.308C-21.019,14.332 -20.988,14.355 -20.953,14.378C-20.765,14.51 -20.59,14.634 -20.427,14.751C-20.375,14.788 -20.323,14.825 -20.274,14.861C-20.093,14.992 -19.923,15.118 -19.779,15.229C-15.493,18.525 -12.197,28.085 -9.23,32.04C-6.264,35.996 -0.659,45.556 2.637,41.93C3.461,41.024 3.873,39.726 3.986,38.211C4.326,33.668 1.978,27.178 0,23.47" style="fill-rule:nonzero;"/>
                        </g>
                    </g>
                </g>
            </g>
            <g transform="matrix(1,0,0,1,424.297,362.393)">
                <path d="M0,3.03C-1.979,0.393 -9.89,-10.815 -16.812,-20.375C-20.606,-25.614 -23.806,-29.459 -27.008,-32.306C-26.958,-30.862 -26.959,-29.309 -27.031,-27.627C-27.449,-18.021 -33.817,-13.974 -38.432,-12.296C-29.708,-7.484 -13.815,2.242 -10.22,5.009C-5.934,8.304 -2.638,17.865 0.329,21.82C3.296,25.776 8.9,35.336 12.196,31.71C15.493,28.084 12.196,18.194 9.56,13.25C6.922,8.304 1.978,5.668 0,3.03Z" style="fill:none;fill-rule:nonzero;stroke:rgb(26,46,53);stroke-width:1.07px;stroke-linecap:round;stroke-linejoin:round;"/>
            </g>
            <g transform="matrix(1,0,0,1,424.956,390.147)">
                <path d="M0,-17.142C-1.009,-14.52 -4.607,-16.464 -7.25,-18.369C-4.634,-14.182 -2.4,-8.695 -0.33,-5.934C2.637,-1.978 8.241,7.582 11.537,3.956C14.834,0.33 11.537,-9.56 8.9,-14.504C6.263,-19.45 1.318,-22.086 -0.659,-24.724C-0.659,-24.724 1.648,-21.427 0,-17.142" style="fill:rgb(26,46,53);fill-rule:nonzero;"/>
            </g>
            <g transform="matrix(1,0,0,1,424.956,390.147)">
                <path d="M0,-17.142C-1.009,-14.52 -4.607,-16.464 -7.25,-18.369C-4.634,-14.182 -2.4,-8.695 -0.33,-5.934C2.637,-1.978 8.241,7.582 11.537,3.956C14.834,0.33 11.537,-9.56 8.9,-14.504C6.263,-19.45 1.318,-22.086 -0.659,-24.724C-0.659,-24.724 1.648,-21.427 0,-17.142Z" style="fill:none;fill-rule:nonzero;stroke:rgb(26,46,53);stroke-width:1.07px;stroke-linecap:round;stroke-linejoin:round;"/>
            </g>
            <g transform="matrix(1,0,0,1,311.227,350.589)">
                <path d="M0,-0.989C0,-0.989 18.46,14.175 29.009,16.154C39.558,18.131 42.195,7.582 45.162,-0.659C48.129,-8.9 48.458,-16.482 48.458,-16.482L38.898,-19.12C38.898,-19.12 36.262,-13.845 33.624,-12.197C30.987,-10.549 26.042,-15.164 22.746,-14.175C19.449,-13.185 5.274,-2.636 0,-0.989" style="fill:white;fill-rule:nonzero;"/>
            </g>
            <g>
                <clipPath id="_clip3">
                    <path d="M344.85,338.392C343.459,339.262 341.424,338.387 339.328,337.513C337.453,336.73 335.529,335.948 333.973,336.414C330.676,337.403 316.501,347.952 311.226,349.599C311.226,349.599 329.686,364.763 340.235,366.742C350.784,368.72 353.422,358.171 356.388,349.93C359.356,341.688 359.685,334.107 359.685,334.107L350.125,331.469C350.125,331.469 347.488,336.744 344.85,338.392Z" clip-rule="nonzero"/>
                </clipPath>
                <g clip-path="url(#_clip3)">
                    <g opacity="0.2">
                        <g transform="matrix(1,0,0,1,311.227,350.589)">
                            <path d="M0,-0.989C0,-0.989 18.46,14.175 29.009,16.154C39.558,18.131 42.195,7.582 45.162,-0.659C48.129,-8.9 48.458,-16.482 48.458,-16.482L38.898,-19.12C38.898,-19.12 36.262,-13.845 33.624,-12.197C30.987,-10.549 26.042,-15.164 22.746,-14.175C19.449,-13.185 5.274,-2.636 0,-0.989" style="fill-rule:nonzero;"/>
                        </g>
                    </g>
                    <g transform="matrix(0.221548,0.975149,0.975149,-0.221548,350.741,350.293)">
                        <path d="M-2.542,-3.185C-2.542,-3.185 -0.875,-2.377 3.989,-3.185" style="fill:none;fill-rule:nonzero;stroke:rgb(26,46,53);stroke-width:1.07px;stroke-linecap:round;stroke-linejoin:round;"/>
                    </g>
                </g>
            </g>
            <g transform="matrix(1,0,0,1,311.227,350.589)">
                <path d="M0,-0.989C0,-0.989 18.46,14.175 29.009,16.154C39.558,18.131 42.195,7.582 45.162,-0.659C48.129,-8.9 48.458,-16.482 48.458,-16.482L38.898,-19.12C38.898,-19.12 36.262,-13.845 33.624,-12.197C30.987,-10.549 26.042,-15.164 22.746,-14.175C19.449,-13.185 5.274,-2.636 0,-0.989Z" style="fill:none;fill-rule:nonzero;stroke:rgb(26,46,53);stroke-width:1.07px;stroke-linecap:round;stroke-linejoin:round;"/>
            </g>
            <g transform="matrix(1,0,0,1,271.998,327.842)">
                <path d="M0,-17.47C0,-17.47 7.252,-6.592 9.56,-3.295C11.867,0.001 34.283,26.373 34.283,26.373C34.283,26.373 38.898,27.032 47.799,24.065C56.7,21.098 63.952,13.516 63.952,13.516L72.523,21.098C72.523,21.098 82.742,18.462 89.994,12.198C97.247,5.934 98.235,-10.877 98.235,-10.877C98.235,-10.877 82.083,-22.415 76.479,-28.349C70.875,-34.282 59.337,-40.875 53.733,-42.195C48.129,-43.513 42.854,-44.502 42.854,-44.502C42.854,-44.502 37.58,-33.623 29.009,-28.349C20.438,-23.074 13.845,-22.085 9.56,-21.097C5.274,-20.108 -0.33,-21.426 0,-17.47" style="fill:rgb(138,255,178);fill-rule:nonzero;"/>
            </g>
            <g>
                <clipPath id="_clip4">
                    <path d="M301.007,299.493C292.436,304.768 285.843,305.757 281.558,306.745C277.273,307.735 271.668,306.416 271.998,310.372C271.998,310.372 279.25,321.25 281.558,324.547C283.865,327.843 306.281,354.214 306.281,354.214C306.281,354.214 310.897,354.874 319.797,351.907C328.698,348.94 335.95,341.359 335.95,341.359L344.522,348.94C344.522,348.94 354.74,346.303 361.993,340.04C369.245,333.776 370.233,316.965 370.233,316.965C370.233,316.965 354.081,305.427 348.476,299.493C342.873,293.56 331.335,286.966 325.732,285.648C320.127,284.329 314.852,283.339 314.852,283.339C314.852,283.339 309.578,294.219 301.007,299.493Z" clip-rule="nonzero"/>
                </clipPath>
                <g clip-path="url(#_clip4)">
                    <g opacity="0.2">
                        <g transform="matrix(1,0,0,1,318.809,308.423)">
                            <path d="M0,20.739L5.978,24.992C6.531,25.14 6.851,25.222 6.851,25.222L0,20.739ZM-10.74,18.9C-15.709,15.795 -19.746,14.241 -19.746,14.241C-19.746,14.241 -11.672,20.763 -4.84,24.179C1.992,27.595 6.962,29.769 6.962,29.769L-9.498,30.08L6.651,36.291C6.651,36.291 -5.04,43.825 -10.124,45.822C-7.912,45.708 -4.194,45.212 0.988,43.484C9.89,40.517 17.142,32.935 17.142,32.935L5.978,24.992C3.038,24.204 -6.56,21.512 -10.74,18.9M41.434,21.385L47.645,20.763L44.85,19.211C44.85,19.211 42.055,17.347 36.775,14.241C31.496,11.135 16.278,1.509 16.278,1.509L32.117,7.409C32.117,7.409 20.937,-1.286 10.378,-8.118C-0.182,-14.951 -5.771,-13.399 -5.771,-13.399L-8.029,-18.478C-5.41,-22.087 -3.956,-25.083 -3.956,-25.083C-3.956,-25.083 1.318,-24.094 6.922,-22.776C12.526,-21.456 24.064,-14.864 29.668,-8.93C35.272,-2.996 51.425,8.542 51.425,8.542C51.425,8.542 50.865,18.051 47.502,25.43L41.434,21.385Z" style="fill-rule:nonzero;"/>
                        </g>
                    </g>
                </g>
            </g>
            <g transform="matrix(1,0,0,1,271.998,327.842)">
                <path d="M0,-17.47C0,-17.47 7.252,-6.592 9.56,-3.295C11.867,0.001 34.283,26.373 34.283,26.373C34.283,26.373 38.898,27.032 47.799,24.065C56.7,21.098 63.952,13.516 63.952,13.516L72.523,21.098C72.523,21.098 82.742,18.462 89.994,12.198C97.247,5.934 98.235,-10.877 98.235,-10.877C98.235,-10.877 82.083,-22.415 76.479,-28.349C70.875,-34.282 59.337,-40.875 53.733,-42.195C48.129,-43.513 42.854,-44.502 42.854,-44.502C42.854,-44.502 37.58,-33.623 29.009,-28.349C20.438,-23.074 13.845,-22.085 9.56,-21.097C5.274,-20.108 -0.33,-21.426 0,-17.47Z" style="fill:none;fill-rule:nonzero;stroke:rgb(26,46,53);stroke-width:1.07px;stroke-linecap:round;stroke-linejoin:round;"/>
            </g>
            <g transform="matrix(1,0,0,1,334.857,320.75)">
                <path d="M0,-25.333C-6.82,-28.743 -18.129,-30.068 -24.261,-30.555C-25.157,-29.334 -26.185,-28.053 -27.331,-26.796C-23.016,-26.546 -9.132,-25.477 -1.77,-21.795C1.576,-20.123 6.156,-15.939 11.006,-11.512C18.221,-4.922 26.29,2.437 34.016,5.222C34.335,3.819 34.583,2.485 34.774,1.292C27.974,-1.376 20.432,-8.261 13.673,-14.433C8.396,-19.252 3.837,-23.414 0,-25.333" style="fill:rgb(26,46,53);fill-rule:nonzero;"/>
            </g>
            <g transform="matrix(1,0,0,1,240.22,263.763)">
                <path d="M0,-28.221C0,-28.221 -9.139,-30.371 -14.245,-30.371L-27.953,-30.371L-49.186,-40.585L-71.225,-77.675L-79.557,-72.569C-79.557,-72.569 -70.957,-52.142 -68.806,-43.272C-66.656,-34.403 -57.518,-23.921 -56.711,-23.383C-55.905,-22.846 -39.241,-15.32 -30.64,-12.095C-22.04,-8.869 -8.063,-3.763 -8.063,-3.763C-8.063,-3.763 5.644,11.826 10.482,18.815C15.32,25.803 24.996,40.854 26.877,44.079C28.758,47.305 34.94,49.454 38.166,48.379C41.391,47.305 48.379,44.348 53.217,44.348C58.055,44.348 66.118,41.929 70.687,38.166C75.256,34.404 78.75,24.19 77.675,21.234C76.6,18.277 74.181,16.664 72.031,13.17C69.881,9.676 56.442,-17.47 56.442,-17.47C56.442,-17.47 73.106,-17.47 88.695,-22.846L83.588,-14.513L94.339,-10.213C94.339,-10.213 106.434,-22.846 108.853,-29.296C111.272,-35.746 112.347,-43.81 110.197,-44.885C108.046,-45.96 102.403,-44.616 96.758,-44.078C91.114,-43.541 73.913,-39.778 68.806,-39.778C63.699,-39.778 49.992,-41.659 44.347,-39.51C38.704,-37.359 30.64,-33.059 26.339,-31.984C22.04,-30.909 18.277,-29.834 16.126,-29.834C13.976,-29.834 0,-28.221 0,-28.221" style="fill:white;fill-rule:nonzero;"/>
            </g>
            <g>
                <clipPath id="_clip5">
                    <path d="M160.663,191.194C160.663,191.194 169.264,211.62 171.414,220.491C173.564,229.36 182.703,239.842 183.509,240.38C184.315,240.917 200.979,248.443 209.58,251.668C218.181,254.894 232.157,260 232.157,260C232.157,260 245.865,275.589 250.702,282.577C255.54,289.566 265.216,304.616 267.098,307.842C268.978,311.068 275.16,313.217 278.385,312.141C281.611,311.068 288.599,308.11 293.438,308.11C298.275,308.11 306.337,305.692 310.907,301.929C315.477,298.166 318.971,287.952 317.895,284.996C316.821,282.039 314.401,280.427 312.251,276.932C310.101,273.439 296.663,246.293 296.663,246.293C296.663,246.293 313.326,246.293 328.915,240.917L323.808,249.249L334.56,253.549C334.56,253.549 346.654,240.917 349.073,234.467C351.492,228.016 352.568,219.952 350.417,218.878C348.267,217.802 342.623,219.147 336.979,219.684C331.334,220.221 314.132,223.984 309.027,223.984C303.919,223.984 290.212,222.103 284.567,224.253C278.923,226.404 270.86,230.704 266.559,231.778C262.26,232.854 258.497,233.928 256.347,233.928C254.196,233.928 240.22,235.541 240.22,235.541C240.22,235.541 231.081,233.391 225.975,233.391L212.268,233.391L191.035,223.178L168.995,186.087L160.663,191.194Z" clip-rule="nonzero"/>
                </clipPath>
                <g clip-path="url(#_clip5)">
                    <g opacity="0.2">
                        <g transform="matrix(1,0,0,1,350.417,312.388)">
                            <path d="M0,-93.511C-0.129,-93.575 -0.272,-93.631 -0.427,-93.678C-0.357,-93.032 -0.431,-92.245 -0.733,-91.277C-2.286,-86.308 -13.777,-63.948 -13.777,-63.948C-13.777,-63.948 -13.55,-63.004 -13.191,-61.73C-9.485,-65.846 -3.039,-73.4 -1.344,-77.922C1.075,-84.373 2.15,-92.436 0,-93.511M-73.715,-67.053C-73.715,-67.053 -65.951,-62.084 -63.156,-60.22C-60.361,-58.357 -42.038,-33.202 -42.038,-33.202L-68.125,-45.935L-37.069,-24.817L-73.094,-32.27L-35.827,-20.159L-64.088,-21.712C-64.088,-21.712 -33.653,-18.606 -36.759,-15.189C-39.864,-11.773 -46.075,-8.668 -53.528,-8.357C-60.982,-8.047 -69.988,-12.394 -69.988,-12.394C-69.988,-12.394 -60.982,-6.494 -64.398,-6.183C-67.814,-5.873 -76.199,-2.767 -80.858,-8.357C-85.517,-13.947 -115.02,-54.01 -115.02,-54.01L-127.131,-62.084L-125.268,-58.668C-125.268,-58.668 -161.914,-71.091 -167.193,-76.37C-170.02,-79.196 -175.336,-87.36 -179.668,-94.339C-179.409,-93.459 -179.182,-92.636 -179.003,-91.898C-176.853,-83.029 -167.714,-72.547 -166.908,-72.009C-166.102,-71.471 -149.438,-63.946 -140.837,-60.72C-132.236,-57.495 -118.26,-52.388 -118.26,-52.388C-118.26,-52.388 -104.553,-36.8 -99.715,-29.811C-94.877,-22.823 -85.201,-7.772 -83.319,-4.547C-81.438,-1.322 -75.257,0.828 -72.031,-0.247C-68.806,-1.322 -61.817,-4.278 -56.979,-4.278C-52.142,-4.278 -44.079,-6.697 -39.51,-10.46C-34.94,-14.222 -31.446,-24.436 -32.521,-27.392C-33.597,-30.349 -36.016,-31.962 -38.166,-35.456C-40.315,-38.95 -53.755,-66.096 -53.755,-66.096C-53.755,-66.096 -37.11,-66.096 -21.529,-71.462C-20.781,-73.181 -20.299,-74.817 -20.299,-74.817L-19.057,-77.923C-19.057,-77.923 -35.517,-69.537 -44.833,-69.227C-54.149,-68.916 -73.715,-67.053 -73.715,-67.053M-23.528,-68.164L-21.585,-71.335C-22.126,-70.111 -22.8,-68.875 -23.528,-68.164" style="fill-rule:nonzero;"/>
                        </g>
                    </g>
                </g>
            </g>
            <g transform="matrix(1,0,0,1,240.22,263.763)">
                <path d="M0,-28.221C0,-28.221 -9.139,-30.371 -14.245,-30.371L-27.953,-30.371L-49.186,-40.585L-71.225,-77.675L-79.557,-72.569C-79.557,-72.569 -70.957,-52.142 -68.806,-43.272C-66.656,-34.403 -57.518,-23.921 -56.711,-23.383C-55.905,-22.846 -39.241,-15.32 -30.64,-12.095C-22.04,-8.869 -8.063,-3.763 -8.063,-3.763C-8.063,-3.763 5.644,11.826 10.482,18.815C15.32,25.803 24.996,40.854 26.877,44.079C28.758,47.305 34.94,49.454 38.166,48.379C41.391,47.305 48.379,44.348 53.217,44.348C58.055,44.348 66.118,41.929 70.687,38.166C75.256,34.404 78.75,24.19 77.675,21.234C76.6,18.277 74.181,16.664 72.031,13.17C69.881,9.676 56.442,-17.47 56.442,-17.47C56.442,-17.47 73.106,-17.47 88.695,-22.846L83.588,-14.513L94.339,-10.213C94.339,-10.213 106.434,-22.846 108.853,-29.296C111.272,-35.746 112.347,-43.81 110.197,-44.885C108.046,-45.96 102.403,-44.616 96.758,-44.078C91.114,-43.541 73.913,-39.778 68.806,-39.778C63.699,-39.778 49.992,-41.659 44.347,-39.51C38.704,-37.359 30.64,-33.059 26.339,-31.984C22.04,-30.909 18.277,-29.834 16.126,-29.834C13.976,-29.834 0,-28.221 0,-28.221Z" style="fill:none;fill-rule:nonzero;stroke:rgb(26,46,53);stroke-width:1.07px;stroke-linecap:round;stroke-linejoin:round;"/>
            </g>
            <g transform="matrix(0.911698,-0.410862,-0.410862,-0.911698,164.808,196.826)">
                <path d="M-1.622,2.018L8.915,2.018L8.229,8.069L-1.465,6.837C-1.465,6.837 -1.513,4.93 -1.622,2.018Z" style="fill:rgb(26,46,53);fill-rule:nonzero;stroke:rgb(26,46,53);stroke-width:1.07px;stroke-linecap:round;stroke-linejoin:round;"/>
            </g>
            <g transform="matrix(0.141403,0.989952,0.989952,-0.141403,332.71,242.749)">
                <path d="M5.176,-9.731C5.176,-9.731 1.451,-9.199 0.995,-4.789C0.539,-0.38 3.656,4.332 5.176,5.474C6.697,6.614 10.346,3.649 13.272,1.33C16.199,-0.989 9.851,-9.313 5.176,-9.731Z" style="fill:rgb(26,46,53);fill-rule:nonzero;stroke:rgb(26,46,53);stroke-width:1.07px;stroke-linecap:round;stroke-linejoin:round;"/>
            </g>
            <g transform="matrix(1,0,0,1,312.251,258.387)">
                <path d="M0,18.546C-2.149,15.052 -15.589,-12.094 -15.589,-12.094C-15.589,-12.094 -6.034,-12.096 5.373,-14.43C3.502,-18.524 0.53,-27.956 7.908,-35.885C3.229,-35.071 -1.072,-34.402 -3.225,-34.402C-8.332,-34.402 -22.039,-36.284 -27.684,-34.134C-33.327,-31.983 -41.391,-27.683 -45.691,-26.608C-49.991,-25.533 -53.754,-24.458 -55.904,-24.458C-58.055,-24.458 -72.031,-22.845 -72.031,-22.845C-72.031,-22.845 -81.169,-24.996 -86.276,-24.996L-99.983,-24.996L-106.48,-28.121C-107.063,-22.653 -107.19,-15.339 -105.415,-7.783C-104.438,-7.394 -103.515,-7.035 -102.671,-6.719C-94.07,-3.493 -80.094,1.613 -80.094,1.613C-80.094,1.613 -66.387,17.202 -61.549,24.191C-56.711,31.179 -47.035,46.23 -45.153,49.455C-43.272,52.68 -37.091,54.83 -33.865,53.755C-30.64,52.68 -23.651,49.724 -18.813,49.724C-13.976,49.724 -5.913,47.305 -1.344,43.542C3.226,39.779 6.72,29.566 5.645,26.609C4.569,23.652 2.15,22.04 0,18.546" style="fill:rgb(138,255,178);fill-rule:nonzero;"/>
            </g>
            <g>
                <clipPath id="_clip6">
                    <path d="M309.027,223.984C303.919,223.984 290.212,222.103 284.567,224.253C278.923,226.404 270.86,230.704 266.559,231.778C262.26,232.854 258.497,233.928 256.347,233.928C254.196,233.928 240.22,235.541 240.22,235.541C240.22,235.541 231.081,233.391 225.975,233.391L212.268,233.391L205.771,230.266C205.188,235.734 205.061,243.048 206.836,250.604C207.813,250.993 208.736,251.352 209.58,251.668C218.181,254.894 232.157,260 232.157,260C232.157,260 245.865,275.589 250.702,282.577C255.54,289.566 265.216,304.616 267.098,307.842C268.978,311.067 275.16,313.217 278.385,312.141C281.611,311.067 288.599,308.11 293.438,308.11C298.275,308.11 306.337,305.692 310.907,301.929C315.477,298.166 318.971,287.952 317.895,284.996C316.821,282.039 314.401,280.427 312.251,276.932C310.101,273.439 296.663,246.293 296.663,246.293C296.663,246.293 306.217,246.291 317.624,243.957C315.753,239.863 312.781,230.43 320.159,222.502C315.481,223.316 311.179,223.984 309.027,223.984Z" clip-rule="nonzero"/>
                </clipPath>
                <g clip-path="url(#_clip6)">
                    <g opacity="0.2">
                        <g transform="matrix(1,0,0,1,318.045,267.61)">
                            <path d="M0,18.022C-0.033,17.784 -0.082,17.571 -0.149,17.386C-0.284,17.016 -0.439,16.668 -0.612,16.334C-1.825,13.997 -3.912,12.38 -5.794,9.323C-6.365,8.393 -7.74,5.783 -9.444,2.461C-9.742,1.881 -10.047,1.287 -10.362,0.668C-10.574,0.251 -10.79,-0.171 -11.008,-0.602C-11.335,-1.244 -11.668,-1.902 -12.004,-2.566C-12.231,-3.015 -12.46,-3.467 -12.689,-3.922C-13.181,-4.895 -13.675,-5.875 -14.166,-6.853C-14.811,-8.136 -15.447,-9.406 -16.062,-10.633C-16.93,-12.368 -17.748,-14.006 -18.473,-15.462C-18.834,-16.188 -19.171,-16.865 -19.479,-17.484C-19.635,-17.796 -19.782,-18.093 -19.922,-18.373C-20.036,-18.604 -20.146,-18.825 -20.249,-19.033C-20.955,-20.454 -21.383,-21.317 -21.383,-21.317C-21.383,-21.317 -21.344,-21.317 -21.278,-21.318L-21.269,-21.318C-21.126,-21.319 -20.846,-21.323 -20.447,-21.332C-20.435,-21.333 -20.422,-21.333 -20.409,-21.333C-17.914,-21.396 -10.892,-21.707 -2.559,-23.238C-2.547,-23.24 -2.536,-23.242 -2.525,-23.244C-1.84,-23.371 -1.146,-23.505 -0.444,-23.648C-0.437,-23.65 -0.429,-23.651 -0.422,-23.653C-0.811,-24.505 -1.247,-25.592 -1.629,-26.846C-5.45,-25.556 -9.353,-24.552 -12.461,-24.448C-21.777,-24.138 -41.343,-22.274 -41.343,-22.274C-41.343,-22.274 -33.579,-17.306 -30.784,-15.442C-27.989,-13.579 -9.666,11.577 -9.666,11.577L-35.753,-1.157L-4.697,19.961L-40.722,12.508L-3.455,24.62L-31.716,23.067C-31.716,23.067 -1.281,26.172 -4.387,29.589C-7.492,33.005 -13.703,36.111 -21.156,36.421C-28.61,36.732 -37.616,32.384 -37.616,32.384C-37.616,32.384 -28.61,38.285 -32.026,38.595C-35.442,38.906 -43.827,42.011 -48.486,36.421C-53.145,30.832 -82.647,-9.231 -82.647,-9.231L-94.759,-17.306L-92.896,-13.889C-92.896,-13.889 -102.091,-17.006 -111.932,-20.781C-111.734,-19.533 -111.507,-18.275 -111.209,-17.006C-110.754,-16.825 -110.313,-16.652 -109.884,-16.485C-109.816,-16.458 -109.749,-16.433 -109.682,-16.407C-109.262,-16.245 -108.854,-16.087 -108.465,-15.942C-99.864,-12.716 -85.888,-7.61 -85.888,-7.61C-85.888,-7.61 -78.178,1.159 -72.281,8.492C-71.544,9.408 -70.836,10.302 -70.174,11.154C-69.733,11.721 -69.313,12.271 -68.918,12.794C-68.722,13.057 -68.531,13.313 -68.348,13.562C-67.982,14.06 -67.645,14.531 -67.343,14.967C-66.587,16.059 -65.713,17.347 -64.769,18.757C-64.392,19.322 -64.002,19.905 -63.605,20.502C-62.217,22.594 -60.729,24.864 -59.272,27.103C-58.857,27.744 -58.443,28.38 -58.036,29.01C-56.814,30.9 -55.645,32.724 -54.609,34.35C-54.092,35.164 -53.608,35.927 -53.169,36.626C-53.022,36.859 -52.881,37.084 -52.745,37.301C-52.199,38.171 -51.739,38.916 -51.389,39.494C-51.213,39.783 -51.065,40.03 -50.947,40.232C-50.359,41.24 -49.352,42.142 -48.146,42.875C-47.663,43.168 -47.148,43.433 -46.616,43.668C-46.351,43.785 -46.08,43.894 -45.808,43.995C-44.716,44.398 -43.581,44.667 -42.519,44.767C-41.456,44.868 -40.466,44.801 -39.659,44.532C-39.256,44.398 -38.794,44.234 -38.285,44.05C-37.775,43.867 -37.219,43.663 -36.627,43.449C-35.442,43.02 -34.115,42.55 -32.738,42.113C-29.983,41.24 -27.026,40.501 -24.607,40.501C-22.491,40.501 -19.757,40.038 -16.969,39.202C-16.429,39.04 -15.887,38.859 -15.347,38.669C-14.85,38.496 -14.355,38.31 -13.865,38.114C-11.351,37.107 -8.964,35.823 -7.138,34.319C-6.566,33.848 -6.012,33.277 -5.481,32.632C-4.686,31.665 -3.942,30.53 -3.275,29.32C-2.831,28.512 -2.42,27.671 -2.051,26.824C-1.681,25.976 -1.352,25.121 -1.069,24.286C-0.929,23.868 -0.8,23.456 -0.684,23.05C-0.218,21.433 0.043,19.947 0.047,18.808C0.047,18.523 0.032,18.26 0,18.022" style="fill-rule:nonzero;"/>
                        </g>
                    </g>
                </g>
            </g>
            <g transform="matrix(1,0,0,1,312.251,258.387)">
                <path d="M0,18.546C-2.149,15.052 -15.589,-12.094 -15.589,-12.094C-15.589,-12.094 -6.034,-12.096 5.373,-14.43C3.502,-18.524 0.53,-27.956 7.908,-35.885C3.229,-35.071 -1.072,-34.402 -3.225,-34.402C-8.332,-34.402 -22.039,-36.284 -27.684,-34.134C-33.327,-31.983 -41.391,-27.683 -45.691,-26.608C-49.991,-25.533 -53.754,-24.458 -55.904,-24.458C-58.055,-24.458 -72.031,-22.845 -72.031,-22.845C-72.031,-22.845 -81.169,-24.996 -86.276,-24.996L-99.983,-24.996L-106.48,-28.121C-107.063,-22.653 -107.19,-15.339 -105.415,-7.783C-104.438,-7.394 -103.515,-7.035 -102.671,-6.719C-94.07,-3.493 -80.094,1.613 -80.094,1.613C-80.094,1.613 -66.387,17.202 -61.549,24.191C-56.711,31.179 -47.035,46.23 -45.153,49.455C-43.272,52.68 -37.091,54.83 -33.865,53.755C-30.64,52.68 -23.651,49.724 -18.813,49.724C-13.976,49.724 -5.913,47.305 -1.344,43.542C3.226,39.779 6.72,29.566 5.645,26.609C4.569,23.652 2.15,22.04 0,18.546Z" style="fill:none;fill-rule:nonzero;stroke:rgb(26,46,53);stroke-width:1.07px;stroke-linecap:round;stroke-linejoin:round;"/>
            </g>
            <g transform="matrix(1,0,0,1,266.56,250.897)">
                <path d="M0,-19.118C-4.3,-18.043 -8.063,-16.968 -10.213,-16.968C-11.568,-16.968 -17.623,-16.327 -21.914,-15.853C-22.823,-11.72 -23.504,-3.627 -15.588,-1.648C-5.369,0.907 -0.251,-8.682 2.77,-20.025C1.741,-19.634 0.805,-19.319 0,-19.118" style="fill:rgb(26,46,53);fill-rule:nonzero;"/>
            </g>
            <g transform="matrix(1,0,0,1,266.56,250.897)">
                <path d="M0,-19.118C-4.3,-18.043 -8.063,-16.968 -10.213,-16.968C-11.568,-16.968 -17.623,-16.327 -21.914,-15.853C-22.823,-11.72 -23.504,-3.627 -15.588,-1.648C-5.369,0.907 -0.251,-8.682 2.77,-20.025C1.741,-19.634 0.805,-19.319 0,-19.118Z" style="fill:none;fill-rule:nonzero;stroke:rgb(26,46,53);stroke-width:1.07px;stroke-linecap:round;stroke-linejoin:round;"/>
            </g>
            <g transform="matrix(1,0,0,1,232.963,207.858)">
                <path d="M0,-1.613C0,-1.613 -5.107,-1.075 -7.526,-6.182C-9.945,-11.289 -1.075,-16.664 1.075,-16.127C3.225,-15.589 3.763,-12.902 5.106,-13.439C6.45,-13.976 7.794,-17.47 13.169,-17.47C18.545,-17.47 15.32,-15.589 16.933,-12.633C18.545,-9.676 26.877,-10.751 29.565,-6.182C32.252,-1.613 31.984,5.375 31.177,8.332C30.372,11.288 28.758,15.857 23.652,14.783C18.545,13.707 15.588,2.687 13.707,0C11.826,-2.688 0,-1.613 0,-1.613Z" style="fill:rgb(26,46,53);fill-rule:nonzero;stroke:rgb(26,46,53);stroke-width:1.07px;stroke-linecap:round;stroke-linejoin:round;"/>
            </g>
            <g transform="matrix(1,0,0,1,231.351,243.873)">
                <path d="M0,-37.628C0,-37.628 -1.881,-28.221 -1.613,-20.695C-1.344,-13.17 0.269,-7.256 2.957,-6.45C5.644,-5.644 12.632,-5.644 12.632,-5.644C12.632,-5.644 18.008,2.688 21.771,3.226C25.533,3.763 33.597,-5.644 34.403,-8.869C35.209,-12.094 30.909,-18.814 30.909,-18.814C30.909,-18.814 34.403,-22.039 34.134,-26.07C33.865,-30.102 30.371,-32.253 28.49,-30.64C26.608,-29.027 25.802,-26.07 25.802,-26.07C25.802,-26.07 23.383,-26.07 23.114,-27.146C22.846,-28.221 23.921,-27.952 22.846,-30.102C21.771,-32.253 17.739,-31.983 18.008,-34.402C18.276,-36.821 20.158,-37.628 18.814,-38.972C17.47,-40.316 13.708,-41.391 9.407,-41.391C5.106,-41.391 0,-37.628 0,-37.628" style="fill:white;fill-rule:nonzero;"/>
            </g>
            <g>
                <clipPath id="_clip7">
                    <path d="M231.35,206.245C231.35,206.245 229.469,215.652 229.738,223.178C230.007,230.704 231.619,236.617 234.307,237.423C236.994,238.23 243.983,238.23 243.983,238.23C243.983,238.23 249.359,246.561 253.121,247.098C256.883,247.636 264.947,238.23 265.754,235.004C266.559,231.778 262.26,225.06 262.26,225.06C262.26,225.06 265.754,221.834 265.485,217.802C265.216,213.771 261.722,211.62 259.841,213.233C257.959,214.846 257.152,217.802 257.152,217.802C257.152,217.802 254.733,217.802 254.465,216.728C254.196,215.652 255.271,215.921 254.196,213.771C253.121,211.62 249.089,211.889 249.359,209.471C249.627,207.052 251.509,206.245 250.165,204.902C248.821,203.558 245.058,202.483 240.757,202.483C236.457,202.483 231.35,206.245 231.35,206.245Z" clip-rule="nonzero"/>
                </clipPath>
                <g clip-path="url(#_clip7)">
                    <g opacity="0.2">
                        <g transform="matrix(1,0,0,1,265.754,230.435)">
                            <path d="M0,4.569C0.806,1.344 -3.494,-5.375 -3.494,-5.375C-3.494,-5.375 0,-8.601 -0.27,-12.632C-2.096,-6.218 -7.064,-6.528 -7.064,-6.528C-7.064,-6.528 -8.928,-1.248 -16.071,2.168C-23.213,5.584 -30.667,6.205 -33.462,4.963C-33.512,4.941 -33.553,4.932 -33.601,4.914C-32.988,6.014 -32.268,6.742 -31.447,6.988C-28.759,7.795 -21.771,7.795 -21.771,7.795C-21.771,7.795 -16.396,16.127 -12.633,16.664C-8.87,17.201 -0.807,7.795 0,4.569" style="fill-rule:nonzero;"/>
                        </g>
                    </g>
                </g>
            </g>
            <g transform="matrix(1,0,0,1,231.351,243.873)">
                <path d="M0,-37.628C0,-37.628 -1.881,-28.221 -1.613,-20.695C-1.344,-13.17 0.269,-7.256 2.957,-6.45C5.644,-5.644 12.632,-5.644 12.632,-5.644C12.632,-5.644 18.008,2.688 21.771,3.226C25.533,3.763 33.597,-5.644 34.403,-8.869C35.209,-12.094 30.909,-18.814 30.909,-18.814C30.909,-18.814 34.403,-22.039 34.134,-26.07C33.865,-30.102 30.371,-32.253 28.49,-30.64C26.608,-29.027 25.802,-26.07 25.802,-26.07C25.802,-26.07 23.383,-26.07 23.114,-27.146C22.846,-28.221 23.921,-27.952 22.846,-30.102C21.771,-32.253 17.739,-31.983 18.008,-34.402C18.276,-36.821 20.158,-37.628 18.814,-38.972C17.47,-40.316 13.708,-41.391 9.407,-41.391C5.106,-41.391 0,-37.628 0,-37.628Z" style="fill:none;fill-rule:nonzero;stroke:rgb(26,46,53);stroke-width:1.07px;stroke-linecap:round;stroke-linejoin:round;"/>
            </g>
            <g transform="matrix(1,0,0,1,234.845,220.222)">
                <path d="M0,-6.72L-3.494,-0.807L-0.538,0" style="fill:none;fill-rule:nonzero;stroke:rgb(26,46,53);stroke-width:1.07px;stroke-linecap:round;stroke-linejoin:round;"/>
            </g>
            <g transform="matrix(0.98289,-0.184192,-0.184192,-0.98289,233.661,224.638)">
                <path d="M-0.087,0.408C-0.087,0.408 1.482,1.481 4.289,0.408" style="fill:none;fill-rule:nonzero;stroke:rgb(26,46,53);stroke-width:1.07px;stroke-linecap:round;stroke-linejoin:round;"/>
            </g>
            <g transform="matrix(0.876164,-0.482013,-0.482013,-0.876164,238.847,212.195)">
                <path d="M-0.38,1.479C-0.38,1.479 2.564,2.927 5.755,1.479" style="fill:none;fill-rule:nonzero;stroke:rgb(26,46,53);stroke-width:1.07px;stroke-linecap:round;stroke-linejoin:round;"/>
            </g>
            <g transform="matrix(1,0,0,1,231.082,210.008)">
                <path d="M0,1.344C0,1.344 1.613,0 3.226,1.344" style="fill:none;fill-rule:nonzero;stroke:rgb(26,46,53);stroke-width:1.07px;stroke-linecap:round;stroke-linejoin:round;"/>
            </g>
            <g transform="matrix(0,-1,-1,0,239.415,210.949)">
                <path d="M-0.941,-0.94C-1.832,-0.94 -2.553,-0.519 -2.553,0.001C-2.553,0.52 -1.832,0.941 -0.941,0.941C-0.05,0.941 0.672,0.52 0.672,0.001C0.672,-0.519 -0.05,-0.94 -0.941,-0.94" style="fill:rgb(26,46,53);fill-rule:nonzero;"/>
            </g>
            <g transform="matrix(0,-1,-1,0,231.62,211.755)">
                <path d="M-0.941,-0.941C-1.832,-0.941 -2.554,-0.52 -2.554,0.001C-2.554,0.52 -1.832,0.941 -0.941,0.941C-0.049,0.941 0.673,0.52 0.673,0.001C0.673,-0.52 -0.049,-0.941 -0.941,-0.941" style="fill:rgb(26,46,53);fill-rule:nonzero;"/>
            </g>
            <g transform="matrix(-0.981772,0.190062,0.190062,0.981772,320.381,263.178)">
                <path d="M1.504,-9.551C1.504,-9.551 4.977,-8.582 5.598,-6.785C6.22,-4.989 4.203,-2.682 1.504,-1.065C-1.194,0.553 -3.085,-0.723 -2.804,-3.517C-2.522,-6.308 1.504,-9.551 1.504,-9.551Z" style="fill:rgb(138,255,178);fill-rule:nonzero;stroke:rgb(26,46,53);stroke-width:1.07px;stroke-linecap:round;stroke-linejoin:round;"/>
            </g>
            <g transform="matrix(1,0,0,1,337.688,255.684)">
                <path d="M0,-3.731C0.12,-5.212 -0.76,-6.609 -2.161,-7.105C-4.352,-7.88 -8.006,-8.854 -12.536,-8.854C-20.062,-8.854 -21.405,-8.854 -21.675,-4.285C-21.943,0.285 -21.675,2.972 -18.986,3.778C-16.299,4.584 -6.623,5.123 -3.936,4.584C-1.662,4.13 -0.351,0.599 0,-3.731" style="fill:rgb(138,255,178);fill-rule:nonzero;"/>
            </g>
            <g transform="matrix(1,0,0,1,337.688,255.684)">
                <path d="M0,-3.731C0.12,-5.212 -0.76,-6.609 -2.161,-7.105C-4.352,-7.88 -8.006,-8.854 -12.536,-8.854C-20.062,-8.854 -21.405,-8.854 -21.675,-4.285C-21.943,0.285 -21.675,2.972 -18.986,3.778C-16.299,4.584 -6.623,5.123 -3.936,4.584C-1.662,4.13 -0.351,0.599 0,-3.731Z" style="fill:none;fill-rule:nonzero;stroke:rgb(26,46,53);stroke-width:1.07px;stroke-linecap:round;stroke-linejoin:round;"/>
            </g>
            <g transform="matrix(0,-1,-1,0,326.766,252.743)">
                <path d="M-6.988,5.645C-6.988,5.645 1.612,6.989 5.645,5.645" style="fill:none;fill-rule:nonzero;stroke:rgb(26,46,53);stroke-width:1.07px;stroke-linecap:round;stroke-linejoin:round;"/>
            </g>
            <g transform="matrix(0.0200139,-0.9998,-0.9998,-0.0200139,331.755,252.744)">
                <path d="M-7.639,5.644C-7.639,5.644 2.26,7.993 5.801,5.644" style="fill:none;fill-rule:nonzero;stroke:rgb(26,46,53);stroke-width:1.07px;stroke-linecap:round;stroke-linejoin:round;"/>
            </g>
            <g transform="matrix(0.0847948,-0.996398,-0.996398,-0.0847948,336.675,254.891)">
                <path d="M-6.17,5.914C-6.17,5.914 1.795,7.401 6.508,5.914" style="fill:none;fill-rule:nonzero;stroke:rgb(26,46,53);stroke-width:1.07px;stroke-linecap:round;stroke-linejoin:round;"/>
            </g>
            <g transform="matrix(0.383377,-0.923592,-0.923592,-0.383377,337.316,239.256)">
                <path d="M-4.755,7.122C-4.755,7.122 7.114,7.975 10.668,7.122" style="fill:none;fill-rule:nonzero;stroke:rgb(26,46,53);stroke-width:1.07px;stroke-linecap:round;stroke-linejoin:round;"/>
            </g>
            <g transform="matrix(1,0,0,1,169.934,163.564)">
                <path d="M0,25.089L0,13.047C0,9.199 -3.178,4.015 -4.349,1.506C-5.52,-1.003 -6.188,-1.17 -7.861,-0.836C-9.534,-0.501 -9.366,2.175 -9.366,2.175C-9.366,2.175 -10.704,-0.836 -12.209,-2.508C-13.715,-4.181 -20.572,-3.679 -22.078,-0.668C-23.583,2.342 -23.917,10.203 -21.576,15.89C-19.234,21.576 -14.886,25.256 -13.213,26.594C-11.541,27.932 -8.864,29.27 -8.864,29.27L0,25.089Z" style="fill:rgb(138,255,178);fill-rule:nonzero;stroke:rgb(26,46,53);stroke-width:1.07px;stroke-linecap:round;stroke-linejoin:round;"/>
            </g>
            <g transform="matrix(1,0,0,1,160.567,179.788)">
                <path d="M0,-14.049L2.341,-5.352C2.341,-5.352 -1.171,-3.846 -0.669,0" style="fill:none;fill-rule:nonzero;stroke:rgb(26,46,53);stroke-width:1.07px;stroke-linecap:round;stroke-linejoin:round;"/>
            </g>
            <g transform="matrix(0.929576,-0.36863,-0.36863,-0.929576,152.084,176.758)">
                <path d="M-0.367,1.924C-0.367,1.924 4.38,3.46 10.068,1.924" style="fill:none;fill-rule:nonzero;stroke:rgb(26,46,53);stroke-width:1.07px;stroke-linecap:round;stroke-linejoin:round;"/>
            </g>
            <g transform="matrix(0.341729,0.939798,0.939798,-0.341729,160.72,162.133)">
                <path d="M-3.866,-5.52L7.88,-5.519" style="fill:none;fill-rule:nonzero;stroke:rgb(26,46,53);stroke-width:1.07px;stroke-linecap:round;stroke-linejoin:round;"/>
            </g>
            <g transform="matrix(0.373787,0.927515,0.927515,-0.373787,156.139,162.971)">
                <path d="M-3.783,-5.603L8.299,-5.603" style="fill:none;fill-rule:nonzero;stroke:rgb(26,46,53);stroke-width:1.07px;stroke-linecap:round;stroke-linejoin:round;"/>
            </g>
            <g transform="matrix(1,0,0,1,147.019,174.268)">
                <path d="M0,-8.195C0,-8.195 1.171,-8.195 1.84,-5.519C2.509,-2.843 4.516,0 4.516,0" style="fill:none;fill-rule:nonzero;stroke:rgb(26,46,53);stroke-width:1.07px;stroke-linecap:round;stroke-linejoin:round;"/>
            </g>
            <g transform="matrix(0.945181,0.326547,0.326547,-0.945181,306.483,323.077)">
                <path d="M-0.526,-3.132C-0.526,-3.132 11.695,-5.188 18.657,-3.132" style="fill:none;fill-rule:nonzero;stroke:rgb(26,46,53);stroke-width:1.07px;stroke-linecap:round;stroke-linejoin:round;"/>
            </g>
            <g transform="matrix(-0.806973,-0.590589,-0.590589,0.806973,323.097,323.472)">
                <path d="M-20.935,6.843L2.236,6.842" style="fill:none;fill-rule:nonzero;stroke:rgb(26,46,53);stroke-width:1.07px;stroke-linecap:round;stroke-linejoin:round;"/>
            </g>
            <g transform="matrix(1,0,0,1,223.869,256.044)">
                <path d="M0,-9.625L8.288,3.956L-10.549,-13.581" style="fill:none;fill-rule:nonzero;stroke:rgb(26,46,53);stroke-width:1.07px;stroke-linecap:round;stroke-linejoin:round;"/>
            </g>
            <g transform="matrix(1,0,0,1,288.81,247.408)">
                <path d="M0,-2.637L7.852,-1.116L-6.264,0" style="fill:none;fill-rule:nonzero;stroke:rgb(26,46,53);stroke-width:1.07px;stroke-linecap:round;stroke-linejoin:round;"/>
            </g>
        </g>
    </g>
</svg>
